<svg width="80" height="80" viewBox="0 0 80 80" fill="none" xmlns="http://www.w3.org/2000/svg">
<g clip-path="url(#clip0)">
<path d="M77.6548 6.56261H73.2814V2.34557C73.2814 0.259781 70.8333 -0.783033 69.3667 0.688532L59.4239 10.6312C58.9843 11.0707 58.7684 11.6657 58.7684 12.2882V17.9487L57.2315 19.4565C47.9831 28.705 41.6746 35.0134 33.0035 43.6846C32.088 44.6 32.088 46.0833 33.0035 46.9989C33.9191 47.9146 35.4021 47.9146 36.3179 46.9989C38.9294 44.3874 58.4692 24.8455 61.081 22.2337L62.0515 21.232H67.7097C68.3322 21.232 68.9273 21.0161 69.3667 20.5765L79.3119 10.6314C80.7822 9.16105 79.7423 6.56261 77.6548 6.56261Z" fill="#2F80ED"/>
<path d="M46.6981 43.2474L40.113 49.8326C39.883 50.0626 39.6169 50.234 39.3333 50.3484C36.1077 52.8009 32.4456 52.1089 30.1677 49.8348L30.1653 49.8325C27.4277 47.0882 27.4277 42.6293 30.1677 39.8895C30.1861 39.8713 30.2127 39.8665 30.2313 39.8484C30.2481 39.8304 30.2533 39.8063 30.2708 39.7888L36.7566 33.3031C32.7795 32.7543 29.3174 34.1091 26.8534 36.5731C22.2849 41.1417 22.2849 48.5782 26.8534 53.1468C31.4199 57.7133 38.8563 57.7178 43.4272 53.1468C46.1213 50.4514 47.1827 46.7614 46.6981 43.2474Z" fill="#2F80ED"/>
<path d="M54.1114 35.834L50.5487 39.3967C52.5832 45.1707 51.3498 51.8511 46.7407 56.4617C40.343 62.8594 29.9336 62.857 23.5383 56.4617C17.141 50.0643 17.141 39.6567 23.5383 33.2593C28.1485 28.6509 34.8326 27.4159 40.6077 29.4516L44.169 25.8905C35.4838 21.7697 26.1588 24.0105 20.2241 29.9451C11.9927 38.1717 11.992 51.5489 20.2241 59.7762C28.4508 68.0077 41.8279 68.0084 50.0553 59.7762C56.5271 53.304 57.8257 43.6676 54.1114 35.834Z" fill="#2F80ED"/>
<path d="M64.4716 25.474L57.5664 32.379C63.0122 42.1854 61.6874 54.7726 53.37 63.09C43.3112 73.1534 26.9708 73.1552 16.9103 63.09C6.84665 53.0311 6.84509 36.6907 16.9103 26.6302C25.2301 18.3104 37.8181 16.9885 47.6241 22.4355L54.5291 15.5305C41.0722 6.60503 22.4459 7.83519 10.2795 20.0016C-3.42649 33.7076 -3.42649 56.0128 10.2795 69.7208C17.1346 76.5736 26.1368 80.0002 35.1392 80.0002C44.1438 80.0002 53.1458 76.5736 59.9989 69.7208C72.1391 57.5806 73.416 38.9615 64.4716 25.474Z" fill="#2F80ED"/>
</g>
<defs>
<clipPath id="clip0">
<rect width="80" height="80" fill="white"/>
</clipPath>
</defs>
</svg>
