<svg width="136" height="48" viewBox="0 0 136 48" fill="none" xmlns="http://www.w3.org/2000/svg">
<rect width="136" height="48" fill="#FAFAFD"/>
<path d="M25.6283 28.608V30H17.5003V18.8H25.4043V20.192H19.1003V23.632H24.7163V24.992H19.1003V28.608H25.6283ZM35.3584 21.52L31.6464 30H30.0784L26.3664 21.52H27.9664L30.8784 28.32L33.8544 21.52H35.3584ZM44.2216 25.808C44.2216 25.9253 44.2109 26.08 44.1896 26.272H37.3096C37.4056 27.0187 37.7309 27.6213 38.2856 28.08C38.8509 28.528 39.5496 28.752 40.3816 28.752C41.3949 28.752 42.2109 28.4107 42.8296 27.728L43.6776 28.72C43.2936 29.168 42.8136 29.5093 42.2376 29.744C41.6722 29.9787 41.0376 30.096 40.3336 30.096C39.4376 30.096 38.6429 29.9147 37.9496 29.552C37.2562 29.1787 36.7176 28.6613 36.3336 28C35.9602 27.3387 35.7736 26.592 35.7736 25.76C35.7736 24.9387 35.9549 24.1973 36.3176 23.536C36.6909 22.8747 37.1976 22.3627 37.8376 22C38.4882 21.6267 39.2189 21.44 40.0296 21.44C40.8402 21.44 41.5602 21.6267 42.1896 22C42.8296 22.3627 43.3256 22.8747 43.6776 23.536C44.0402 24.1973 44.2216 24.9547 44.2216 25.808ZM40.0296 22.736C39.2936 22.736 38.6749 22.96 38.1736 23.408C37.6829 23.856 37.3949 24.4427 37.3096 25.168H42.7496C42.6642 24.4533 42.3709 23.872 41.8696 23.424C41.3789 22.9653 40.7656 22.736 40.0296 22.736ZM50.8824 21.44C51.9598 21.44 52.8131 21.7547 53.4424 22.384C54.0824 23.0027 54.4024 23.9147 54.4024 25.12V30H52.8664V25.296C52.8664 24.4747 52.6691 23.856 52.2744 23.44C51.8798 23.024 51.3144 22.816 50.5784 22.816C49.7464 22.816 49.0904 23.0613 48.6104 23.552C48.1304 24.032 47.8904 24.7253 47.8904 25.632V30H46.3544V21.52H47.8264V22.8C48.1358 22.3627 48.5518 22.0267 49.0744 21.792C49.6078 21.5573 50.2104 21.44 50.8824 21.44ZM62.0131 29.504C61.7891 29.696 61.5117 29.8453 61.1811 29.952C60.8504 30.048 60.5091 30.096 60.1571 30.096C59.3037 30.096 58.6424 29.8667 58.1731 29.408C57.7037 28.9493 57.4691 28.2933 57.4691 27.44V22.784H56.0291V21.52H57.4691V19.664H59.0051V21.52H61.4371V22.784H59.0051V27.376C59.0051 27.8347 59.1171 28.1867 59.3411 28.432C59.5757 28.6773 59.9064 28.8 60.3331 28.8C60.8024 28.8 61.2024 28.6667 61.5331 28.4L62.0131 29.504ZM72.6629 21.44C73.4843 21.44 74.2203 21.6213 74.8709 21.984C75.5216 22.3467 76.0283 22.8533 76.3909 23.504C76.7643 24.1547 76.9509 24.9067 76.9509 25.76C76.9509 26.6133 76.7643 27.3707 76.3909 28.032C76.0283 28.6827 75.5216 29.1893 74.8709 29.552C74.2203 29.9147 73.4843 30.096 72.6629 30.096C72.0336 30.096 71.4576 29.9733 70.9349 29.728C70.4123 29.4827 69.9803 29.1253 69.6389 28.656V30H68.1669V18.128H69.7029V22.8C70.0443 22.352 70.4709 22.016 70.9829 21.792C71.4949 21.5573 72.0549 21.44 72.6629 21.44ZM72.5349 28.752C73.0789 28.752 73.5643 28.6293 73.9909 28.384C74.4283 28.128 74.7696 27.776 75.0149 27.328C75.2709 26.8693 75.3989 26.3467 75.3989 25.76C75.3989 25.1733 75.2709 24.656 75.0149 24.208C74.7696 23.7493 74.4283 23.3973 73.9909 23.152C73.5643 22.9067 73.0789 22.784 72.5349 22.784C72.0016 22.784 71.5163 22.9067 71.0789 23.152C70.6416 23.3973 70.3003 23.7493 70.0549 24.208C69.8096 24.656 69.6869 25.1733 69.6869 25.76C69.6869 26.3467 69.8096 26.8693 70.0549 27.328C70.3003 27.776 70.6416 28.128 71.0789 28.384C71.5163 28.6293 72.0016 28.752 72.5349 28.752ZM86.7372 25.808C86.7372 25.9253 86.7265 26.08 86.7052 26.272H79.8252C79.9212 27.0187 80.2465 27.6213 80.8012 28.08C81.3665 28.528 82.0652 28.752 82.8972 28.752C83.9105 28.752 84.7265 28.4107 85.3452 27.728L86.1932 28.72C85.8092 29.168 85.3292 29.5093 84.7532 29.744C84.1879 29.9787 83.5532 30.096 82.8492 30.096C81.9532 30.096 81.1585 29.9147 80.4652 29.552C79.7719 29.1787 79.2332 28.6613 78.8492 28C78.4759 27.3387 78.2892 26.592 78.2892 25.76C78.2892 24.9387 78.4705 24.1973 78.8332 23.536C79.2065 22.8747 79.7132 22.3627 80.3532 22C81.0039 21.6267 81.7345 21.44 82.5452 21.44C83.3559 21.44 84.0759 21.6267 84.7052 22C85.3452 22.3627 85.8412 22.8747 86.1932 23.536C86.5559 24.1973 86.7372 24.9547 86.7372 25.808ZM82.5452 22.736C81.8092 22.736 81.1905 22.96 80.6892 23.408C80.1985 23.856 79.9105 24.4427 79.8252 25.168H85.2652C85.1799 24.4533 84.8865 23.872 84.3852 23.424C83.8945 22.9653 83.2812 22.736 82.5452 22.736ZM96.9821 21.52V28.848C96.9821 30.3307 96.6141 31.424 95.8781 32.128C95.1421 32.8427 94.0434 33.2 92.5821 33.2C91.7821 33.2 91.0194 33.088 90.2941 32.864C89.5687 32.6507 88.9821 32.3413 88.5341 31.936L89.2701 30.752C89.6647 31.0933 90.1501 31.36 90.7261 31.552C91.3127 31.7547 91.9154 31.856 92.5341 31.856C93.5261 31.856 94.2567 31.6213 94.7261 31.152C95.2061 30.6827 95.4461 29.968 95.4461 29.008V28.336C95.0834 28.7733 94.6354 29.104 94.1021 29.328C93.5794 29.5413 93.0087 29.648 92.3901 29.648C91.5794 29.648 90.8434 29.4773 90.1821 29.136C89.5314 28.784 89.0194 28.2987 88.6461 27.68C88.2727 27.0507 88.0861 26.336 88.0861 25.536C88.0861 24.736 88.2727 24.0267 88.6461 23.408C89.0194 22.7787 89.5314 22.2933 90.1821 21.952C90.8434 21.6107 91.5794 21.44 92.3901 21.44C93.0301 21.44 93.6221 21.5573 94.1661 21.792C94.7207 22.0267 95.1741 22.3733 95.5261 22.832V21.52H96.9821ZM92.5661 28.304C93.1207 28.304 93.6167 28.1867 94.0541 27.952C94.5021 27.7173 94.8487 27.392 95.0941 26.976C95.3501 26.5493 95.4781 26.0693 95.4781 25.536C95.4781 24.7147 95.2061 24.0533 94.6621 23.552C94.1181 23.04 93.4194 22.784 92.5661 22.784C91.7021 22.784 90.9981 23.04 90.4541 23.552C89.9101 24.0533 89.6381 24.7147 89.6381 25.536C89.6381 26.0693 89.7607 26.5493 90.0061 26.976C90.2621 27.392 90.6087 27.7173 91.0461 27.952C91.4941 28.1867 92.0007 28.304 92.5661 28.304ZM107.821 21.52V30H106.365V28.72C106.056 29.1573 105.645 29.4987 105.133 29.744C104.632 29.9787 104.082 30.096 103.485 30.096C102.354 30.096 101.464 29.7867 100.813 29.168C100.162 28.5387 99.8369 27.616 99.8369 26.4V21.52H101.373V26.224C101.373 27.0453 101.57 27.6693 101.965 28.096C102.36 28.512 102.925 28.72 103.661 28.72C104.472 28.72 105.112 28.4747 105.581 27.984C106.05 27.4933 106.285 26.8 106.285 25.904V21.52H107.821ZM115.273 21.44C116.35 21.44 117.204 21.7547 117.833 22.384C118.473 23.0027 118.793 23.9147 118.793 25.12V30H117.257V25.296C117.257 24.4747 117.06 23.856 116.665 23.44C116.27 23.024 115.705 22.816 114.969 22.816C114.137 22.816 113.481 23.0613 113.001 23.552C112.521 24.032 112.281 24.7253 112.281 25.632V30H110.745V21.52H112.217V22.8C112.526 22.3627 112.942 22.0267 113.465 21.792C113.998 21.5573 114.601 21.44 115.273 21.44Z" fill="#27AE60"/>
</svg>
