<svg width="80" height="80" viewBox="0 0 80 80" fill="none" xmlns="http://www.w3.org/2000/svg">
<path d="M29.1474 44.1354C29.1474 43.1333 28.3345 42.3214 27.3316 42.3214H20.995C19.9932 42.3214 19.1802 43.1333 19.1802 44.1354V50.4712C19.1802 51.4746 19.9932 52.2868 20.995 52.2868H27.3316C28.3345 52.2868 29.1474 51.4746 29.1474 50.4712V44.1354Z" fill="#2F80ED"/>
<path d="M44.9833 44.1354C44.9833 43.1333 44.1703 42.3214 43.1693 42.3214H36.8319C35.8301 42.3214 35.0171 43.1333 35.0171 44.1354V50.4712C35.0171 51.4746 35.8301 52.2868 36.8319 52.2868H43.1693C44.1703 52.2868 44.9833 51.4746 44.9833 50.4712V44.1354Z" fill="#2F80ED"/>
<path d="M60.82 44.1354C60.82 43.1333 60.007 42.3214 59.0052 42.3214H52.6686C51.6656 42.3214 50.8528 43.1333 50.8528 44.1354V50.4712C50.8528 51.4746 51.6656 52.2868 52.6686 52.2868H59.0052C60.007 52.2868 60.82 51.4746 60.82 50.4712V44.1354Z" fill="#2F80ED"/>
<path d="M29.1474 59.9731C29.1474 58.9693 28.3345 58.1581 27.3316 58.1581H20.995C19.9932 58.1581 19.1802 58.9693 19.1802 59.9731V66.3077C19.1802 67.3105 19.9932 68.1225 20.995 68.1225H27.3316C28.3345 68.1225 29.1474 67.3103 29.1474 66.3077V59.9731Z" fill="#2F80ED"/>
<path d="M44.9833 59.9731C44.9833 58.9693 44.1703 58.1581 43.1693 58.1581H36.8319C35.8301 58.1581 35.0171 58.9693 35.0171 59.9731V66.3077C35.0171 67.3105 35.8301 68.1225 36.8319 68.1225H43.1693C44.1703 68.1225 44.9833 67.3103 44.9833 66.3077V59.9731Z" fill="#2F80ED"/>
<path d="M60.82 59.9731C60.82 58.9693 60.007 58.1581 59.006 58.1581H52.6686C51.6656 58.1581 50.8528 58.9693 50.8528 59.9731V66.3077C50.8528 67.3105 51.6656 68.1225 52.6686 68.1225H59.006C60.007 68.1225 60.82 67.3103 60.82 66.3077V59.9731Z" fill="#2F80ED"/>
<path d="M72.1505 8.90767V18.585C72.1505 22.959 68.6021 26.4838 64.2287 26.4838H59.2314C54.8577 26.4838 51.2623 22.959 51.2623 18.585V8.87292H28.7381V18.585C28.7381 22.959 25.1429 26.4838 20.7698 26.4838H15.7715C11.3983 26.4838 7.85004 22.959 7.85004 18.585V8.90767C4.02779 9.02288 0.886963 12.1857 0.886963 16.0731V72.7868C0.886963 76.7474 4.09711 80.0001 8.05768 80.0001H71.9427C75.8974 80.0001 79.1134 76.7406 79.1134 72.7868V16.0731C79.1134 12.1857 75.9728 9.02288 72.1505 8.90767ZM69.8294 69.2551C69.8294 70.9667 68.4417 72.3553 66.7294 72.3553H13.1345C11.4222 72.3553 10.0344 70.9667 10.0344 69.2551V39.9605C10.0344 38.2482 11.422 36.8596 13.1345 36.8596H66.7292C68.4415 36.8596 69.8293 38.2482 69.8293 39.9605L69.8294 69.2551Z" fill="#2F80ED"/>
<path d="M15.754 21.2958H20.697C22.1974 21.2958 23.4139 20.0811 23.4139 18.5808V2.71604C23.4139 1.21552 22.1974 0 20.697 0H15.754C14.2535 0 13.0371 1.21552 13.0371 2.71604V18.5808C13.0371 20.0811 14.2535 21.2958 15.754 21.2958Z" fill="#2F80ED"/>
<path d="M59.1676 21.2958H64.1107C65.61 21.2958 66.8265 20.0811 66.8265 18.5808V2.71604C66.8267 1.21552 65.6102 0 64.1107 0H59.1676C57.6674 0 56.4509 1.21552 56.4509 2.71604V18.5808C56.4509 20.0811 57.6674 21.2958 59.1676 21.2958Z" fill="#2F80ED"/>
</svg>
