<svg width="200" height="45" viewBox="0 0 200 45" fill="none" xmlns="http://www.w3.org/2000/svg">
<rect x="1" y="1" width="198" height="43" stroke="#2F80ED" stroke-width="2"/>
<path d="M39.5032 28.3409C38.3938 28.3409 37.3912 28.0956 36.4952 27.6049C35.6098 27.1143 34.9112 26.4369 34.3992 25.5729C33.8978 24.6983 33.6472 23.7223 33.6472 22.6449C33.6472 21.5676 33.8978 20.5969 34.3992 19.7329C34.9112 18.8583 35.6152 18.1756 36.5112 17.6849C37.4072 17.1943 38.4098 16.9489 39.5192 16.9489C40.3512 16.9489 41.1192 17.0876 41.8232 17.3649C42.5272 17.6423 43.1245 18.0476 43.6152 18.5809L42.8632 19.3329C41.9885 18.4476 40.8845 18.0049 39.5512 18.0049C38.6658 18.0049 37.8605 18.2076 37.1352 18.6129C36.4098 19.0183 35.8392 19.5729 35.4232 20.2769C35.0178 20.9809 34.8152 21.7703 34.8152 22.6449C34.8152 23.5196 35.0178 24.3089 35.4232 25.0129C35.8392 25.7169 36.4098 26.2716 37.1352 26.6769C37.8605 27.0823 38.6658 27.2849 39.5512 27.2849C40.8952 27.2849 41.9992 26.8369 42.8632 25.9409L43.6152 26.6929C43.1245 27.2263 42.5218 27.6369 41.8072 27.9249C41.1032 28.2023 40.3352 28.3409 39.5032 28.3409ZM50.1872 19.7649C51.2432 19.7649 52.0805 20.0743 52.6992 20.6929C53.3285 21.3009 53.6432 22.1916 53.6432 23.3649V28.2449H52.5072V23.4769C52.5072 22.6023 52.2885 21.9356 51.8512 21.4769C51.4138 21.0183 50.7898 20.7889 49.9792 20.7889C49.0725 20.7889 48.3525 21.0609 47.8192 21.6049C47.2965 22.1383 47.0352 22.8796 47.0352 23.8289V28.2449H45.8992V16.3729H47.0352V21.3009C47.3445 20.8103 47.7712 20.4316 48.3152 20.1649C48.8592 19.8983 49.4832 19.7649 50.1872 19.7649ZM59.6713 19.7649C60.77 19.7649 61.6126 20.0423 62.1993 20.5969C62.786 21.1409 63.0793 21.9516 63.0793 23.0289V28.2449H61.9913V26.9329C61.7353 27.3703 61.3566 27.7116 60.8553 27.9569C60.3646 28.2023 59.778 28.3249 59.0953 28.3249C58.1566 28.3249 57.41 28.1009 56.8553 27.6529C56.3006 27.2049 56.0233 26.6129 56.0233 25.8769C56.0233 25.1623 56.2793 24.5863 56.7913 24.1489C57.314 23.7116 58.1406 23.4929 59.2713 23.4929H61.9433V22.9809C61.9433 22.2556 61.7406 21.7063 61.3353 21.3329C60.93 20.9489 60.338 20.7569 59.5593 20.7569C59.026 20.7569 58.514 20.8476 58.0233 21.0289C57.5326 21.1996 57.1113 21.4396 56.7593 21.7489L56.2473 20.9009C56.674 20.5383 57.186 20.2609 57.7833 20.0689C58.3806 19.8663 59.01 19.7649 59.6713 19.7649ZM59.2713 27.4289C59.9113 27.4289 60.4606 27.2849 60.9193 26.9969C61.378 26.6983 61.7193 26.2716 61.9433 25.7169V24.3409H59.3033C57.8633 24.3409 57.1433 24.8423 57.1433 25.8449C57.1433 26.3356 57.33 26.7249 57.7033 27.0129C58.0766 27.2903 58.5993 27.4289 59.2713 27.4289ZM66.1648 16.3729H67.3008V28.2449H66.1648V16.3729ZM70.4617 16.3729H71.5977V28.2449H70.4617V16.3729ZM82.0865 24.3889H75.0465C75.1105 25.2636 75.4465 25.9729 76.0545 26.5169C76.6625 27.0503 77.4305 27.3169 78.3585 27.3169C78.8812 27.3169 79.3612 27.2263 79.7985 27.0449C80.2359 26.8529 80.6145 26.5756 80.9345 26.2129L81.5745 26.9489C81.2012 27.3969 80.7319 27.7383 80.1665 27.9729C79.6119 28.2076 78.9985 28.3249 78.3265 28.3249C77.4625 28.3249 76.6945 28.1436 76.0225 27.7809C75.3612 27.4076 74.8439 26.8956 74.4705 26.2449C74.0972 25.5943 73.9105 24.8583 73.9105 24.0369C73.9105 23.2156 74.0865 22.4796 74.4385 21.8289C74.8012 21.1783 75.2919 20.6716 75.9105 20.3089C76.5399 19.9463 77.2439 19.7649 78.0225 19.7649C78.8012 19.7649 79.4999 19.9463 80.1185 20.3089C80.7372 20.6716 81.2225 21.1783 81.5745 21.8289C81.9265 22.4689 82.1025 23.2049 82.1025 24.0369L82.0865 24.3889ZM78.0225 20.7409C77.2119 20.7409 76.5292 21.0023 75.9745 21.5249C75.4305 22.0369 75.1212 22.7089 75.0465 23.5409H81.0145C80.9399 22.7089 80.6252 22.0369 80.0705 21.5249C79.5265 21.0023 78.8439 20.7409 78.0225 20.7409ZM88.7028 19.7649C89.7588 19.7649 90.5961 20.0743 91.2148 20.6929C91.8441 21.3009 92.1588 22.1916 92.1588 23.3649V28.2449H91.0228V23.4769C91.0228 22.6023 90.8041 21.9356 90.3668 21.4769C89.9295 21.0183 89.3055 20.7889 88.4948 20.7889C87.5881 20.7889 86.8681 21.0609 86.3348 21.6049C85.8121 22.1383 85.5508 22.8796 85.5508 23.8289V28.2449H84.4148V19.8289H85.5028V21.3809C85.8121 20.8689 86.2388 20.4743 86.7828 20.1969C87.3375 19.9089 87.9775 19.7649 88.7028 19.7649ZM103.066 19.8289V27.2209C103.066 28.6503 102.714 29.7063 102.01 30.3889C101.317 31.0823 100.266 31.4289 98.8582 31.4289C98.0795 31.4289 97.3382 31.3116 96.6342 31.0769C95.9408 30.8529 95.3755 30.5383 94.9382 30.1329L95.5142 29.2689C95.9195 29.6316 96.4102 29.9143 96.9862 30.1169C97.5728 30.3196 98.1862 30.4209 98.8262 30.4209C99.8928 30.4209 100.677 30.1703 101.178 29.6689C101.68 29.1783 101.93 28.4103 101.93 27.3649V26.2929C101.578 26.8263 101.114 27.2316 100.538 27.5089C99.9728 27.7863 99.3435 27.9249 98.6502 27.9249C97.8608 27.9249 97.1408 27.7543 96.4902 27.4129C95.8502 27.0609 95.3435 26.5756 94.9702 25.9569C94.6075 25.3276 94.4262 24.6183 94.4262 23.8289C94.4262 23.0396 94.6075 22.3356 94.9702 21.7169C95.3435 21.0983 95.8502 20.6183 96.4902 20.2769C97.1302 19.9356 97.8502 19.7649 98.6502 19.7649C99.3648 19.7649 100.01 19.9089 100.586 20.1969C101.162 20.4849 101.626 20.9009 101.978 21.4449V19.8289H103.066ZM98.7622 26.9169C99.3702 26.9169 99.9195 26.7889 100.41 26.5329C100.901 26.2663 101.28 25.8983 101.546 25.4289C101.824 24.9596 101.962 24.4263 101.962 23.8289C101.962 23.2316 101.824 22.7036 101.546 22.2449C101.28 21.7756 100.901 21.4129 100.41 21.1569C99.9302 20.8903 99.3808 20.7569 98.7622 20.7569C98.1542 20.7569 97.6048 20.8849 97.1142 21.1409C96.6342 21.3969 96.2555 21.7596 95.9782 22.2289C95.7115 22.6983 95.5782 23.2316 95.5782 23.8289C95.5782 24.4263 95.7115 24.9596 95.9782 25.4289C96.2555 25.8983 96.6342 26.2663 97.1142 26.5329C97.6048 26.7889 98.1542 26.9169 98.7622 26.9169ZM113.571 24.3889H106.531C106.595 25.2636 106.931 25.9729 107.539 26.5169C108.147 27.0503 108.915 27.3169 109.843 27.3169C110.366 27.3169 110.846 27.2263 111.283 27.0449C111.72 26.8529 112.099 26.5756 112.419 26.2129L113.059 26.9489C112.686 27.3969 112.216 27.7383 111.651 27.9729C111.096 28.2076 110.483 28.3249 109.811 28.3249C108.947 28.3249 108.179 28.1436 107.507 27.7809C106.846 27.4076 106.328 26.8956 105.955 26.2449C105.582 25.5943 105.395 24.8583 105.395 24.0369C105.395 23.2156 105.571 22.4796 105.923 21.8289C106.286 21.1783 106.776 20.6716 107.395 20.3089C108.024 19.9463 108.728 19.7649 109.507 19.7649C110.286 19.7649 110.984 19.9463 111.603 20.3089C112.222 20.6716 112.707 21.1783 113.059 21.8289C113.411 22.4689 113.587 23.2049 113.587 24.0369L113.571 24.3889ZM109.507 20.7409C108.696 20.7409 108.014 21.0023 107.459 21.5249C106.915 22.0369 106.606 22.7089 106.531 23.5409H112.499C112.424 22.7089 112.11 22.0369 111.555 21.5249C111.011 21.0023 110.328 20.7409 109.507 20.7409ZM123.527 28.3249C122.716 28.3249 121.985 28.1436 121.335 27.7809C120.684 27.4076 120.172 26.8956 119.799 26.2449C119.425 25.5943 119.239 24.8583 119.239 24.0369C119.239 23.2156 119.425 22.4796 119.799 21.8289C120.172 21.1783 120.684 20.6716 121.335 20.3089C121.985 19.9463 122.716 19.7649 123.527 19.7649C124.337 19.7649 125.068 19.9463 125.719 20.3089C126.369 20.6716 126.876 21.1783 127.239 21.8289C127.612 22.4796 127.799 23.2156 127.799 24.0369C127.799 24.8583 127.612 25.5943 127.239 26.2449C126.876 26.8956 126.369 27.4076 125.719 27.7809C125.068 28.1436 124.337 28.3249 123.527 28.3249ZM123.527 27.3169C124.124 27.3169 124.657 27.1836 125.127 26.9169C125.607 26.6396 125.98 26.2503 126.247 25.7489C126.513 25.2476 126.647 24.6769 126.647 24.0369C126.647 23.3969 126.513 22.8263 126.247 22.3249C125.98 21.8236 125.607 21.4396 125.127 21.1729C124.657 20.8956 124.124 20.7569 123.527 20.7569C122.929 20.7569 122.391 20.8956 121.911 21.1729C121.441 21.4396 121.068 21.8236 120.791 22.3249C120.524 22.8263 120.391 23.3969 120.391 24.0369C120.391 24.6769 120.524 25.2476 120.791 25.7489C121.068 26.2503 121.441 26.6396 121.911 26.9169C122.391 27.1836 122.929 27.3169 123.527 27.3169ZM132.902 17.2529C132.411 17.2529 132.038 17.3863 131.782 17.6529C131.537 17.9196 131.414 18.3143 131.414 18.8369V19.8289H134.006V20.7889H131.446V28.2449H130.31V20.7889H128.806V19.8289H130.31V18.7889C130.31 18.0209 130.529 17.4129 130.966 16.9649C131.414 16.5169 132.043 16.2929 132.854 16.2929C133.174 16.2929 133.483 16.3409 133.782 16.4369C134.081 16.5223 134.331 16.6503 134.534 16.8209L134.15 17.6689C133.819 17.3916 133.403 17.2529 132.902 17.2529ZM147.407 16.3729V28.2449H146.319V26.5809C145.978 27.1463 145.525 27.5783 144.959 27.8769C144.405 28.1756 143.775 28.3249 143.071 28.3249C142.282 28.3249 141.567 28.1436 140.927 27.7809C140.287 27.4183 139.786 26.9116 139.423 26.2609C139.061 25.6103 138.879 24.8689 138.879 24.0369C138.879 23.2049 139.061 22.4636 139.423 21.8129C139.786 21.1623 140.287 20.6609 140.927 20.3089C141.567 19.9463 142.282 19.7649 143.071 19.7649C143.754 19.7649 144.367 19.9089 144.911 20.1969C145.466 20.4743 145.919 20.8849 146.271 21.4289V16.3729H147.407ZM143.167 27.3169C143.754 27.3169 144.282 27.1836 144.751 26.9169C145.231 26.6396 145.605 26.2503 145.871 25.7489C146.149 25.2476 146.287 24.6769 146.287 24.0369C146.287 23.3969 146.149 22.8263 145.871 22.3249C145.605 21.8236 145.231 21.4396 144.751 21.1729C144.282 20.8956 143.754 20.7569 143.167 20.7569C142.57 20.7569 142.031 20.8956 141.551 21.1729C141.082 21.4396 140.709 21.8236 140.431 22.3249C140.165 22.8263 140.031 23.3969 140.031 24.0369C140.031 24.6769 140.165 25.2476 140.431 25.7489C140.709 26.2503 141.082 26.6396 141.551 26.9169C142.031 27.1836 142.57 27.3169 143.167 27.3169ZM153.515 19.7649C154.614 19.7649 155.456 20.0423 156.043 20.5969C156.63 21.1409 156.923 21.9516 156.923 23.0289V28.2449H155.835V26.9329C155.579 27.3703 155.2 27.7116 154.699 27.9569C154.208 28.2023 153.622 28.3249 152.939 28.3249C152 28.3249 151.254 28.1009 150.699 27.6529C150.144 27.2049 149.867 26.6129 149.867 25.8769C149.867 25.1623 150.123 24.5863 150.635 24.1489C151.158 23.7116 151.984 23.4929 153.115 23.4929H155.787V22.9809C155.787 22.2556 155.584 21.7063 155.179 21.3329C154.774 20.9489 154.182 20.7569 153.403 20.7569C152.87 20.7569 152.358 20.8476 151.867 21.0289C151.376 21.1996 150.955 21.4396 150.603 21.7489L150.091 20.9009C150.518 20.5383 151.03 20.2609 151.627 20.0689C152.224 19.8663 152.854 19.7649 153.515 19.7649ZM153.115 27.4289C153.755 27.4289 154.304 27.2849 154.763 26.9969C155.222 26.6983 155.563 26.2716 155.787 25.7169V24.3409H153.147C151.707 24.3409 150.987 24.8423 150.987 25.8449C150.987 26.3356 151.174 26.7249 151.547 27.0129C151.92 27.2903 152.443 27.4289 153.115 27.4289ZM166.924 19.8289L162.716 29.2529C162.375 30.0423 161.98 30.6023 161.532 30.9329C161.084 31.2636 160.546 31.4289 159.916 31.4289C159.511 31.4289 159.132 31.3649 158.78 31.2369C158.428 31.1089 158.124 30.9169 157.868 30.6609L158.396 29.8129C158.823 30.2396 159.335 30.4529 159.932 30.4529C160.316 30.4529 160.642 30.3463 160.908 30.1329C161.186 29.9196 161.442 29.5569 161.676 29.0449L162.044 28.2289L158.284 19.8289H159.468L162.636 26.9809L165.804 19.8289H166.924Z" fill="#2F80ED"/>
</svg>
