<svg width="64" height="64" viewBox="0 0 64 64" fill="none" xmlns="http://www.w3.org/2000/svg">
<g clip-path="url(#clip0)">
<path d="M25.2037 53.3458C25.9415 53.3458 26.6584 53.4359 27.346 53.6017V50.9946C27.346 47.8718 26.0705 44.5786 24.0964 42.6044L22.0333 40.5412V37.3208H8.69166V40.5412L6.62853 42.6044C4.65441 44.5786 3.37891 47.8718 3.37891 50.9946V53.6021C4.06703 53.4361 4.78441 53.3458 5.52278 53.3458H25.2037Z" fill="#2F80ED"/>
<path d="M27.8459 17.5121V17.271C27.8459 13.309 24.6226 10.0857 20.6606 10.0857C19.4235 10.0857 18.2598 10.4021 17.2424 10.9551V7.20175H20.27V3.46675H17.2424V0H13.5074V3.46675H10.4795V7.20175H13.5073V10.9739C12.4819 10.4093 11.3058 10.0857 10.0548 10.0857C6.09288 10.0857 2.86963 13.309 2.86963 17.271V17.5121H27.8459Z" fill="#2F80ED"/>
<path d="M58.4771 53.3458C59.3346 53.3458 60.1638 53.4669 60.9515 53.6887V50.9946C60.9515 47.8718 59.676 44.5786 57.7018 42.6044L55.6387 40.5412V37.5708H42.991V40.5412L40.9278 42.6044C38.9537 44.5786 37.6782 47.8718 37.6782 50.9946V53.7222C38.5006 53.4787 39.37 53.3458 40.2703 53.3458H58.4771Z" fill="#2F80ED"/>
<path d="M26.108 33.5857V29.8887H22.0333V27.1203L26.8606 21.2471H3.85547L8.69172 27.1213V29.8887H4.61847V33.5857H26.108Z" fill="#2F80ED"/>
<path d="M58.1987 33.8357V30.1387H55.6387V26.3698C57.031 24.8468 57.8817 22.8209 57.8817 20.5998C57.8817 15.8797 54.0417 12.0396 49.3216 12.0396C44.6015 12.0396 40.7613 15.8797 40.7613 20.5998C40.7613 22.814 41.6065 24.8345 42.991 26.3558V30.1387H40.4443V33.8357H58.1987Z" fill="#2F80ED"/>
<path d="M25.2038 56.9709H5.52275C2.4775 56.9709 0 59.4484 0 62.4937V64.0001H30.7265V62.4937C30.7265 59.4484 28.249 56.9709 25.2038 56.9709Z" fill="#2F80ED"/>
<path d="M58.4772 56.9709H40.2703C37.2251 56.9709 34.7476 59.4485 34.7476 62.4938V64.0001H63.9999V62.4937C63.9999 59.4484 61.5224 56.9709 58.4772 56.9709Z" fill="#2F80ED"/>
</g>
<defs>
<clipPath id="clip0">
<rect width="64" height="64" fill="white"/>
</clipPath>
</defs>
</svg>
