<svg width="270" height="69" viewBox="0 0 270 69" fill="none" xmlns="http://www.w3.org/2000/svg">
<rect width="270" height="69" fill="#2F80ED"/>
<path d="M57.6363 41.144C56.3763 41.144 55.2363 40.868 54.2163 40.316C53.2083 39.752 52.4163 38.984 51.8403 38.012C51.2643 37.028 50.9763 35.924 50.9763 34.7C50.9763 33.476 51.2643 32.378 51.8403 31.406C52.4163 30.422 53.2143 29.654 54.2343 29.102C55.2543 28.538 56.3943 28.256 57.6543 28.256C58.6383 28.256 59.5383 28.424 60.3543 28.76C61.1703 29.084 61.8663 29.57 62.4423 30.218L61.2723 31.352C60.3243 30.356 59.1423 29.858 57.7263 29.858C56.7903 29.858 55.9443 30.068 55.1883 30.488C54.4323 30.908 53.8383 31.49 53.4063 32.234C52.9863 32.966 52.7763 33.788 52.7763 34.7C52.7763 35.612 52.9863 36.44 53.4063 37.184C53.8383 37.916 54.4323 38.492 55.1883 38.912C55.9443 39.332 56.7903 39.542 57.7263 39.542C59.1303 39.542 60.3123 39.038 61.2723 38.03L62.4423 39.164C61.8663 39.812 61.1643 40.304 60.3363 40.64C59.5203 40.976 58.6203 41.144 57.6363 41.144ZM68.4398 41.108C67.4918 41.108 66.6398 40.898 65.8838 40.478C65.1278 40.058 64.5338 39.482 64.1018 38.75C63.6818 38.006 63.4718 37.166 63.4718 36.23C63.4718 35.294 63.6818 34.46 64.1018 33.728C64.5338 32.984 65.1278 32.408 65.8838 32C66.6398 31.58 67.4918 31.37 68.4398 31.37C69.3878 31.37 70.2338 31.58 70.9778 32C71.7338 32.408 72.3218 32.984 72.7418 33.728C73.1738 34.46 73.3898 35.294 73.3898 36.23C73.3898 37.166 73.1738 38.006 72.7418 38.75C72.3218 39.482 71.7338 40.058 70.9778 40.478C70.2338 40.898 69.3878 41.108 68.4398 41.108ZM68.4398 39.596C69.0518 39.596 69.5978 39.458 70.0778 39.182C70.5698 38.894 70.9538 38.498 71.2298 37.994C71.5058 37.478 71.6438 36.89 71.6438 36.23C71.6438 35.57 71.5058 34.988 71.2298 34.484C70.9538 33.968 70.5698 33.572 70.0778 33.296C69.5978 33.02 69.0518 32.882 68.4398 32.882C67.8278 32.882 67.2758 33.02 66.7838 33.296C66.3038 33.572 65.9198 33.968 65.6318 34.484C65.3558 34.988 65.2178 35.57 65.2178 36.23C65.2178 36.89 65.3558 37.478 65.6318 37.994C65.9198 38.498 66.3038 38.894 66.7838 39.182C67.2758 39.458 67.8278 39.596 68.4398 39.596ZM80.8736 31.37C82.0856 31.37 83.0456 31.724 83.7536 32.432C84.4736 33.128 84.8336 34.154 84.8336 35.51V41H83.1056V35.708C83.1056 34.784 82.8836 34.088 82.4396 33.62C81.9956 33.152 81.3596 32.918 80.5316 32.918C79.5956 32.918 78.8576 33.194 78.3176 33.746C77.7776 34.286 77.5076 35.066 77.5076 36.086V41H75.7796V31.46H77.4356V32.9C77.7836 32.408 78.2516 32.03 78.8396 31.766C79.4396 31.502 80.1176 31.37 80.8736 31.37ZM93.1256 31.37C94.3376 31.37 95.2976 31.724 96.0056 32.432C96.7256 33.128 97.0856 34.154 97.0856 35.51V41H95.3576V35.708C95.3576 34.784 95.1356 34.088 94.6916 33.62C94.2476 33.152 93.6116 32.918 92.7836 32.918C91.8476 32.918 91.1096 33.194 90.5696 33.746C90.0296 34.286 89.7596 35.066 89.7596 36.086V41H88.0316V31.46H89.6876V32.9C90.0356 32.408 90.5036 32.03 91.0916 31.766C91.6916 31.502 92.3696 31.37 93.1256 31.37ZM108.958 36.284C108.958 36.416 108.946 36.59 108.922 36.806H101.182C101.29 37.646 101.656 38.324 102.28 38.84C102.916 39.344 103.702 39.596 104.638 39.596C105.778 39.596 106.696 39.212 107.392 38.444L108.346 39.56C107.914 40.064 107.374 40.448 106.726 40.712C106.09 40.976 105.376 41.108 104.584 41.108C103.576 41.108 102.682 40.904 101.902 40.496C101.122 40.076 100.516 39.494 100.084 38.75C99.6642 38.006 99.4542 37.166 99.4542 36.23C99.4542 35.306 99.6582 34.472 100.066 33.728C100.486 32.984 101.056 32.408 101.776 32C102.508 31.58 103.33 31.37 104.242 31.37C105.154 31.37 105.964 31.58 106.672 32C107.392 32.408 107.95 32.984 108.346 33.728C108.754 34.472 108.958 35.324 108.958 36.284ZM104.242 32.828C103.414 32.828 102.718 33.08 102.154 33.584C101.602 34.088 101.278 34.748 101.182 35.564H107.302C107.206 34.76 106.876 34.106 106.312 33.602C105.76 33.086 105.07 32.828 104.242 32.828ZM115.516 41.108C114.544 41.108 113.674 40.898 112.906 40.478C112.15 40.058 111.556 39.482 111.124 38.75C110.692 38.006 110.476 37.166 110.476 36.23C110.476 35.294 110.692 34.46 111.124 33.728C111.556 32.984 112.15 32.408 112.906 32C113.674 31.58 114.544 31.37 115.516 31.37C116.38 31.37 117.148 31.544 117.82 31.892C118.504 32.24 119.032 32.744 119.404 33.404L118.09 34.25C117.79 33.794 117.418 33.452 116.974 33.224C116.53 32.996 116.038 32.882 115.498 32.882C114.874 32.882 114.31 33.02 113.806 33.296C113.314 33.572 112.924 33.968 112.636 34.484C112.36 34.988 112.222 35.57 112.222 36.23C112.222 36.902 112.36 37.496 112.636 38.012C112.924 38.516 113.314 38.906 113.806 39.182C114.31 39.458 114.874 39.596 115.498 39.596C116.038 39.596 116.53 39.482 116.974 39.254C117.418 39.026 117.79 38.684 118.09 38.228L119.404 39.056C119.032 39.716 118.504 40.226 117.82 40.586C117.148 40.934 116.38 41.108 115.516 41.108ZM127.128 40.442C126.876 40.658 126.564 40.826 126.192 40.946C125.82 41.054 125.436 41.108 125.04 41.108C124.08 41.108 123.336 40.85 122.808 40.334C122.28 39.818 122.016 39.08 122.016 38.12V32.882H120.396V31.46H122.016V29.372H123.744V31.46H126.48V32.882H123.744V38.048C123.744 38.564 123.87 38.96 124.122 39.236C124.386 39.512 124.758 39.65 125.238 39.65C125.766 39.65 126.216 39.5 126.588 39.2L127.128 40.442ZM139.415 40.442C139.163 40.658 138.851 40.826 138.479 40.946C138.107 41.054 137.723 41.108 137.327 41.108C136.367 41.108 135.623 40.85 135.095 40.334C134.567 39.818 134.303 39.08 134.303 38.12V32.882H132.683V31.46H134.303V29.372H136.031V31.46H138.767V32.882H136.031V38.048C136.031 38.564 136.157 38.96 136.409 39.236C136.673 39.512 137.045 39.65 137.525 39.65C138.053 39.65 138.503 39.5 138.875 39.2L139.415 40.442ZM145.274 41.108C144.326 41.108 143.474 40.898 142.718 40.478C141.962 40.058 141.368 39.482 140.936 38.75C140.516 38.006 140.306 37.166 140.306 36.23C140.306 35.294 140.516 34.46 140.936 33.728C141.368 32.984 141.962 32.408 142.718 32C143.474 31.58 144.326 31.37 145.274 31.37C146.222 31.37 147.068 31.58 147.812 32C148.568 32.408 149.156 32.984 149.576 33.728C150.008 34.46 150.224 35.294 150.224 36.23C150.224 37.166 150.008 38.006 149.576 38.75C149.156 39.482 148.568 40.058 147.812 40.478C147.068 40.898 146.222 41.108 145.274 41.108ZM145.274 39.596C145.886 39.596 146.432 39.458 146.912 39.182C147.404 38.894 147.788 38.498 148.064 37.994C148.34 37.478 148.478 36.89 148.478 36.23C148.478 35.57 148.34 34.988 148.064 34.484C147.788 33.968 147.404 33.572 146.912 33.296C146.432 33.02 145.886 32.882 145.274 32.882C144.662 32.882 144.11 33.02 143.618 33.296C143.138 33.572 142.754 33.968 142.466 34.484C142.19 34.988 142.052 35.57 142.052 36.23C142.052 36.89 142.19 37.478 142.466 37.994C142.754 38.498 143.138 38.894 143.618 39.182C144.11 39.458 144.662 39.596 145.274 39.596ZM162.524 36.644V41H160.742V36.608L155.738 28.4H157.664L161.696 35.042L165.746 28.4H167.528L162.524 36.644ZM171.715 29.966H167.395V28.4H177.817V29.966H173.497V41H171.715V29.966Z" fill="white"/>
<g clip-path="url(#clip0)">
<path d="M201.694 32.9215L196.392 30.0204C196.087 29.8536 195.727 29.8598 195.428 30.0369C195.129 30.2141 194.951 30.5272 194.951 30.8748V36.6272C194.951 36.9731 195.128 37.2856 195.425 37.4631C195.58 37.5557 195.752 37.6022 195.924 37.6022C196.082 37.6022 196.24 37.5632 196.386 37.4849L201.688 34.6337C202.003 34.4644 202.199 34.1371 202.201 33.7795C202.202 33.4219 202.008 33.0933 201.694 32.9215ZM196.357 35.9036V31.6043L200.32 33.7726L196.357 35.9036Z" fill="white"/>
<path d="M209.823 29.1966L209.822 29.1856C209.802 28.9924 209.6 27.2742 208.764 26.4002C207.799 25.3723 206.704 25.2474 206.178 25.1875C206.134 25.1826 206.094 25.178 206.059 25.1732L206.017 25.1688C202.844 24.9381 198.052 24.9066 198.004 24.9064L198 24.9062L197.996 24.9064C197.948 24.9066 193.156 24.9381 189.955 25.1688L189.912 25.1732C189.878 25.1778 189.841 25.182 189.8 25.1868C189.28 25.2468 188.197 25.3719 187.228 26.437C186.433 27.3016 186.203 28.9831 186.179 29.172L186.177 29.1966C186.169 29.277 186 31.1906 186 33.1117V34.9076C186 36.8287 186.169 38.7424 186.177 38.8229L186.178 38.835C186.198 39.0251 186.4 40.7119 187.232 41.5862C188.14 42.5797 189.287 42.7112 189.905 42.7819C190.002 42.793 190.087 42.8025 190.144 42.8126L190.199 42.8203C192.031 42.9946 197.775 43.0805 198.019 43.084L198.026 43.0842L198.033 43.084C198.081 43.0838 202.873 43.0523 206.046 42.8216L206.088 42.8172C206.128 42.8119 206.173 42.8071 206.222 42.802C206.74 42.7471 207.817 42.633 208.771 41.5823C209.567 40.7175 209.797 39.0361 209.821 38.8473L209.823 38.8228C209.831 38.7422 210 36.8287 210 34.9076V33.1117C210 31.1906 209.831 29.2771 209.823 29.1966ZM208.593 34.9076C208.593 36.6857 208.438 38.517 208.424 38.6851C208.364 39.1481 208.121 40.212 207.734 40.6333C207.136 41.2908 206.522 41.356 206.074 41.4034C206.02 41.4091 205.969 41.4146 205.924 41.4203C202.855 41.6422 198.244 41.6763 198.032 41.6775C197.794 41.6741 192.134 41.5875 190.358 41.4225C190.267 41.4076 190.169 41.3963 190.065 41.3846C189.539 41.3243 188.82 41.2419 188.266 40.6333L188.253 40.6194C187.872 40.2226 187.637 39.2278 187.577 38.6906C187.566 38.5635 187.406 36.7106 187.406 34.9076V33.1117C187.406 31.3356 187.561 29.5064 187.576 29.3348C187.648 28.7894 187.895 27.79 188.266 27.386C188.882 26.7085 189.532 26.6335 189.961 26.5839C190.002 26.5791 190.041 26.5747 190.076 26.5701C193.189 26.3471 197.833 26.314 198 26.3127C198.167 26.3138 202.809 26.3471 205.895 26.5701C205.933 26.5749 205.974 26.5796 206.018 26.5848C206.46 26.6351 207.128 26.7113 207.741 27.365L207.747 27.371C208.127 27.7678 208.363 28.78 208.423 29.328C208.434 29.448 208.593 31.3048 208.593 33.1117V34.9076Z" fill="white"/>
</g>
<defs>
<clipPath id="clip0">
<rect width="24" height="23.9999" fill="white" transform="translate(186 22)"/>
</clipPath>
</defs>
</svg>
