<svg width="270" height="69" viewBox="0 0 270 69" fill="none" xmlns="http://www.w3.org/2000/svg">
<rect width="270" height="69" fill="#2F80ED"/>
<path d="M39.6178 41.144C38.3578 41.144 37.2178 40.868 36.1978 40.316C35.1898 39.752 34.3978 38.984 33.8218 38.012C33.2458 37.028 32.9578 35.924 32.9578 34.7C32.9578 33.476 33.2458 32.378 33.8218 31.406C34.3978 30.422 35.1958 29.654 36.2158 29.102C37.2358 28.538 38.3758 28.256 39.6358 28.256C40.6198 28.256 41.5198 28.424 42.3358 28.76C43.1518 29.084 43.8478 29.57 44.4238 30.218L43.2538 31.352C42.3058 30.356 41.1238 29.858 39.7078 29.858C38.7718 29.858 37.9258 30.068 37.1698 30.488C36.4138 30.908 35.8198 31.49 35.3878 32.234C34.9678 32.966 34.7578 33.788 34.7578 34.7C34.7578 35.612 34.9678 36.44 35.3878 37.184C35.8198 37.916 36.4138 38.492 37.1698 38.912C37.9258 39.332 38.7718 39.542 39.7078 39.542C41.1118 39.542 42.2938 39.038 43.2538 38.03L44.4238 39.164C43.8478 39.812 43.1458 40.304 42.3178 40.64C41.5018 40.976 40.6018 41.144 39.6178 41.144ZM50.4213 41.108C49.4733 41.108 48.6213 40.898 47.8653 40.478C47.1093 40.058 46.5153 39.482 46.0833 38.75C45.6633 38.006 45.4533 37.166 45.4533 36.23C45.4533 35.294 45.6633 34.46 46.0833 33.728C46.5153 32.984 47.1093 32.408 47.8653 32C48.6213 31.58 49.4733 31.37 50.4213 31.37C51.3693 31.37 52.2153 31.58 52.9593 32C53.7153 32.408 54.3033 32.984 54.7233 33.728C55.1553 34.46 55.3713 35.294 55.3713 36.23C55.3713 37.166 55.1553 38.006 54.7233 38.75C54.3033 39.482 53.7153 40.058 52.9593 40.478C52.2153 40.898 51.3693 41.108 50.4213 41.108ZM50.4213 39.596C51.0333 39.596 51.5793 39.458 52.0593 39.182C52.5513 38.894 52.9353 38.498 53.2113 37.994C53.4873 37.478 53.6253 36.89 53.6253 36.23C53.6253 35.57 53.4873 34.988 53.2113 34.484C52.9353 33.968 52.5513 33.572 52.0593 33.296C51.5793 33.02 51.0333 32.882 50.4213 32.882C49.8093 32.882 49.2573 33.02 48.7653 33.296C48.2853 33.572 47.9013 33.968 47.6133 34.484C47.3373 34.988 47.1993 35.57 47.1993 36.23C47.1993 36.89 47.3373 37.478 47.6133 37.994C47.9013 38.498 48.2853 38.894 48.7653 39.182C49.2573 39.458 49.8093 39.596 50.4213 39.596ZM62.855 31.37C64.067 31.37 65.027 31.724 65.735 32.432C66.455 33.128 66.815 34.154 66.815 35.51V41H65.087V35.708C65.087 34.784 64.865 34.088 64.421 33.62C63.977 33.152 63.341 32.918 62.513 32.918C61.577 32.918 60.839 33.194 60.299 33.746C59.759 34.286 59.489 35.066 59.489 36.086V41H57.761V31.46H59.417V32.9C59.765 32.408 60.233 32.03 60.821 31.766C61.421 31.502 62.099 31.37 62.855 31.37ZM75.107 31.37C76.319 31.37 77.279 31.724 77.987 32.432C78.707 33.128 79.067 34.154 79.067 35.51V41H77.339V35.708C77.339 34.784 77.117 34.088 76.673 33.62C76.229 33.152 75.593 32.918 74.765 32.918C73.829 32.918 73.091 33.194 72.551 33.746C72.011 34.286 71.741 35.066 71.741 36.086V41H70.013V31.46H71.669V32.9C72.017 32.408 72.485 32.03 73.073 31.766C73.673 31.502 74.351 31.37 75.107 31.37ZM90.9397 36.284C90.9397 36.416 90.9277 36.59 90.9037 36.806H83.1637C83.2717 37.646 83.6377 38.324 84.2617 38.84C84.8977 39.344 85.6837 39.596 86.6197 39.596C87.7597 39.596 88.6777 39.212 89.3737 38.444L90.3277 39.56C89.8957 40.064 89.3557 40.448 88.7077 40.712C88.0717 40.976 87.3577 41.108 86.5657 41.108C85.5577 41.108 84.6637 40.904 83.8837 40.496C83.1037 40.076 82.4977 39.494 82.0657 38.75C81.6457 38.006 81.4357 37.166 81.4357 36.23C81.4357 35.306 81.6397 34.472 82.0477 33.728C82.4677 32.984 83.0377 32.408 83.7577 32C84.4897 31.58 85.3117 31.37 86.2237 31.37C87.1357 31.37 87.9457 31.58 88.6537 32C89.3737 32.408 89.9317 32.984 90.3277 33.728C90.7357 34.472 90.9397 35.324 90.9397 36.284ZM86.2237 32.828C85.3957 32.828 84.6997 33.08 84.1357 33.584C83.5837 34.088 83.2597 34.748 83.1637 35.564H89.2837C89.1877 34.76 88.8577 34.106 88.2937 33.602C87.7417 33.086 87.0517 32.828 86.2237 32.828ZM97.4972 41.108C96.5252 41.108 95.6552 40.898 94.8872 40.478C94.1312 40.058 93.5372 39.482 93.1052 38.75C92.6732 38.006 92.4572 37.166 92.4572 36.23C92.4572 35.294 92.6732 34.46 93.1052 33.728C93.5372 32.984 94.1312 32.408 94.8872 32C95.6552 31.58 96.5252 31.37 97.4972 31.37C98.3612 31.37 99.1292 31.544 99.8012 31.892C100.485 32.24 101.013 32.744 101.385 33.404L100.071 34.25C99.7712 33.794 99.3992 33.452 98.9552 33.224C98.5112 32.996 98.0192 32.882 97.4792 32.882C96.8552 32.882 96.2912 33.02 95.7872 33.296C95.2952 33.572 94.9052 33.968 94.6172 34.484C94.3412 34.988 94.2032 35.57 94.2032 36.23C94.2032 36.902 94.3412 37.496 94.6172 38.012C94.9052 38.516 95.2952 38.906 95.7872 39.182C96.2912 39.458 96.8552 39.596 97.4792 39.596C98.0192 39.596 98.5112 39.482 98.9552 39.254C99.3992 39.026 99.7712 38.684 100.071 38.228L101.385 39.056C101.013 39.716 100.485 40.226 99.8012 40.586C99.1292 40.934 98.3612 41.108 97.4972 41.108ZM109.109 40.442C108.857 40.658 108.545 40.826 108.173 40.946C107.801 41.054 107.417 41.108 107.021 41.108C106.061 41.108 105.317 40.85 104.789 40.334C104.261 39.818 103.997 39.08 103.997 38.12V32.882H102.377V31.46H103.997V29.372H105.725V31.46H108.461V32.882H105.725V38.048C105.725 38.564 105.851 38.96 106.103 39.236C106.367 39.512 106.739 39.65 107.219 39.65C107.747 39.65 108.197 39.5 108.569 39.2L109.109 40.442ZM121.397 40.442C121.145 40.658 120.833 40.826 120.461 40.946C120.089 41.054 119.705 41.108 119.309 41.108C118.349 41.108 117.605 40.85 117.077 40.334C116.549 39.818 116.285 39.08 116.285 38.12V32.882H114.665V31.46H116.285V29.372H118.013V31.46H120.749V32.882H118.013V38.048C118.013 38.564 118.139 38.96 118.391 39.236C118.655 39.512 119.027 39.65 119.507 39.65C120.035 39.65 120.485 39.5 120.857 39.2L121.397 40.442ZM127.255 41.108C126.307 41.108 125.455 40.898 124.699 40.478C123.943 40.058 123.349 39.482 122.917 38.75C122.497 38.006 122.287 37.166 122.287 36.23C122.287 35.294 122.497 34.46 122.917 33.728C123.349 32.984 123.943 32.408 124.699 32C125.455 31.58 126.307 31.37 127.255 31.37C128.203 31.37 129.049 31.58 129.793 32C130.549 32.408 131.137 32.984 131.557 33.728C131.989 34.46 132.205 35.294 132.205 36.23C132.205 37.166 131.989 38.006 131.557 38.75C131.137 39.482 130.549 40.058 129.793 40.478C129.049 40.898 128.203 41.108 127.255 41.108ZM127.255 39.596C127.867 39.596 128.413 39.458 128.893 39.182C129.385 38.894 129.769 38.498 130.045 37.994C130.321 37.478 130.459 36.89 130.459 36.23C130.459 35.57 130.321 34.988 130.045 34.484C129.769 33.968 129.385 33.572 128.893 33.296C128.413 33.02 127.867 32.882 127.255 32.882C126.643 32.882 126.091 33.02 125.599 33.296C125.119 33.572 124.735 33.968 124.447 34.484C124.171 34.988 124.033 35.57 124.033 36.23C124.033 36.89 124.171 37.478 124.447 37.994C124.735 38.498 125.119 38.894 125.599 39.182C126.091 39.458 126.643 39.596 127.255 39.596ZM149.095 39.434V41H138.565V39.776L146.485 29.966H138.691V28.4H148.861V29.624L140.977 39.434H149.095ZM157.058 41.144C155.786 41.144 154.64 40.868 153.62 40.316C152.6 39.752 151.796 38.978 151.208 37.994C150.632 37.01 150.344 35.912 150.344 34.7C150.344 33.488 150.632 32.39 151.208 31.406C151.796 30.422 152.6 29.654 153.62 29.102C154.64 28.538 155.786 28.256 157.058 28.256C158.318 28.256 159.458 28.538 160.478 29.102C161.498 29.654 162.296 30.422 162.872 31.406C163.448 32.378 163.736 33.476 163.736 34.7C163.736 35.924 163.448 37.028 162.872 38.012C162.296 38.984 161.498 39.752 160.478 40.316C159.458 40.868 158.318 41.144 157.058 41.144ZM157.058 39.542C157.982 39.542 158.81 39.332 159.542 38.912C160.286 38.492 160.868 37.916 161.288 37.184C161.72 36.44 161.936 35.612 161.936 34.7C161.936 33.788 161.72 32.966 161.288 32.234C160.868 31.49 160.286 30.908 159.542 30.488C158.81 30.068 157.982 29.858 157.058 29.858C156.134 29.858 155.294 30.068 154.538 30.488C153.794 30.908 153.206 31.49 152.774 32.234C152.354 32.966 152.144 33.788 152.144 34.7C152.144 35.612 152.354 36.44 152.774 37.184C153.206 37.916 153.794 38.492 154.538 38.912C155.294 39.332 156.134 39.542 157.058 39.542ZM172.176 41.144C170.904 41.144 169.758 40.868 168.738 40.316C167.718 39.752 166.914 38.978 166.326 37.994C165.75 37.01 165.462 35.912 165.462 34.7C165.462 33.488 165.75 32.39 166.326 31.406C166.914 30.422 167.718 29.654 168.738 29.102C169.758 28.538 170.904 28.256 172.176 28.256C173.436 28.256 174.576 28.538 175.596 29.102C176.616 29.654 177.414 30.422 177.99 31.406C178.566 32.378 178.854 33.476 178.854 34.7C178.854 35.924 178.566 37.028 177.99 38.012C177.414 38.984 176.616 39.752 175.596 40.316C174.576 40.868 173.436 41.144 172.176 41.144ZM172.176 39.542C173.1 39.542 173.928 39.332 174.66 38.912C175.404 38.492 175.986 37.916 176.406 37.184C176.838 36.44 177.054 35.612 177.054 34.7C177.054 33.788 176.838 32.966 176.406 32.234C175.986 31.49 175.404 30.908 174.66 30.488C173.928 30.068 173.1 29.858 172.176 29.858C171.252 29.858 170.412 30.068 169.656 30.488C168.912 30.908 168.324 31.49 167.892 32.234C167.472 32.966 167.262 33.788 167.262 34.7C167.262 35.612 167.472 36.44 167.892 37.184C168.324 37.916 168.912 38.492 169.656 38.912C170.412 39.332 171.252 39.542 172.176 39.542ZM193.287 41L193.269 31.82L188.715 39.47H187.887L183.333 31.874V41H181.605V28.4H183.081L188.337 37.256L193.521 28.4H194.997L195.015 41H193.287Z" fill="white"/>
<path d="M205 25H223.771C226.613 25 228.917 27.2954 228.917 30.127V44H210.147C207.304 44 205 41.7046 205 38.873V25Z" fill="white"/>
<path d="M229.522 30.5794L238 25V44L229.522 38.119V30.5794Z" fill="white"/>
</svg>
