<svg width="970" height="154" viewBox="0 0 970 154" fill="none" xmlns="http://www.w3.org/2000/svg">
<mask id="mask0" mask-type="alpha" maskUnits="userSpaceOnUse" x="0" y="0" width="970" height="154">
<rect width="970" height="154" fill="#FAFAFD"/>
</mask>
<g mask="url(#mask0)">
<g opacity="0.03">
<path d="M445.333 -38.9562C444.261 -38.9842 443.174 -38.7467 442.101 -38.607C435.274 -37.7269 428.461 -36.302 421.532 -36.9865C417.184 -37.4196 412.864 -37.713 408.501 -37.6152C396.152 -37.3078 387.846 -30.2113 386.875 -18.7422C386.208 -10.7516 384.498 -3.12424 381.033 4.20979C377.25 12.2283 372.945 19.9814 366.959 26.5751C360.334 33.8952 355.884 33.8812 348.637 29.2293C345.115 26.9662 341.65 24.5774 338.041 22.468C328.576 16.9361 319.067 16.6148 309.747 22.7614C304.34 26.3236 299.499 30.4866 295.31 35.4178C291.628 39.7484 287.381 43.604 282.409 46.6215C275.843 50.6028 269.059 51.1755 262.072 47.6971C249.433 41.4108 239.446 31.7997 228.98 22.8452C217.949 13.4018 210.803 1.09456 204.165 -11.3942C197.308 -24.2742 187.988 -34.8771 174.798 -42.0296C163.506 -48.1482 152.272 -54.2949 141.691 -61.573C135.125 -66.0992 127.674 -67.5241 119.586 -65.1772C113.498 -63.403 107.729 -61.0422 102.366 -57.8571C91.1611 -51.2076 79.4491 -45.8153 66.4615 -43.1751C61.4897 -42.1693 56.6629 -40.4789 52.4738 -37.5314C46.6468 -33.4103 43.4868 -28.2416 45.1248 -20.9913C46.2989 -15.8366 48.2992 -10.9472 50.0241 -5.97404C53.1841 3.09222 53.9233 12.2144 51.3432 21.5321C50.4445 24.8009 49.8647 28.1397 49.1254 31.4505C46.7917 41.788 48.3282 51.1616 55.3003 59.8087C60.2431 65.9554 64.8961 72.4373 67.9545 79.7713C71.3898 88.0413 67.9545 95.529 59.33 98.7839C54.5321 100.6 49.4733 101.452 44.429 101.634C31.0501 102.081 20.5412 107.375 12.4095 117.573C9.61191 121.093 6.03163 123.985 1.78458 125.913C-9.1447 130.858 -20.6828 131.543 -32.2643 129.266C-45.1359 126.751 -57.9785 124.809 -71.1401 125.578C-80.4749 126.108 -89.6647 127.24 -98.4198 130.732C-106.131 133.82 -113.929 136.683 -122.047 138.681C-127.453 140.008 -132.686 141.768 -137.527 144.548C-145.906 149.368 -150.761 157.037 -155.327 164.902C-160.488 173.801 -165.865 182.699 -174.809 188.469C-190.202 198.387 -205.843 208.04 -223.005 214.927C-231.832 218.475 -237.717 223.937 -240.138 232.934C-240.979 236.035 -241.66 239.346 -244.037 241.888C-244.037 242.824 -244.037 243.76 -244.037 244.696C-241.761 243.718 -241.327 241.497 -240.529 239.611C-239.442 237.013 -238.63 234.317 -237.717 231.663C-235.63 225.502 -232.035 220.655 -225.498 218.196C-222.686 217.134 -219.975 215.821 -217.236 214.592C-204.712 208.934 -193.159 201.628 -181.23 194.937C-173.214 190.438 -166.112 184.809 -160.937 177.293C-157.531 172.334 -154.414 167.193 -151.414 161.996C-145.065 151.03 -135.875 143.766 -123.076 140.735C-116.031 139.072 -109.074 136.977 -102.406 134.169C-83.0695 126.025 -63.0518 125.326 -42.6428 129.126C-32.5397 130.998 -22.5236 132.702 -12.0727 131.431C-0.925995 130.076 8.11893 125.913 15.2215 117.308C21.2514 110.015 29.0208 105.07 39.0369 103.869C45.6176 103.073 52.2999 102.891 58.7067 100.893C69.9403 97.4009 73.3467 88.9772 69.2736 78.4162C66.2586 70.5793 60.794 64.0415 55.8511 57.2803C51.7346 51.6505 49.024 45.6995 49.7632 38.7147C50.1256 35.2502 50.7344 31.7718 51.5896 28.3772C54.3292 17.5088 56.228 6.65446 52.4013 -4.36755C50.7054 -9.24294 49.0095 -14.1043 47.415 -19.0077C45.5161 -24.847 46.4149 -29.9319 51.4156 -34.2485C56.1121 -38.2997 61.7361 -40.2834 67.6211 -41.7083C77.7677 -44.139 87.6243 -47.1983 96.6112 -52.5347C101.235 -55.2867 106.091 -57.7034 110.903 -60.1481C122.688 -66.1131 133.791 -66.1411 144.619 -57.5218C150.46 -52.87 157.085 -49.0702 163.984 -45.8572C181.799 -37.5733 195.337 -25.3219 204.02 -7.87391C209.934 4.01421 217.37 15.1759 227.589 24.2422C235.59 31.3387 243.91 38.1279 252.622 44.4143C257.463 47.9067 262.71 50.8403 269.016 51.427C277.756 52.2372 284.395 48.3118 290.454 42.9335C296.237 37.8066 300.963 31.7299 307.036 26.8126C317.168 18.6124 326.952 17.6485 337.925 24.6054C341.157 26.6589 344.375 28.7544 347.622 30.7939C355.551 35.7811 362.755 35.0407 368.452 27.8324C379.134 14.2958 387.411 -0.274452 388.455 -17.8622C389.049 -27.7247 394.978 -33.536 405.008 -35.5616C408.501 -36.2601 412.053 -36.4976 415.488 -36.0087C424.736 -34.6676 433.795 -35.9528 442.927 -37.0564C452.03 -38.16 455.857 -33.8154 455.871 -26.5932C455.929 -12.8191 452.436 0.437996 450.16 13.8767C448.421 24.1164 445.319 33.9929 439.477 42.696C432.607 52.9078 426.504 63.4548 421.301 74.5467C415.329 87.2869 407.081 99.0074 402.761 112.488C399.312 123.273 391.035 127.463 380.135 127.603C365.828 127.785 355.739 133.945 349.55 146.322C345.767 153.894 341.824 161.396 336.417 168.059C332.243 173.2 327.735 178.061 323.082 182.825C318.531 187.491 313.53 191.332 306.746 192.562C296.252 194.462 286.265 188.72 285.279 179.752C284.772 175.128 284.003 170.504 284.38 165.81C284.67 162.276 284.032 158.839 282.989 155.459C279.452 143.962 271.465 135.747 257.188 137.452C246.592 138.709 236.3 141.405 225.907 143.584C219.5 144.925 213.905 147.859 208.904 151.882C202.875 156.744 196.975 161.745 191.51 167.221C189.843 168.897 188.133 170.616 186.858 172.571C183.944 177 181.219 181.833 184.77 186.89C188.177 191.724 193.714 191.849 199.193 191.29C199.425 191.263 199.657 191.151 199.903 191.137C204.426 190.788 208.557 188.972 212.92 187.994C226.429 184.92 235.387 190.187 237.75 203.36C239.721 214.298 244.185 224.063 250.665 233.129C256.796 241.707 261.522 251.038 266.624 260.189C274.843 274.94 272.654 288.086 260.797 300.183C256.666 304.402 253.027 309.096 249.81 314.069C244.084 322.884 240.794 332.621 237.692 342.469C235.764 348.602 234.285 354.902 230.72 360.448C223.443 371.764 212.862 379.601 201.251 386.334C194.844 390.05 187.582 391.6 180.567 393.794C175.638 395.33 173.783 397.984 173.812 402.93C173.841 408.434 175.943 413.421 178.218 418.324C180.784 423.856 183.727 429.262 185.509 435.088C186.742 439.097 187.974 443.134 187.234 447.437C185.408 457.984 178.378 464.787 169.521 470.207C160.389 475.795 150.228 478.799 139.676 480.67C124.761 483.297 110.787 488.424 97.4375 495.241C86.1458 500.996 79.5216 511.348 71.2739 520.121C64.9395 526.854 58.7067 533.713 50.3285 538.295C43.8927 541.815 37.1525 544.707 30.5283 547.836C21.8457 551.957 13.4531 556.651 4.78503 560.8C-4.82518 565.396 -14.3919 565.829 -23.0745 558.733C-27.8433 554.835 -30.9453 549.624 -33.7863 544.316C-39.1785 534.244 -46.3535 525.862 -57.1378 520.693C-61.0225 518.835 -64.7767 516.628 -68.3425 514.239C-73.4883 510.789 -76.0539 506.221 -74.7638 499.823C-72.7345 489.723 -69.4441 479.944 -67.2119 469.9C-66.3422 465.961 -64.7622 462.3 -62.646 458.892C-59.0367 453.081 -53.8475 449.728 -46.5419 449.951C-41.2078 450.119 -36.7288 452.354 -32.5252 455.176C-27.0171 458.864 -22.7411 463.865 -18.0737 468.433C-13.9136 472.484 -8.99976 475.097 -3.36118 476.326C8.69872 478.966 20.7586 478.449 32.4416 474.775C42.7911 471.534 52.7927 467.288 63.0552 463.753C81.4639 457.383 94.0601 445.202 101.815 428.159C104.584 422.068 107.338 415.963 110.541 410.068C115.063 401.714 121.804 395.917 131.283 393.165C138.053 391.195 145.039 390.553 151.997 389.77C162.288 388.611 164.854 386.627 167.318 376.918C169.42 368.634 171.797 360.392 175.334 352.597C182.523 336.756 184.118 320.691 180.016 303.76C175.914 286.842 170.811 281.52 153.185 278.447C152.591 278.349 151.982 278.321 151.388 278.209C140.154 276.268 129.153 273.725 118.963 268.431C111.512 264.561 106.381 259.183 105.816 250.857C105.381 244.585 105.381 238.242 105.845 231.97C106.656 221.171 108.294 210.415 107.714 199.547C107.367 193.176 104.743 187.756 98.9305 184.264C95.2342 182.043 91.4075 180.031 87.5374 178.103C76.0573 172.362 64.9975 165.782 52.2998 162.569C41.7329 159.901 31.7024 159.957 22.9184 167.319C20.2658 169.54 17.7726 171.943 14.9751 173.954C3.58195 182.126 -2.34651 193.023 -3.62207 206.601C-4.78168 218.978 -10.8986 227.989 -23.7847 231.691C-32.0614 234.065 -40.6425 234.778 -49.1801 235.518C-59.8919 236.454 -70.6182 237.404 -81.1272 239.765C-89.027 241.539 -95.1004 245.688 -99.6084 252.31C-106.493 262.438 -110.581 273.865 -115.944 284.677C-121.728 296.328 -128.396 307.322 -137.904 316.556C-144.137 322.605 -151.124 327.829 -157.806 333.361C-165.923 340.081 -175.055 344.956 -185.752 346.73C-195.769 348.392 -205.77 350.139 -215.801 351.619C-222.86 352.653 -229.499 351.019 -235.717 347.694C-238.457 346.227 -240.993 344.383 -244.023 343.447C-244.023 344.146 -244.023 344.844 -244.023 345.543C-241.877 346.59 -239.631 347.498 -237.587 348.714C-230.571 352.905 -222.874 354.148 -214.902 353.1C-205.437 351.857 -196.058 350.027 -186.637 348.546C-177.374 347.107 -168.88 343.922 -161.459 338.376C-156.588 334.744 -151.878 330.903 -147.138 327.117C-138.238 320.02 -130.28 312.169 -123.989 302.712C-115.944 290.656 -110.799 277.287 -104.435 264.463C-101.087 257.73 -97.579 251.094 -91.3317 246.261C-85.9975 242.14 -79.5762 240.966 -73.1259 239.849C-59.0802 237.404 -44.7446 237.195 -30.6699 234.918C-23.7702 233.8 -17.175 231.928 -11.6958 227.542C-5.08609 222.261 -3.01329 214.857 -1.95515 207.062C-1.12894 200.902 -0.0852966 194.783 3.27756 189.363C9.71336 178.983 19.6135 172.04 29.6151 165.251C33.0069 162.946 37.0365 162.457 41.0662 162.527C46.9367 162.639 52.5608 164.078 58.0254 166.061C71.0999 170.825 82.9279 178.005 95.3212 184.096C101.467 187.114 105.221 192.101 106.004 198.625C106.569 203.346 106.54 208.222 106.033 212.957C104.685 225.251 103.612 237.558 104.12 249.921C104.424 257.436 107.396 263.695 114.368 267.788C120.717 271.518 127.413 274.368 134.574 276.365C143.662 278.894 153.185 279.453 162.187 282.33C167.753 284.104 172.232 287.373 174.377 292.626C179.668 305.59 182.958 319.056 179.769 332.928C175.943 349.552 168.101 365.03 163.839 381.598C162.941 385.105 159.781 386.795 156.258 387.354C150.779 388.248 145.257 388.89 139.749 389.617C126.862 391.321 116.078 396.28 109.657 407.847C106.526 413.505 103.699 419.316 101.119 425.253C95.2632 438.72 86.5807 449.923 73.1292 457.244C63.4756 462.496 52.7492 465.206 42.6317 469.397C30.1079 474.58 17.1928 477.485 3.43701 475.767C-4.21638 474.817 -11.1595 472.596 -16.6387 467.05C-20.0595 463.586 -23.5528 460.177 -27.1765 456.908C-32.1339 452.438 -37.7724 448.987 -44.7156 448.499C-56.3841 447.688 -64.1389 453.095 -67.5743 465.206C-70.9226 477.01 -74.5174 488.773 -76.5902 500.884C-77.3584 505.411 -76.1119 509.434 -72.8505 512.828C-70.0094 515.776 -66.4436 517.76 -62.8199 519.66C-55.3694 523.543 -48.0204 527.538 -42.6573 534.188C-38.4682 539.385 -35.5692 545.308 -32.0324 550.868C-28.3072 556.735 -23.8717 561.918 -16.8271 564.265C-8.76782 566.947 -1.02747 565.55 6.3795 562.057C15.6129 557.699 24.1505 551.915 33.7607 548.353C51.7345 541.69 65.9542 530.514 77.4778 515.944C85.45 505.844 94.7994 497.588 107.106 492.475C119.064 487.502 131.356 483.856 144.126 481.411C156.244 479.106 167.652 474.957 177.204 467.064C185.031 460.596 189.974 452.703 188.959 442.366C188.321 435.912 185.857 429.947 183.06 424.08C180.291 418.254 177.218 412.541 175.827 406.185C174.537 400.29 176.349 397.007 182.147 395.051C183.176 394.702 184.205 394.324 185.263 394.101C199.323 391.111 210.6 383.484 221.196 374.53C231.096 366.148 236.126 355.321 239.417 343.349C243.026 330.176 248.244 317.659 257.448 307.001C260.391 303.592 263.391 300.239 266.16 296.719C273.277 287.639 275.553 277.748 271.451 266.74C268.276 258.233 263.855 250.298 259.043 242.629C250.418 228.855 240.939 215.681 238.46 199.072C237.271 191.095 231.14 186.569 222.501 185.549C219.022 185.144 215.775 185.8 212.47 186.387C207.716 187.225 203.237 189.209 198.396 189.754C193.685 190.285 189.322 189.558 186.307 185.745C183.321 181.959 185.727 178.425 187.524 174.988C187.901 174.262 188.452 173.619 188.959 172.976C194.409 166.033 201.498 160.697 208.151 154.956C211.847 151.771 215.775 148.795 220.53 147.147C232.198 143.067 244.417 141.265 256.55 139.114C260.521 138.416 264.725 138.569 268.653 140.371C275.828 143.654 279.206 149.619 281.496 156.478C283.96 163.854 282.539 171.538 283.482 179.053C284.351 185.856 288.482 191.584 295.324 193.372C306.514 196.292 315.849 193.023 323.676 185.2C335.084 173.801 344.636 161.186 351.652 146.728C354.725 140.385 359.146 134.686 366.422 131.906C371.09 130.118 375.946 129.363 380.946 129.126C390.846 128.665 399.471 125.955 403.283 116.022C407.197 105.825 411.719 95.9341 417.271 86.4488C423.794 75.2731 428.084 62.9798 435.477 52.2233C439.622 46.1884 444.058 40.2234 446.42 33.3224C453.175 13.751 456.915 -6.39314 457.379 -27.0402C457.524 -35.2683 453.9 -38.7188 445.333 -38.9562Z" fill="#2F80ED"/>
<path d="M477.455 -106.918C472.164 -103.426 467.99 -98.858 465.004 -93.4658C459.553 -83.6172 452.103 -76.4508 440.275 -74.1738C434.709 -73.0981 429.244 -71.4776 423.809 -69.8991C391.688 -60.6372 361.915 -46.947 334.447 -28.1579C316.212 -15.697 298.484 -2.92883 283.236 12.8847C280.786 15.4132 277.626 17.3271 274.307 18.8218C271.016 20.3026 267.74 20.7636 264.102 19.7857C258.014 18.1373 252.912 14.8684 249.303 10.1467C240.258 -1.69951 229.227 -11.9951 220.428 -23.9531C210.557 -37.3639 198.599 -48.4278 184.655 -57.7735C173.624 -65.1634 162.941 -72.9444 154.345 -83.1422C150.707 -87.4588 146.388 -91.2865 141.43 -94.3319C131.429 -100.451 120.297 -99.4308 111.875 -91.4821C107.976 -87.8081 104.294 -83.9245 100.279 -80.3763C92.1472 -73.1819 83.2328 -66.7 71.9121 -65.9177C58.4172 -64.9678 44.8064 -65.1494 31.326 -66.6861C18.9037 -68.097 7.9744 -73.3915 -2.47653 -79.6498C-12.8985 -85.8942 -23.4654 -88.7161 -34.8295 -81.8989C-44.918 -75.8361 -54.1079 -68.5999 -63.2253 -61.3078C-67.5448 -57.8712 -67.4579 -56.0133 -64.2545 -51.3614C-60.5872 -46.0111 -56.2967 -40.9401 -53.847 -34.9751C-47.9041 -20.5305 -39.6274 -7.73438 -27.4515 2.60313C-24.7989 4.85223 -22.6537 7.56232 -20.8273 10.454C-17.0876 16.3771 -15.899 22.5657 -19.3778 29.0615C-25.6686 40.782 -31.8145 52.5584 -35.8731 65.2009C-41.0044 81.21 -52.7019 90.2763 -68.8494 94.8304C-79.0974 97.7221 -89.6933 98.9793 -100.115 101.061C-110.653 103.17 -121.394 104.637 -131.309 108.926C-143.934 114.402 -153.124 123.789 -161.226 134.281C-171.431 147.468 -181.867 160.446 -194.159 171.943C-196.609 174.234 -199.276 176.245 -202.175 177.935C-213.988 184.85 -224.12 182.029 -230.716 170.294C-233.876 164.678 -234.818 158.336 -237.485 152.595C-238.963 149.41 -240.413 146.169 -243.993 144.548C-243.993 145.247 -243.993 145.945 -243.993 146.644C-239.833 150.094 -238.268 154.9 -236.804 159.719C-235.267 164.776 -233.571 169.749 -230.455 174.15C-224.439 182.671 -216.496 185.214 -206.451 181.833C-201.32 180.101 -197.029 177.111 -193.145 173.535C-179.403 160.948 -168.271 146.238 -156.776 131.836C-146.325 118.76 -133.338 109.554 -116.234 105.978C-102.043 103.003 -87.7075 100.74 -73.5313 97.736C-54.2384 93.6569 -39.8593 84.2274 -33.8583 64.9913C-30.365 53.8017 -25.1323 43.2546 -19.2328 33.0289C-13.8407 23.6972 -14.6379 14.7706 -21.494 6.27712C-24.7844 2.19801 -28.814 -1.16866 -32.4813 -4.88457C-38.7867 -11.2687 -44.2803 -18.2116 -47.7736 -26.4117C-51.6148 -35.4081 -56.4271 -43.8458 -62.2396 -51.7945C-65.472 -56.2089 -65.4141 -57.536 -61.0076 -60.8607C-52.3395 -67.3845 -43.9614 -74.3274 -34.5831 -79.9292C-27.7124 -84.0363 -20.4504 -86.1736 -12.5506 -82.5834C-9.49214 -81.1865 -6.43369 -79.7337 -3.53467 -78.0573C7.77148 -71.5335 19.4835 -66.0435 32.8479 -64.87C44.183 -63.8782 55.5762 -64.3252 66.9403 -64.0877C77.1303 -63.8642 85.8129 -67.4404 93.9011 -72.9444C100.772 -77.6242 106.367 -83.6312 112.281 -89.2889C121.891 -98.4669 131.922 -99.0815 142.778 -91.1328C148.214 -87.1515 152.65 -82.2342 157.129 -77.3309C165.202 -68.4881 175.305 -61.9923 185.133 -55.203C191.627 -50.7048 197.961 -45.9831 203.687 -40.6607C209.253 -35.492 213.862 -29.4571 218.327 -23.3384C225.009 -14.1604 233.764 -6.64474 240.577 2.43549C243.766 6.68224 246.896 11.0128 250.984 14.5332C260.638 22.873 271.161 25.0942 281.902 16.3073C283.467 15.0221 285.149 13.8486 286.54 12.4098C300.354 -1.76936 315.98 -13.6994 332.693 -24.6655C344.709 -32.5444 356.711 -40.2416 369.539 -46.8632C392.006 -58.458 415.749 -66.5883 440.376 -72.5672C444.696 -73.615 448.958 -74.8443 452.944 -76.9956C459.437 -80.5159 462.699 -86.5508 466.41 -92.2644C470.584 -98.6764 475.339 -104.488 482.789 -107.617C482.789 -108.078 482.789 -108.553 482.789 -109.014C480.731 -108.916 479.049 -107.98 477.455 -106.918Z" fill="#2F80ED"/>
<path d="M478.731 -80.8372C472.961 -71.6033 465.134 -64.814 454.147 -61.8804C443.754 -59.1144 433.187 -57.1028 422.62 -55.1331C412.894 -53.331 402.936 -52.451 393.688 -48.7071C382.498 -44.181 372.641 -38.0483 367.539 -26.8028C365.292 -21.8576 364.77 -16.4373 363.393 -11.2546C360.219 0.689362 354.798 4.02809 343.202 0.158516C343.086 0.116608 342.97 0.0886688 342.854 0.0467529C331.896 -3.739 321.706 -2.28617 312.168 4.12587C303.05 10.2585 296.02 18.5146 288.092 25.8626C285.453 28.3072 282.685 30.5144 279.684 32.4981C273.77 36.4096 267.581 36.8007 261.102 33.909C252.738 30.1652 245.635 24.6053 239.519 18.1793C229.169 7.32491 220.979 -5.14993 213.007 -17.6667C205.209 -29.8901 195.584 -40.2276 183.292 -48.288C170.812 -56.4742 158.158 -64.381 147.127 -74.5369C137.097 -83.7708 127.718 -85.7125 114.47 -76.8977C108.991 -73.2517 103.54 -69.5777 97.9744 -66.0713C88.9874 -60.4136 79.5656 -55.7478 68.5784 -54.8956C63.5196 -54.5045 58.4029 -54.3927 53.4456 -53.4428C40.458 -50.9702 28.2966 -52.9399 16.4107 -58.3321C8.22098 -62.0481 0.0457764 -66.0154 -8.89767 -67.8594C-14.1449 -68.949 -19.4211 -69.0329 -24.4944 -66.6161C-34.293 -61.9503 -39.5547 -51.8922 -38.2647 -41.415C-36.5833 -27.7388 -29.959 -17.1638 -18.5949 -8.94966C-7.66559 -1.04288 2.00261 8.31675 12.4101 16.8522C16.7296 20.4004 16.889 24.1443 13.3377 28.4888C12.3086 29.7461 11.004 30.8776 9.64149 31.8136C4.69868 35.1803 -0.302109 38.4631 -5.33189 41.7041C-14.9131 47.8647 -21.32 56.1626 -23.8421 67.0868C-24.8857 71.6409 -25.9729 76.195 -26.8426 80.777C-28.3645 88.7117 -33.2929 93.629 -40.7433 97.0097C-54.1078 103.059 -68.0665 106.928 -82.605 109.275C-102.318 112.446 -120.205 120.548 -137.788 129.251C-145.876 133.261 -152.428 139.086 -157.675 146.28C-162.821 153.335 -168.14 160.292 -173.214 167.388C-183.099 181.218 -196.435 190.606 -212.713 196.292C-218.989 198.485 -224.889 197.814 -230.165 193.833C-233.107 191.626 -236.05 189.432 -238.296 186.415C-239.731 184.487 -241.398 182.49 -243.979 181.693C-243.979 182.392 -243.979 183.09 -243.979 183.789C-242.63 184.948 -241.007 185.926 -239.992 187.323C-237.789 190.354 -234.919 192.632 -231.948 194.839C-227.237 198.359 -221.99 199.979 -215.974 198.75C-203.247 196.166 -192.767 189.53 -183.244 181.456C-174.344 173.912 -168.445 163.952 -161.705 154.718C-154.921 145.4 -147.905 136.334 -137.077 130.956C-131.7 128.288 -126.206 125.829 -120.742 123.314C-108.566 117.713 -95.984 113.103 -82.6485 110.965C-67.5157 108.535 -52.9047 104.637 -39.0329 98.225C-32.0753 95.012 -27.089 90.3881 -25.5525 82.8445C-24.9292 79.7572 -24.3059 76.656 -23.6102 73.5827C-21.8273 65.8016 -19.7255 58.1742 -14.2174 51.846C-10.985 48.1301 -7.1003 45.2244 -3.02719 42.4724C2.50992 38.7285 8.59785 35.6832 13.5117 31.1151C18.9618 26.0581 19.2227 19.8975 13.8596 15.5251C4.07539 7.5624 -4.96951 -1.25242 -15.203 -8.69821C-26.4077 -16.8564 -34.264 -26.6771 -36.3948 -40.7165C-38.714 -55.9433 -24.7698 -71.8966 -6.46251 -65.5963C1.19087 -62.9701 8.56886 -59.7431 16.0048 -56.6279C25.2092 -52.7583 34.5875 -49.8526 44.821 -50.8584C53.2281 -51.6966 61.6208 -52.7024 70.0424 -53.4428C79.3192 -54.267 87.6394 -57.5918 95.3798 -62.3554C103.236 -67.1889 110.875 -72.3157 118.673 -77.233C126.443 -82.1363 133.748 -81.9827 141.286 -76.772C143.547 -75.2214 145.707 -73.5031 147.707 -71.6591C155.708 -64.2972 164.492 -57.9969 173.827 -52.2973C187.728 -43.8177 200.382 -34.0251 209.108 -20.1952C213.254 -13.6155 217.762 -7.24536 222.197 -0.833321C230.546 11.2364 239.475 22.8032 252.202 31.0732C257.188 34.3142 262.377 37.0243 268.494 37.4014C276.452 37.8904 282.308 33.6855 287.7 28.8521C295.411 21.9511 302.181 14.0722 310.443 7.744C317.241 2.53335 324.663 -1.12669 333.751 -0.372337C338.157 -0.00912476 342.129 1.89075 346.391 2.75686C355.465 4.58688 361.147 1.55547 364.002 -6.89613C364.857 -9.43859 365.437 -12.0788 365.93 -14.7191C367.466 -22.9332 370.279 -30.5886 376.787 -36.3859C385.556 -44.181 396.08 -48.735 407.748 -50.8305C422.736 -53.5266 437.753 -56.0551 452.552 -59.6453C463.206 -62.2436 471.845 -67.4263 478.02 -76.3529C479.455 -78.4344 480.383 -81.0188 482.862 -82.3598C482.862 -83.2958 482.862 -84.2318 482.862 -85.1677C480.789 -84.2876 479.789 -82.5275 478.731 -80.8372Z" fill="#2F80ED"/>
<path d="M479.687 265.315C480.44 259.322 479.005 254.754 473.628 251.513C472.396 250.773 471.236 249.921 470.004 249.18C463.67 245.339 460.147 239.723 458.843 232.738C457.727 226.759 457.176 220.738 457.35 214.662C457.408 212.678 457.219 210.722 456.9 208.752C455.538 200.021 449.131 194.727 442.782 189.502C432.563 181.093 421.431 173.814 410.719 166.033C402.384 159.985 394.195 153.852 383.7 151.491C372.496 148.977 365.625 152.846 362.798 163.589C361.436 168.771 362.19 174.038 362.103 179.277C362.045 182.993 361.45 186.513 359.436 189.67C355.449 195.942 350.811 201.726 345.636 207.16C340.433 212.636 333.924 214.703 326.604 213.726C310.457 211.56 294.28 209.535 278.002 208.501C267.856 207.858 264.131 211.211 264.203 219.816C264.232 222.778 265.305 225.767 266.102 228.687C269.131 239.653 273.799 250.047 278.408 260.454C284.612 274.479 283.409 287.499 273.204 299.443C270.668 302.405 268.189 305.422 265.566 308.314C254.39 320.663 248.273 335.247 245.809 351.228C243.924 363.494 237.692 372.686 227.864 380.495C218.834 387.661 209.687 394.786 201.41 402.804C196.41 407.652 194.786 413.463 195.917 420.14C196.845 425.589 199.062 430.673 200.57 435.94C202.063 441.165 204.353 446.319 203.106 451.991C201.338 460.038 195.308 464.913 189.075 469.593C174.29 480.699 157.114 486.929 139.343 491.846C131.182 494.109 123.181 496.708 115.353 499.865C102.105 505.187 93.1469 514.798 85.8849 526.337C79.565 536.353 70.3317 543.003 59.1415 547.487C46.4293 552.586 33.2678 556.945 22.1211 565.075C16.3666 569.266 9.94527 572.688 5.23438 578.136C6.20554 578.136 7.1767 578.136 8.14787 578.136C8.85813 577.354 9.48143 576.46 10.3076 575.804C23.0633 565.801 36.8916 557.587 52.4013 552.041C59.7648 549.415 67.0413 546.467 73.5206 542.025C81.4059 536.605 86.5371 528.963 91.7264 521.364C94.7993 516.88 98.2636 512.717 102.714 509.364C113.773 501.052 126.819 497.141 139.995 493.481C160.027 487.921 179.248 480.754 195.178 467.218C202.469 461.015 206.716 453.681 204.556 443.735C202.86 435.94 199.584 428.62 197.801 420.867C196.221 414.008 198.236 408.448 203.251 403.698C211.629 395.791 220.819 388.751 229.734 381.417C238.373 374.306 244.91 366.302 246.751 355.07C248.737 343.056 251.94 331.35 258.622 320.775C262.667 314.363 267.725 308.719 272.799 303.089C284.67 289.944 286.888 275.429 279.945 259.476C278.727 256.682 277.466 253.902 276.321 251.08C272.262 241.092 267.711 231.257 266.058 220.543C265.174 214.829 267.754 211.616 273.639 210.289C276.017 209.758 278.191 210.331 280.452 210.443C295.193 211.127 309.761 213.265 324.372 215.123C333.171 216.24 341.244 214.997 347.506 208.026C349.564 205.735 351.42 203.262 353.551 201.069C361.711 192.715 364.987 182.937 363.625 171.565C363.132 167.416 364.277 163.463 366.176 159.719C369.205 153.754 374.438 151.24 381.12 152.692C387.295 154.048 393.267 156.031 398.413 159.705C413.183 170.238 428.418 180.227 442.449 191.682C447.841 196.082 453.262 200.692 454.944 207.998C455.857 211.951 455.712 215.877 455.799 219.83C455.929 225.795 456.451 231.732 458.19 237.46C460.321 244.473 465.539 249.027 471.845 252.687C475.831 255.006 479.107 258.093 478.194 263.136C477.179 268.836 477.44 274.563 477.73 280.235C478.005 285.515 479.063 290.824 482.745 295.168C482.745 293.995 482.745 292.835 482.745 291.662C478.179 283.252 478.57 274.242 479.687 265.315Z" fill="#2F80ED"/>
<path d="M445.681 65.7737C453.566 52.8798 460.698 39.7065 464.597 25.1082C467.974 12.4658 471.598 -0.10688 476.99 -12.1207C478.57 -15.6411 480.005 -19.2592 482.759 -22.1509C482.759 -22.8494 482.759 -23.5479 482.759 -24.2463C480.266 -23.464 479.483 -21.2429 478.469 -19.3151C473.366 -9.60621 469.279 0.549688 466.786 11.1247C461.698 32.7915 451.986 52.3909 440.361 71.4035C434.215 81.4616 427.881 91.7851 427.156 104.022C426.779 110.49 428.446 116.288 434.041 120.423C442.333 126.541 452.117 129.782 461.683 133.359C468.438 135.887 475.381 138.01 482.745 138.248C482.745 137.787 482.745 137.312 482.745 136.851C466.336 134.532 451.435 128.274 437.201 120.409C431.244 117.112 428.722 111.664 428.78 105.14C428.823 100.67 429.954 96.3811 431.737 92.2461C435.694 83.082 440.448 74.2952 445.681 65.7737Z" fill="#2F80ED"/>
<path d="M482.76 46.4956C482.76 45.5597 482.76 44.6237 482.76 43.6877C481.441 44.0929 481.006 45.1825 480.542 46.2721C478.15 51.8879 474.904 57.0706 471.86 62.3791C466.337 71.9762 458.785 80.2601 452.958 89.6617C448.494 96.856 448.755 104.944 454.364 110.323C462.293 117.922 471.831 123.063 482.76 125.647C482.76 125.186 482.76 124.711 482.76 124.25C474.077 121.484 466.105 117.405 458.872 111.985C450.9 106.006 449.233 98.6162 454.741 90.5278C464.569 76.1251 475.353 62.3092 482.76 46.4956Z" fill="#2F80ED"/>
<path d="M458.002 156.52C459.133 155.863 460.394 155.374 461.64 154.969C468.497 152.734 475.599 152.273 482.76 152.259C482.76 151.798 482.76 151.323 482.76 150.862C474.729 150.625 466.801 151.17 459.22 153.95C452.422 156.45 450.813 161.731 455.292 167.277C462.22 175.854 471.975 179.123 482.745 180.282C482.745 179.821 482.745 179.346 482.745 178.885C476.947 178.089 471.396 176.483 466.25 173.759C462.075 171.551 458.278 168.883 455.828 164.804C453.726 161.298 454.393 158.601 458.002 156.52Z" fill="#2F80ED"/>
<path d="M429.823 22.3982C429.301 17.7883 426.837 14.2959 422.271 12.7033C415.589 10.3844 409.385 11.488 403.543 15.0223C395.383 19.9675 391.251 28.028 386.686 35.6833C381.641 44.1349 379.105 53.5923 375.307 62.5468C372.104 70.1183 366.103 73.038 357.782 71.3337C348.723 69.4757 341.983 64.5584 337.591 56.7075C335.75 53.4247 334.025 50.072 332.097 46.845C329.01 41.6763 324.618 38.7846 318.095 39.3992C313.601 39.8183 310.152 42.0395 306.963 44.7775C301.136 49.7646 296.642 55.8973 291.844 61.7366C285.51 69.4338 278.828 71.4874 269.493 67.9531C262.898 65.4525 256.868 61.988 251.954 57.0009C241.735 46.6494 230.762 37.22 218.137 29.6205C210.237 24.8569 203.816 18.5566 199.018 10.7895C195.8 5.57885 192.452 0.438034 189.379 -4.85644C183.958 -14.1742 177.29 -22.3603 167.404 -27.5989C158.794 -32.167 150.576 -37.2938 142.763 -43.0214C132.022 -50.8862 120.411 -54.6999 107.656 -48.246C96.1032 -42.4067 84.913 -35.8689 73.7808 -29.3032C68.838 -26.3836 66.7797 -21.6199 67.9972 -15.9762C68.693 -12.7772 69.9976 -9.75976 71.9834 -7.02172C77.3031 0.298344 84.1158 2.24011 92.5374 -1.57359C100.466 -5.16377 108.641 -7.31508 115.86 -6.71439C125.717 -6.70042 133.921 -6.19752 141.864 -3.89254C150.01 -1.54564 155.678 3.32974 157.345 11.6277C159.476 22.1608 155.779 30.6403 147.024 37.1361C135.443 45.7274 127.268 46.5237 116.034 38.8125C113.961 37.3876 111.859 36.0046 109.815 34.5657C106.989 32.5681 104.235 30.4447 101.031 28.9919C95.3784 26.4215 89.363 26.9104 85.7247 30.4168C80.7674 35.1944 79.3904 41.2711 79.7672 47.767C80.2456 55.8554 84.1737 62.6306 89.6529 68.3582C101.133 80.358 108.743 81.4756 121.252 77.5362C124.122 76.6282 126.978 75.6084 130.022 75.315C142.531 74.0997 155.069 73.5129 167.636 73.9041C183.668 74.407 195.322 84.5908 197.916 99.9574C198.728 104.735 198.351 109.499 198.554 114.262C198.83 120.87 200.424 123.482 205.41 124.837C213.412 127.03 221.732 126.751 229.893 126.849C240.445 126.961 250.751 124.474 260.926 121.848C271.914 118.998 280.756 122.197 287.583 130.69C292.7 137.047 297.584 143.57 302.484 150.08C309.065 158.811 315.79 159.468 324.502 153.405C328.299 150.765 331.532 147.37 334.358 143.668C338.736 137.941 342.432 131.752 347.216 126.304C353.318 119.375 361.073 114.737 369.61 111.161C377.177 107.99 383.134 103.17 387.323 96.2275C389.759 92.1903 392.962 88.642 396.586 85.5408C403.775 79.3941 409.356 72.1998 413.009 63.6085C416.27 55.9532 419.589 48.3118 424.01 41.1734C427.562 35.4039 430.62 29.5227 429.823 22.3982ZM427.417 30.2212C426.489 33.7415 424.431 36.8707 422.517 39.958C418.096 47.1104 414.791 54.7378 411.516 62.3932C407.848 70.9705 402.297 78.1648 395.078 84.2835C391.541 87.273 388.425 90.7654 386.048 94.7188C381.815 101.773 375.785 106.691 368.074 109.862C359.507 113.396 351.839 118.16 345.737 125.075C340.939 130.509 337.257 136.711 332.88 142.439C330.126 146.043 326.922 149.242 323.299 151.952C315.471 157.791 309.891 156.814 304.049 148.907C299.483 142.732 294.714 136.711 290.047 130.621C282.249 120.451 272.218 117.294 259.723 120.381C249.765 122.854 239.72 125.396 229.4 125.242C221.848 125.131 214.151 125.396 206.715 123.398C203.251 122.476 201.207 120.577 200.584 116.916C199.888 112.712 200.192 108.535 200.12 104.344C199.844 88.4045 189.495 75.8319 173.623 72.8285C169.318 72.0182 164.853 71.7249 160.331 72.1719C153.605 72.8145 146.821 72.563 140.052 72.9262C133.225 73.2894 126.485 73.6387 120.121 76.0973C110.337 79.8691 102.032 77.3546 94.7986 70.7609C87.812 64.3908 82.2894 57.0568 81.4922 47.3898C81.0138 41.5645 82.6517 36.27 86.8843 31.9674C90.1457 28.6566 94.6537 28.1397 99.6255 30.3609C103.394 32.0372 106.54 34.6496 109.888 36.9406C112.454 38.7007 115.019 40.4749 117.686 42.0674C125.992 47.0546 134.283 46.6774 142.792 42.277C155.736 35.5716 161.954 23.5717 158.939 10.566C156.968 2.05851 151.271 -2.98451 142.893 -5.37331C134.588 -7.74814 126.021 -8.25105 116.135 -8.13929C108.076 -8.87968 99.4225 -6.72836 91.0734 -2.84481C84.768 0.0748291 80.6369 -0.84716 75.6796 -5.66667C72.4037 -8.83776 70.4179 -12.7073 69.5772 -17.01C68.5336 -22.3743 71.766 -25.9505 76.071 -28.5489C82.4198 -32.3905 89.2905 -35.366 95.5668 -39.3613C100.307 -42.3787 105.061 -45.3822 110.337 -47.5475C118.643 -50.9561 126.905 -50.6767 134.298 -45.9969C146.734 -38.132 159.128 -30.2112 171.666 -22.5C180.45 -17.1078 185.045 -8.23708 190.176 0.0748215C195.554 8.77788 200.395 17.8162 208.382 24.7731C211.194 27.2177 214.18 29.411 217.325 31.3248C229.081 38.4772 239.532 47.0546 248.997 56.8193C254.027 62.016 259.912 66.0392 266.71 68.7633C277.219 72.9681 286.177 72.2697 293.7 62.5887C297.961 57.0987 302.252 51.5667 307.528 46.859C309.05 45.5039 310.615 44.2327 312.384 43.2129C319.515 39.1059 325.893 40.7263 330.372 47.5016C333.75 52.6144 335.619 58.5795 339.823 63.2174C346.781 70.8867 355.536 74.3232 366.045 72.9821C371.654 72.2557 374.916 68.4979 376.887 63.6923C380.54 54.8077 383.105 45.49 388.077 37.1361C392.701 29.383 396.832 21.1829 405.196 16.2516C408.776 14.1422 412.675 12.6335 416.879 13.2062C427.359 14.6172 429.895 20.7358 427.417 30.2212Z" fill="#2F80ED"/>
<path d="M93.9726 144.702C93.9726 143.766 94.0451 142.83 93.9581 141.908C93.2044 133.149 90.7112 125.354 81.4344 121.414C70.2442 116.665 58.8656 116.888 47.4435 120.437C42.1383 122.085 37.7028 125.088 36.6302 130.718C35.3981 137.2 37.6158 142.732 43.2254 146.699C54.0532 154.327 66.5624 157.945 79.55 159.859C88.1166 161.13 91.8418 158.057 93.5667 149.912C93.9291 148.208 93.9436 146.448 94.1175 144.716C94.0741 144.702 94.0306 144.702 93.9726 144.702ZM91.5664 150.904C90.001 156.534 86.3627 159.356 80.3617 158.364C67.5481 156.255 55.0969 152.888 44.4575 145.219C39.8191 141.88 37.0795 137.354 38.2101 131.598C39.2103 126.527 43.2544 123.803 47.9653 122.113C56.0825 119.193 64.4462 118.704 72.9113 120.409C85.9858 123.049 92.3637 130.9 92.4216 144.702C92.5956 146.588 92.1752 148.753 91.5664 150.904Z" fill="#2F80ED"/>
<path d="M129.92 143.123C124.861 143.123 122.223 146.001 122.223 151.561C122.223 157.372 124.919 160.613 129.804 160.683C134.5 160.739 138.225 156.953 138.283 152.05C138.37 146.7 135.007 143.123 129.92 143.123ZM129.949 159.021C126.499 159.049 123.832 155.864 123.788 151.659C123.759 147.705 126.296 144.744 129.775 144.674C133.297 144.604 136.718 148.18 136.674 151.896C136.66 155.319 133.181 158.993 129.949 159.021Z" fill="#2F80ED"/>
<path d="M170.521 89.955C165.636 89.7873 162.244 92.7629 162.215 97.2192C162.186 101.969 165.331 104.623 171.071 104.665C176.145 104.707 179.377 102.095 179.406 97.9037C179.435 93.7547 175.362 90.1086 170.521 89.955ZM170.854 103.142C166.723 102.961 163.694 100.348 163.838 97.0515C163.969 93.9643 167.129 91.4637 170.651 91.6593C174.347 91.8548 177.638 94.984 177.449 98.0853C177.246 101.187 174.507 103.296 170.854 103.142Z" fill="#2F80ED"/>
<path d="M249.316 86.7562C244.866 79.2964 241.286 71.3617 236.923 63.846C229.588 51.1896 218.79 43.8136 202.265 44.3445C197.395 44.093 191.756 44.5121 186.915 48.0045C184.291 49.9044 183.451 52.4189 184.77 55.3944C185.581 57.2105 186.669 58.8449 187.988 60.4235C192.409 65.6621 197.598 70.2162 201.888 75.5944C207.382 82.4675 211.31 90.2346 216.007 97.5546C220.761 104.959 227.603 108.353 236.474 107.403C247.388 106.244 257.129 99.8596 249.316 86.7562ZM244.359 103.268C233.748 108.563 224.254 106.216 217.659 96.5488C212.687 89.2567 208.875 81.2801 203.309 74.3092C199.018 68.9449 193.757 64.4327 189.452 59.1103C188.567 58.0207 187.727 56.8752 186.987 55.6878C185.176 52.824 186.045 50.6867 188.872 48.9125C193.249 46.1745 198.091 45.6297 201.772 45.7833C217.876 45.5598 228.168 52.6424 235.14 64.5166C240.083 72.9123 244.446 81.6293 248.939 90.2765C251.969 96.1018 250.418 100.251 244.359 103.268Z" fill="#2F80ED"/>
<path d="M324.387 88.5023C318.705 88.4744 313.515 94.0203 313.414 100.251C313.312 106.118 317.4 110.211 323.43 110.267C330.112 110.323 336.563 104.679 336.621 98.728C336.649 93.5593 330.649 88.5302 324.387 88.5023ZM323.575 108.73C319.024 108.744 315.052 104.875 315.052 100.432C315.037 95.7246 319.908 90.1926 324.169 90.0809C328.938 89.9551 334.62 94.5092 334.736 98.5464C334.867 103.128 328.75 108.716 323.575 108.73Z" fill="#2F80ED"/>
<path d="M770.863 550.546C788.837 543.883 803.057 532.707 814.581 518.137C822.553 508.037 831.902 499.781 844.208 494.668C856.167 489.695 868.459 486.049 881.229 483.604C893.347 481.299 904.754 477.15 914.307 469.257C922.134 462.789 927.077 454.897 926.062 444.559C925.424 438.105 922.96 432.14 920.163 426.273C917.394 420.448 914.321 414.734 912.93 408.378C911.639 402.483 913.451 399.2 919.249 397.244C920.279 396.895 921.308 396.518 922.366 396.294C936.426 393.305 947.703 385.677 958.299 376.723C968.199 368.341 973.229 357.515 976.519 345.543C980.129 332.369 985.347 319.853 994.551 309.194C997.494 305.785 1000.49 302.432 1003.26 298.912C1010.38 289.832 1012.66 279.941 1008.55 268.933C1005.38 260.426 1000.96 252.491 996.146 244.822C987.521 231.048 978.041 217.874 975.563 201.265C974.374 193.288 968.243 188.762 959.604 187.742C956.125 187.337 952.878 187.994 949.573 188.58C944.819 189.418 940.34 191.402 935.498 191.947C930.787 192.478 926.424 191.751 923.41 187.938C920.424 184.152 922.83 180.618 924.627 177.181C925.004 176.455 925.555 175.812 926.062 175.169C931.512 168.227 938.6 162.89 945.253 157.149C948.95 153.964 952.878 150.988 957.632 149.34C969.301 145.261 981.52 143.458 993.652 141.307C997.624 140.609 1001.83 140.762 1005.76 142.564C1012.93 145.847 1016.31 151.812 1018.6 158.671C1021.06 166.047 1019.64 173.731 1020.58 181.246C1021.45 188.049 1025.59 193.777 1032.43 195.565C1043.62 198.485 1052.95 195.216 1060.78 187.393C1072.19 175.994 1081.74 163.379 1088.75 148.921C1091.83 142.578 1096.25 136.879 1103.53 134.099C1108.19 132.311 1113.05 131.556 1118.05 131.319C1127.95 130.858 1136.57 128.148 1140.39 118.215C1144.3 108.018 1148.82 98.1272 1154.37 88.6418C1160.9 77.4661 1165.19 65.1729 1172.58 54.4163C1176.73 48.3814 1181.16 42.4164 1183.52 35.5154C1190.28 15.9441 1194.02 -4.20009 1194.48 -24.8471C1194.67 -33.1171 1191.05 -36.5676 1182.47 -36.8051C1181.39 -36.8331 1180.31 -36.5956 1179.23 -36.4559C1172.41 -35.5758 1165.59 -34.1509 1158.66 -34.8354C1154.32 -35.2685 1150 -35.5618 1145.63 -35.464C1133.28 -35.1567 1124.98 -28.0602 1124.01 -16.5911C1123.34 -8.60052 1121.63 -0.973122 1118.17 6.36092C1114.38 14.3795 1110.08 22.1326 1104.09 28.7262C1097.47 36.0463 1093.02 36.0323 1085.77 31.3805C1082.25 29.1174 1078.78 26.7286 1075.17 24.6192C1065.71 19.0872 1056.2 18.7659 1046.88 24.9125C1041.47 28.4748 1036.63 32.6377 1032.44 37.569C1028.76 41.8996 1024.51 45.7552 1019.54 48.7726C1012.97 52.7539 1006.19 53.3267 999.204 49.8483C986.564 43.5619 976.577 33.9509 966.112 24.9964C955.081 15.5529 947.935 3.2457 941.296 -9.24312C934.44 -22.1231 925.12 -32.726 911.929 -39.8784C900.638 -45.9971 889.404 -52.1437 878.823 -59.4219C872.256 -63.948 864.806 -65.3729 856.718 -63.026C850.63 -61.2519 844.861 -58.891 839.498 -55.706C828.293 -49.0564 816.581 -43.6642 803.593 -41.0239C798.622 -40.0181 793.795 -38.3278 789.606 -35.3802C783.779 -31.2592 780.619 -26.0904 782.257 -18.8402C783.431 -13.6854 785.431 -8.79609 787.156 -3.82291C790.316 5.24335 791.055 14.3655 788.475 23.6832C787.576 26.9521 786.997 30.2908 786.257 33.6016C783.924 43.9391 785.46 53.3127 792.432 61.9599C797.375 68.1065 802.028 74.5884 805.086 81.9224C808.522 90.1924 805.086 97.6801 796.462 100.935C791.664 102.751 786.605 103.603 781.561 103.785C768.182 104.232 757.673 109.526 749.541 119.724C746.744 123.244 743.163 126.136 738.916 128.064C727.987 133.009 716.449 133.694 704.868 131.417C691.996 128.902 679.153 126.96 665.992 127.729C656.657 128.26 647.467 129.391 638.712 132.883C631.001 135.971 623.202 138.835 615.085 140.832C609.678 142.159 604.446 143.919 599.604 146.699C591.226 151.519 586.37 159.188 581.804 167.053C576.644 175.952 571.267 184.85 562.323 190.62C546.929 200.538 531.289 210.191 514.127 217.078C505.3 220.626 499.415 226.089 496.994 235.085C496.153 238.186 495.472 241.497 493.095 244.04C493.095 244.976 493.095 245.911 493.095 246.847C495.37 245.87 495.805 243.648 496.603 241.763C497.69 239.164 498.501 236.468 499.415 233.814C501.502 227.653 505.097 222.806 511.634 220.347C514.446 219.285 517.157 217.972 519.896 216.743C532.42 211.085 543.972 203.779 555.902 197.088C563.918 192.59 571.02 186.96 576.195 179.444C579.601 174.485 582.718 169.344 585.718 164.147C592.067 153.181 601.257 145.917 614.056 142.886C621.101 141.223 628.058 139.128 634.726 136.32C654.062 128.176 674.08 127.477 694.489 131.277C704.592 133.149 714.608 134.853 725.059 133.582C736.206 132.227 745.251 128.064 752.353 119.459C758.383 112.167 766.153 107.221 776.169 106.02C782.749 105.224 789.432 105.042 795.839 103.044C807.072 99.552 810.478 91.1284 806.405 80.5674C803.39 72.7304 797.926 66.1927 792.983 59.4314C788.866 53.8017 786.156 47.8506 786.895 40.8658C787.257 37.4014 787.866 33.9229 788.721 30.5283C791.461 19.66 793.36 8.8056 789.533 -2.21642C787.837 -7.0918 786.141 -11.9532 784.547 -16.8565C782.648 -22.6958 783.547 -27.7808 788.547 -32.0974C793.244 -36.1485 798.868 -38.1322 804.753 -39.5571C814.899 -41.9878 824.756 -45.0472 833.743 -50.3836C838.367 -53.1356 843.223 -55.5523 848.035 -57.997C859.82 -63.962 870.923 -63.9899 881.751 -55.3707C887.592 -50.7188 894.216 -46.9191 901.116 -43.7061C918.931 -35.4221 932.469 -23.1708 941.151 -5.72277C947.065 6.16534 954.501 17.327 964.72 26.3933C972.722 33.4899 981.042 40.2791 989.753 46.5654C994.595 50.0578 999.842 52.9914 1006.15 53.5781C1014.89 54.3884 1021.53 50.4629 1027.59 45.0846C1033.37 39.9578 1038.09 33.881 1044.17 28.9637C1054.3 20.7636 1064.08 19.7997 1075.06 26.7565C1078.29 28.8101 1081.51 30.9055 1084.75 32.9451C1092.68 37.9322 1099.89 37.1918 1105.58 29.9835C1116.27 16.447 1124.54 1.87668 1125.59 -15.711C1126.18 -25.5736 1132.11 -31.3989 1142.14 -33.4105C1145.63 -34.109 1149.18 -34.3465 1152.62 -33.8575C1161.87 -32.5165 1170.93 -33.8017 1180.06 -34.9053C1189.16 -36.0088 1192.99 -31.6643 1193 -24.442C1193.06 -10.668 1189.57 2.58913 1187.29 16.0279C1185.55 26.2676 1182.45 36.1441 1176.61 44.8471C1169.74 55.0589 1163.64 65.6059 1158.43 76.6978C1152.46 89.4381 1144.21 101.159 1139.89 114.639C1136.44 125.424 1128.17 129.615 1117.27 129.754C1102.96 129.936 1092.87 136.097 1086.68 148.474C1082.9 156.045 1078.96 163.547 1073.55 170.21C1069.37 175.351 1064.87 180.212 1060.21 184.976C1055.66 189.642 1050.66 193.484 1043.88 194.713C1033.38 196.613 1023.4 190.871 1022.41 181.903C1021.9 177.279 1021.14 172.655 1021.51 167.961C1021.8 164.427 1021.16 160.99 1020.12 157.61C1016.58 146.113 1008.6 137.899 994.319 139.603C983.723 140.86 973.432 143.556 963.039 145.736C956.632 147.077 951.037 150.01 946.036 154.033C940.006 158.895 934.107 163.896 928.642 169.372C926.975 171.048 925.265 172.767 923.989 174.722C921.076 179.151 918.351 183.984 921.902 189.041C925.308 193.875 930.845 194 936.325 193.442C936.556 193.414 936.788 193.302 937.035 193.288C941.557 192.939 945.688 191.123 950.051 190.145C963.561 187.072 972.519 192.338 974.881 205.511C976.853 216.45 981.317 226.214 987.797 235.281C993.928 243.858 998.653 253.19 1003.76 262.34C1011.97 277.092 1009.79 290.237 997.929 302.335C993.797 306.553 990.159 311.247 986.941 316.22C981.216 325.035 977.925 334.772 974.823 344.621C972.896 350.753 971.417 357.054 967.851 362.599C960.575 373.915 949.993 381.752 938.383 388.485C931.976 392.201 924.714 393.752 917.698 395.945C912.77 397.482 910.915 400.136 910.944 405.081C910.973 410.585 913.075 415.572 915.35 420.475C917.916 426.007 920.858 431.414 922.641 437.239C923.873 441.248 925.105 445.285 924.366 449.588C922.54 460.135 915.51 466.938 906.653 472.359C897.521 477.946 887.36 480.95 876.808 482.822C861.892 485.448 847.919 490.575 834.569 497.392C823.278 503.148 816.653 513.499 808.406 522.272C802.071 529.005 795.838 535.864 787.46 540.446C781.025 543.967 774.284 546.858 767.66 549.988C758.978 554.109 750.585 558.802 741.917 562.951C732.307 567.547 722.74 567.98 714.057 560.884C709.288 556.986 706.187 551.776 703.346 546.467C697.953 536.395 690.778 528.013 679.994 522.845C676.109 520.987 672.355 518.779 668.789 516.391C663.644 512.94 661.078 508.372 662.368 501.974C664.397 491.874 667.688 482.095 669.92 472.051C670.79 468.112 672.37 464.452 674.486 461.043C678.095 455.232 683.284 451.879 690.59 452.103C695.924 452.27 700.403 454.505 704.607 457.327C710.115 461.015 714.391 466.016 719.058 470.584C723.218 474.636 728.132 477.248 733.771 478.477C745.831 481.117 757.89 480.601 769.573 476.927C779.923 473.686 789.925 469.439 800.187 465.905C818.596 459.534 831.192 447.353 838.947 430.31C841.715 424.219 844.469 418.115 847.673 412.219C852.195 403.866 858.935 398.068 868.415 395.316C875.184 393.347 882.171 392.704 889.129 391.922C899.42 390.762 901.986 388.778 904.45 379.07C906.552 370.786 908.929 362.544 912.466 354.749C919.655 338.907 921.25 322.842 917.148 305.911C913.046 288.994 907.943 283.671 890.317 280.598C889.723 280.5 889.114 280.472 888.52 280.36C877.286 278.419 866.284 275.876 856.094 270.582C848.644 266.712 843.513 261.334 842.947 253.008C842.513 246.736 842.513 240.393 842.976 234.121C843.788 223.323 845.426 212.566 844.846 201.698C844.498 195.328 841.875 189.907 836.062 186.415C832.366 184.194 828.539 182.182 824.669 180.254C813.189 174.513 802.129 167.933 789.432 164.72C778.865 162.052 768.834 162.108 760.05 169.47C757.398 171.691 754.904 174.094 752.107 176.105C740.714 184.278 734.785 195.174 733.51 208.752C732.35 221.129 726.233 230.14 713.347 233.842C705.07 236.217 696.489 236.929 687.952 237.669C677.24 238.605 666.514 239.555 656.005 241.916C648.105 243.69 642.031 247.839 637.523 254.461C630.638 264.589 626.551 276.016 621.188 286.828C615.404 298.479 608.736 309.473 599.228 318.707C592.995 324.756 586.008 329.98 579.326 335.512C571.209 342.232 562.077 347.107 551.379 348.881C541.363 350.544 531.362 352.29 521.331 353.771C514.272 354.804 507.633 353.17 501.415 349.845C498.675 348.378 496.139 346.534 493.109 345.598C493.109 346.297 493.109 346.995 493.109 347.694C495.255 348.742 497.501 349.65 499.545 350.865C506.561 355.056 514.258 356.299 522.23 355.251C531.695 354.008 541.073 352.178 550.495 350.697C559.757 349.259 568.252 346.073 575.673 340.528C580.543 336.895 585.254 333.054 589.994 329.268C598.894 322.171 606.852 314.321 613.143 304.863C621.188 292.807 626.333 279.439 632.697 266.614C636.045 259.881 639.553 253.246 645.8 248.412C651.134 244.291 657.556 243.118 664.006 242C678.052 239.555 692.387 239.346 706.462 237.069C713.362 235.951 719.957 234.079 725.436 229.693C732.046 224.412 734.118 217.008 735.177 209.213C736.003 203.053 737.047 196.934 740.409 191.514C746.845 181.134 756.745 174.192 766.747 167.402C770.139 165.097 774.168 164.608 778.198 164.678C784.068 164.79 789.693 166.229 795.157 168.213C808.232 172.976 820.06 180.157 832.453 186.247C838.599 189.265 842.353 194.252 843.136 200.776C843.701 205.497 843.672 210.373 843.165 215.109C841.817 227.402 840.744 239.709 841.251 252.072C841.556 259.588 844.527 265.846 851.499 269.939C857.848 273.669 864.545 276.519 871.706 278.516C880.794 281.045 890.317 281.604 899.319 284.481C904.885 286.256 909.364 289.525 911.509 294.777C916.8 307.741 920.09 321.208 916.901 335.079C913.074 351.703 905.233 367.182 900.971 383.749C900.072 387.256 896.913 388.946 893.39 389.505C887.911 390.399 882.388 391.042 876.88 391.768C863.994 393.472 853.21 398.431 846.789 409.998C843.658 415.656 840.831 421.467 838.251 427.404C832.395 440.871 823.713 452.075 810.261 459.395C800.607 464.647 789.881 467.357 779.763 471.548C767.24 476.731 754.325 479.637 740.569 477.918C732.915 476.969 725.972 474.747 720.493 469.201C717.072 465.737 713.579 462.328 709.955 459.059C704.998 454.589 699.359 451.139 692.416 450.65C680.748 449.84 672.993 455.246 669.558 467.357C666.209 479.162 662.614 490.924 660.542 503.036C659.773 507.562 661.02 511.585 664.281 514.98C667.122 517.927 670.688 519.911 674.312 521.811C681.762 525.694 689.111 529.69 694.475 536.339C698.664 541.536 701.563 547.459 705.099 553.019C708.825 558.886 713.26 564.069 720.305 566.416C728.364 569.098 736.104 567.701 743.511 564.209C752.716 559.892 761.253 554.109 770.863 550.546Z" fill="#2F80ED"/>
<path d="M1214.56 -104.767C1209.27 -101.275 1205.09 -96.7067 1202.11 -91.3144C1196.66 -81.4658 1189.21 -74.2994 1177.38 -72.0224C1171.81 -70.9467 1166.35 -69.3263 1160.91 -67.7477C1128.79 -58.4859 1099.02 -44.7957 1071.55 -26.0066C1053.31 -13.5457 1035.59 -0.777466 1020.34 15.0361C1017.89 17.5646 1014.73 19.4784 1011.41 20.9732C1008.12 22.454 1004.84 22.915 1001.2 21.9371C995.117 20.2887 990.014 17.0198 986.405 12.2981C977.36 0.451851 966.329 -9.84373 957.531 -21.8017C947.66 -35.2125 935.701 -46.2764 921.757 -55.6221C910.726 -63.012 900.044 -70.7931 891.448 -80.9909C887.81 -85.3075 883.49 -89.1351 878.533 -92.1805C868.531 -98.2992 857.399 -97.2794 848.977 -89.3307C845.078 -85.6567 841.397 -81.7732 837.381 -78.2249C829.25 -71.0305 820.335 -64.5487 809.015 -63.7664C795.52 -62.8164 781.909 -62.998 768.428 -64.5347C756.006 -65.9456 745.077 -71.2401 734.626 -77.4985C724.204 -83.7429 713.637 -86.5647 702.273 -79.7476C692.184 -73.6848 682.995 -66.4485 673.877 -59.1564C669.558 -55.7199 669.645 -53.8619 672.848 -49.21C676.515 -43.8597 680.806 -38.7887 683.255 -32.8237C689.198 -18.3792 697.475 -5.58301 709.651 4.75449C712.304 7.00359 714.449 9.71369 716.275 12.6054C720.015 18.5285 721.204 24.717 717.725 31.2129C711.434 42.9334 705.288 54.7097 701.229 67.3522C696.098 83.3614 684.401 92.4276 668.253 96.9817C658.005 99.8734 647.409 101.131 636.987 103.212C626.449 105.322 615.709 106.788 605.794 111.077C593.169 116.553 583.979 125.941 575.876 136.432C565.672 149.619 555.235 162.597 542.943 174.094C540.494 176.385 537.827 178.397 534.928 180.087C523.114 187.002 512.982 184.18 506.387 172.445C503.227 166.83 502.285 160.488 499.618 154.746C498.139 151.561 496.69 148.32 493.109 146.7C493.109 147.398 493.109 148.096 493.109 148.795C497.269 152.245 498.835 157.051 500.299 161.87C501.835 166.927 503.531 171.901 506.648 176.301C512.663 184.823 520.606 187.365 530.652 183.984C535.783 182.252 540.073 179.263 543.958 175.686C557.699 163.1 568.832 148.39 580.326 133.987C590.777 120.912 603.765 111.706 620.869 108.129C635.059 105.154 649.395 102.891 663.571 99.8874C682.864 95.8083 697.243 86.3788 703.244 67.1427C706.738 55.953 711.97 45.406 717.87 35.1803C723.262 25.8486 722.465 16.922 715.608 8.42849C712.318 4.34937 708.288 0.982704 704.621 -2.73321C698.316 -9.11732 692.822 -16.0602 689.329 -24.2604C685.488 -33.2568 680.675 -41.6944 674.863 -49.6431C671.63 -54.0575 671.688 -55.3846 676.095 -58.7094C684.763 -65.2332 693.141 -72.176 702.519 -77.7779C709.39 -81.8849 716.652 -84.0223 724.552 -80.4321C727.61 -79.0351 730.669 -77.5823 733.568 -75.9059C744.874 -69.3821 756.586 -63.8921 769.95 -62.7186C781.286 -61.7268 792.679 -62.1738 804.043 -61.9363C814.233 -61.7128 822.915 -65.289 831.004 -70.7931C837.874 -75.4729 843.469 -81.4798 849.383 -87.1375C858.994 -96.3155 869.024 -96.9302 879.881 -88.9815C885.317 -85.0001 889.752 -80.0828 894.231 -75.1795C902.305 -66.3368 912.408 -59.8409 922.236 -53.0517C928.729 -48.5535 935.064 -43.8317 940.789 -38.5093C946.355 -33.3406 950.965 -27.3057 955.429 -21.187C962.111 -12.009 970.866 -4.49338 977.679 4.58685C980.868 8.83361 983.999 13.1642 988.087 16.6845C997.74 25.0244 1008.26 27.2455 1019 18.4587C1020.57 17.1735 1022.25 16 1023.64 14.5611C1037.46 0.382004 1053.08 -11.548 1069.8 -22.5142C1081.81 -30.393 1093.81 -38.0902 1106.64 -44.7118C1129.11 -56.3066 1152.85 -64.4369 1177.48 -70.4159C1181.8 -71.4636 1186.06 -72.6929 1190.05 -74.8442C1196.54 -78.3646 1199.8 -84.3994 1203.51 -90.113C1207.69 -96.5251 1212.44 -102.336 1219.89 -105.466C1219.89 -105.927 1219.89 -106.402 1219.89 -106.863C1217.85 -106.765 1216.17 -105.829 1214.56 -104.767Z" fill="#2F80ED"/>
<path d="M1215.85 -78.686C1210.08 -69.4521 1202.25 -62.6629 1191.26 -59.7293C1180.87 -56.9633 1170.3 -54.9517 1159.74 -52.982C1150.01 -51.1799 1140.05 -50.2998 1130.8 -46.556C1119.61 -42.0298 1109.76 -35.8972 1104.66 -24.6517C1102.41 -19.7064 1101.89 -14.2862 1100.51 -9.10352C1097.34 2.84048 1091.91 6.17921 1080.32 2.30964C1080.2 2.26773 1080.09 2.23979 1079.97 2.19788C1069.01 -1.58788 1058.82 -0.135048 1049.28 6.27699C1040.17 12.4096 1033.14 20.6657 1025.21 28.0137C1022.57 30.4584 1019.8 32.6655 1016.8 34.6492C1010.89 38.5607 1004.7 38.9519 998.218 36.0602C989.854 32.3163 982.752 26.7564 976.635 20.3304C966.285 9.47603 958.096 -2.99881 950.123 -15.5156C942.325 -27.7389 932.7 -38.0764 920.408 -46.1369C907.928 -54.3231 895.274 -62.2299 884.243 -72.3857C874.213 -81.6196 864.834 -83.5614 851.586 -74.7466C846.107 -71.1005 840.657 -67.4265 835.09 -63.9202C826.104 -58.2625 816.682 -53.5967 805.695 -52.7445C800.636 -52.3534 795.519 -52.2416 790.562 -51.2917C777.574 -48.8191 765.413 -50.7888 753.527 -56.181C745.337 -59.8969 737.162 -63.8643 728.218 -65.7083C722.971 -66.7979 717.695 -66.8817 712.622 -64.465C702.823 -59.7992 697.561 -49.741 698.851 -39.2639C700.533 -25.5876 707.157 -15.0127 718.521 -6.79854C729.451 1.10825 739.119 10.4679 749.526 19.0033C753.846 22.5516 754.005 26.2954 750.454 30.64C749.425 31.8972 748.12 33.0288 746.758 33.9647C741.815 37.3314 736.814 40.6142 731.784 43.8552C722.203 50.0158 715.796 58.3137 713.274 69.2379C712.23 73.792 711.143 78.3461 710.274 82.9281C708.752 90.8629 703.823 95.7802 696.373 99.1608C683.008 105.21 669.05 109.079 654.511 111.426C634.798 114.597 616.911 122.7 599.328 131.403C591.24 135.412 584.688 141.237 579.441 148.432C574.295 155.486 568.976 162.443 563.903 169.54C554.017 183.369 540.681 192.757 524.404 198.443C518.127 200.636 512.228 199.965 506.951 195.984C504.009 193.777 501.067 191.584 498.82 188.566C497.385 186.638 495.718 184.641 493.138 183.844C493.138 184.543 493.138 185.241 493.138 185.94C494.486 187.099 496.109 188.077 497.124 189.474C499.327 192.506 502.197 194.783 505.169 196.99C509.879 200.51 515.127 202.131 521.142 200.901C533.869 198.317 544.349 191.681 553.872 183.607C562.772 176.063 568.671 166.103 575.412 156.869C582.195 147.551 589.211 138.485 600.039 133.107C605.416 130.439 610.91 127.98 616.375 125.465C628.551 119.864 641.132 115.254 654.468 113.116C669.6 110.686 684.212 106.788 698.083 100.376C705.041 97.1631 710.027 92.5392 711.564 84.9956C712.187 81.9083 712.81 78.8071 713.506 75.7338C715.289 67.9527 717.391 60.3253 722.899 53.9971C726.131 50.2812 730.016 47.3755 734.089 44.6235C739.626 40.8797 745.714 37.8343 750.628 33.2662C756.078 28.2093 756.339 22.0487 750.976 17.6762C741.192 9.71352 732.147 0.898705 721.913 -6.54709C710.708 -14.7053 702.852 -24.5259 700.721 -38.5654C698.402 -53.7922 712.346 -69.7455 730.654 -63.4452C738.307 -60.8189 745.685 -57.592 753.121 -54.4767C762.325 -50.6072 771.704 -47.7015 781.937 -48.7073C790.344 -49.5455 798.737 -50.5513 807.159 -51.2917C816.435 -52.1159 824.756 -55.4406 832.496 -60.2043C840.352 -65.0377 847.991 -70.1646 855.789 -75.0819C863.559 -79.9852 870.864 -79.8315 878.402 -74.6209C880.663 -73.0703 882.823 -71.352 884.823 -69.508C892.824 -62.146 901.608 -55.8458 910.943 -50.1462C924.844 -41.6666 937.498 -31.8739 946.224 -18.0441C950.37 -11.4644 954.878 -5.09424 959.313 1.3178C967.662 13.3875 976.591 24.9543 989.318 33.2243C994.304 36.4653 999.493 39.1754 1005.61 39.5526C1013.57 40.0415 1019.41 35.8366 1024.82 31.0032C1032.53 24.1022 1039.3 16.2234 1047.56 9.89513C1054.36 4.68447 1061.78 1.02443 1070.87 1.77879C1075.27 2.142 1079.25 4.04187 1083.51 4.90798C1092.58 6.738 1098.26 3.7066 1101.12 -4.74501C1101.97 -7.28747 1102.55 -9.92772 1103.05 -12.568C1104.58 -20.7821 1107.39 -28.4374 1113.9 -34.2348C1122.67 -42.0298 1133.2 -46.5839 1144.86 -48.6794C1159.85 -51.3755 1174.87 -53.904 1189.67 -57.4942C1200.32 -60.0925 1208.96 -65.2752 1215.14 -74.2018C1216.57 -76.2833 1217.5 -78.8676 1219.98 -80.2087C1219.98 -81.1447 1219.98 -82.0806 1219.98 -83.0166C1217.89 -82.1365 1216.9 -80.3764 1215.85 -78.686Z" fill="#2F80ED"/>
<path d="M1216.8 267.453C1217.56 261.46 1216.12 256.891 1210.74 253.651C1209.51 252.91 1208.35 252.058 1207.12 251.318C1200.79 247.476 1197.26 241.86 1195.96 234.875C1194.84 228.896 1194.29 222.876 1194.47 216.799C1194.53 214.815 1194.34 212.859 1194.02 210.89C1192.66 202.159 1186.25 196.864 1179.9 191.64C1169.68 183.23 1158.55 175.952 1147.84 168.171C1139.5 162.122 1131.31 155.989 1120.82 153.628C1109.61 151.114 1102.74 154.983 1099.92 165.726C1098.55 170.909 1099.31 176.175 1099.22 181.414C1099.16 185.13 1098.57 188.65 1096.55 191.807C1092.57 198.08 1087.93 203.863 1082.75 209.297C1077.55 214.773 1071.04 216.841 1063.72 215.863C1047.57 213.698 1031.4 211.672 1015.12 210.638C1004.97 209.996 1001.25 213.348 1001.32 221.954C1001.35 224.915 1002.42 227.905 1003.22 230.824C1006.25 241.79 1010.92 252.184 1015.53 262.591C1021.73 276.617 1020.53 289.636 1010.32 301.58C1007.79 304.542 1005.31 307.559 1002.68 310.451C991.507 322.8 985.39 337.384 982.926 353.365C981.042 365.631 974.809 374.823 964.981 382.632C955.951 389.798 946.804 396.923 938.528 404.941C933.527 409.789 931.903 415.6 933.034 422.277C933.962 427.726 936.18 432.811 937.687 438.077C939.18 443.302 941.47 448.456 940.224 454.128C938.455 462.175 932.425 467.05 926.192 471.73C911.407 482.836 894.231 489.066 876.46 493.983C868.299 496.246 860.298 498.845 852.471 502.002C839.222 507.324 830.264 516.935 823.002 528.474C816.682 538.49 807.449 545.14 796.259 549.624C783.547 554.723 770.385 559.082 759.238 567.212C753.484 571.403 747.062 574.825 742.352 580.274C743.323 580.274 744.294 580.274 745.265 580.274C745.975 579.491 746.599 578.597 747.425 577.941C760.18 567.938 774.009 559.724 789.519 554.178C796.882 551.552 804.158 548.604 810.638 544.162C818.523 538.742 823.654 531.101 828.844 523.501C831.917 519.017 835.381 514.854 839.831 511.501C850.891 503.189 863.936 499.278 877.112 495.618C897.144 490.058 916.365 482.892 932.295 469.355C939.586 463.152 943.833 455.818 941.673 445.872C939.977 438.077 936.701 430.757 934.918 423.004C933.339 416.145 935.353 410.585 940.369 405.835C948.747 397.928 957.937 390.888 966.851 383.554C975.49 376.443 982.027 368.439 983.868 357.207C985.854 345.193 989.057 333.487 995.74 322.912C999.784 316.5 1004.84 310.856 1009.92 305.226C1021.79 292.081 1024.01 277.566 1017.06 261.613C1015.84 258.819 1014.58 256.039 1013.44 253.217C1009.38 243.229 1004.83 233.395 1003.18 222.68C1002.29 216.966 1004.87 213.753 1010.76 212.426C1013.13 211.895 1015.31 212.468 1017.57 212.58C1032.31 213.264 1046.88 215.402 1061.49 217.26C1070.29 218.377 1078.36 217.134 1084.62 210.163C1086.68 207.872 1088.54 205.4 1090.67 203.206C1098.83 194.853 1102.1 185.074 1100.74 173.703C1100.25 169.554 1101.39 165.6 1103.29 161.856C1106.32 155.891 1111.56 153.377 1118.24 154.83C1124.41 156.185 1130.38 158.168 1135.53 161.842C1150.3 172.375 1165.53 182.364 1179.57 193.819C1184.96 198.219 1190.38 202.829 1192.06 210.135C1192.97 214.089 1192.83 218.014 1192.92 221.968C1193.05 227.933 1193.57 233.87 1195.31 239.597C1197.44 246.61 1202.66 251.164 1208.96 254.824C1212.95 257.143 1216.22 260.23 1215.31 265.287C1214.3 270.987 1214.56 276.714 1214.85 282.386C1215.12 287.666 1216.18 292.975 1219.86 297.319C1219.86 296.146 1219.86 294.987 1219.86 293.813C1215.3 285.403 1215.67 276.393 1216.8 267.453Z" fill="#2F80ED"/>
<path d="M598.488 -32.6139C593.473 -31.2169 588.472 -29.6942 584.457 -26.3136C573.267 -16.8981 571.049 -4.96807 574.34 8.37288C575.296 12.2285 576.644 15.9863 577.731 19.814C578.63 22.9711 577.876 25.8349 575.659 28.2935C573.513 30.6684 571.209 32.9035 569.165 35.3482C564.396 41.0617 559.076 46.3702 555.844 53.1594C553.264 58.5656 553.554 63.6645 557.67 68.1627C560.613 71.3757 564.396 73.9881 568.977 73.569C573.542 73.1499 574.282 68.8333 575.282 65.4387C578.558 54.3468 582.573 43.4226 584.08 31.8977C584.486 28.8104 586.226 26.5753 589.125 25.0526C594.198 22.3984 599.706 21.0852 605.272 19.9397C612.244 18.5008 619.434 18.1656 626.217 15.7768C637.263 11.8932 641.988 4.2798 640.089 -6.82603C639.611 -9.57803 638.93 -12.3021 638.306 -15.0402C637.48 -18.7142 638.321 -19.9714 642.061 -19.9994C649.221 -20.0692 656.092 -18.5745 662.209 -15.0122C673.906 -8.20901 683.603 0.969009 692.88 10.4823C698.751 16.5032 701.65 23.8931 700.882 32.2749C699.736 44.8195 696.185 56.7635 690.836 68.2326C685.981 78.626 677.486 85.0659 666.354 88.0415C648.424 92.8331 630.146 93.294 611.751 90.8913C602.373 89.6619 593.27 87.2592 584.022 85.4431C578.572 84.3675 576.557 85.7086 575.137 90.9611C574.006 95.1101 574.63 99.3149 574.456 103.506C574.209 109.946 573.369 116.302 570.817 122.309C563.642 139.296 550.597 151.435 535.16 161.326C526.955 166.579 521.52 164.511 516.954 155.515C516.635 154.886 516.432 154.201 516.157 153.559C511.46 142.956 505.227 133.75 493.109 129.866C493.109 130.565 493.109 131.263 493.109 131.962C496.922 132.996 500.082 135.049 503.038 137.55C508.88 142.481 512.083 148.991 515.011 155.682C519.548 166.006 526.81 168.353 536.783 162.653C537.928 161.996 539.044 161.284 540.073 160.46C543.712 157.582 547.335 154.676 550.93 151.729C559.83 144.437 566.672 135.622 571.513 125.41C574.89 118.3 575.978 110.686 576.021 102.919C576.05 98.7282 575.659 94.5234 577.123 90.4303C578.152 87.5665 579.92 86.1556 583.167 86.9519C584.225 87.2033 585.312 87.3011 586.371 87.5665C604.359 92.0228 622.536 94.8866 641.22 93.5315C651.018 92.8191 660.788 91.953 670.08 88.726C679.777 85.3593 687.3 79.4502 691.895 70.3141C696.794 60.5633 699.562 50.1978 701.737 39.6508C704.563 25.8209 700.911 14.1423 689.836 4.58713C684.618 0.0749512 679.356 -4.39532 674.254 -9.01925C665.282 -17.1496 654.613 -21.1588 642.495 -21.9132C637.654 -22.2205 635.567 -19.7758 636.523 -15.11C637.205 -11.7992 638.161 -8.51635 638.669 -5.19159C639.698 1.48588 637.408 6.9899 631.711 10.9852C626.029 14.9665 619.332 16.0422 612.607 17.0759C604.243 18.3751 595.865 19.6184 588.197 23.502C585.037 25.0945 583.037 27.4554 582.573 30.7661C581.5 38.5472 579.456 46.0908 577.065 53.5645C575.456 58.5796 574.499 63.7903 572.194 68.5818C571.18 70.6912 569.919 72.4514 566.947 71.7669C558.091 69.7413 553.771 61.1779 557.888 53.3689C562.323 44.9592 569.049 38.1561 575.543 31.283C579.21 27.3995 580.471 23.3762 579.181 18.5008C578.195 14.771 576.978 11.097 575.876 7.39502C571.687 -6.58854 577.717 -21.3823 590.299 -27.8223C595.372 -30.4207 601.069 -31.3147 606.403 -33.2006C610.998 -34.8211 612.433 -36.5952 612.331 -41.2192C612.114 -51.2214 611.273 -61.2096 613.056 -71.17C614.288 -78.0989 615.419 -84.9999 619.477 -91.0487C623.115 -96.4829 629.827 -99.1511 636.436 -98.1313C642.988 -97.1255 648.888 -94.3455 655.034 -92.2501C664.093 -89.1628 672.935 -88.7717 681.705 -93.3676C687.256 -96.2733 692.561 -99.5562 697.446 -103.37C702.998 -107.714 707.448 -112.911 708.274 -120.175C707.796 -120.175 707.303 -120.175 706.824 -120.175C705.317 -114.015 701.693 -109.125 696.721 -105.186C692.141 -101.554 687.126 -98.4945 682.038 -95.5469C673.341 -90.5039 664.499 -90.4759 655.237 -94.0382C649.41 -96.2733 643.626 -98.6621 637.321 -99.654C628.189 -101.079 620.564 -97.782 616.636 -89.6936C610.606 -77.3306 609.824 -64.0175 610.505 -50.7045C611.186 -36.2879 611.882 -36.3577 598.488 -32.6139Z" fill="#2F80ED"/>
<path d="M869.546 -117.185C873.967 -113.944 878.547 -110.913 882.707 -107.309C889.578 -101.372 894.289 -93.8841 899.362 -86.6478C902.957 -81.521 906.667 -76.4221 911.683 -72.4827C918.539 -67.1184 925.612 -62.0334 932.599 -56.8368C940.644 -50.8438 948.5 -44.6972 954.965 -36.9999C961.053 -29.7637 967.141 -22.4297 975.113 -16.9815C982.317 -12.0642 989.739 -7.44028 997.146 -2.78841C1004.34 1.73773 1011.52 1.26276 1018.64 -3.06781C1025.64 -7.32854 1031.44 -12.9722 1037.6 -18.2108C1045.4 -24.8604 1052.98 -31.6496 1059.62 -39.4167C1065.16 -45.8986 1071.42 -51.5702 1080.62 -52.7437C1085.17 -53.3304 1089.74 -53.7215 1094.29 -54.2663C1106.95 -55.817 1117.95 -60.9718 1127.22 -69.2557C1132.57 -74.0333 1132.62 -79.6211 1128.35 -85.2649C1126.14 -88.2124 1123.46 -90.727 1120.82 -93.3113C1112.86 -101.134 1106.95 -110.312 1102.12 -120.161C1101.39 -120.161 1100.67 -120.161 1099.94 -120.161C1103.18 -113.623 1106.89 -107.351 1111.16 -101.414C1115.73 -95.0715 1122.05 -90.1682 1126.88 -84.0355C1130.78 -79.0624 1130.62 -75.5001 1126.28 -70.9321C1124.98 -69.563 1123.48 -68.3477 1121.93 -67.2581C1110.98 -59.5469 1098.78 -55.4677 1085.13 -54.9509C1076.45 -54.6156 1068.53 -51.8636 1062.58 -45.2001C1053.17 -34.681 1042.96 -24.9442 1032.12 -15.8081C1027.3 -11.7429 1022.54 -7.60792 1017.09 -4.28316C1011 -0.581215 1004.89 -0.00846863 998.711 -4.00377C990.768 -9.13061 982.81 -14.2435 974.954 -19.4821C970.446 -22.4855 966.518 -26.2853 963.256 -30.4203C953.704 -42.5179 942.398 -52.8275 929.512 -61.4048C915.234 -70.9041 903.232 -82.2474 894.579 -96.8177C892.651 -100.059 889.94 -102.755 887.302 -105.507C881.837 -111.22 875.054 -115.341 868.835 -120.161C868.111 -120.161 867.386 -120.161 866.661 -120.161C866.98 -118.596 868.401 -118.024 869.546 -117.185Z" fill="#2F80ED"/>
<path d="M541.827 137.298C536.507 139.799 531.405 139.547 527.347 135.691C517.533 126.388 506.865 117.824 499.009 106.719C497.269 104.26 495.907 101.424 493.095 99.7756C493.095 100.712 493.095 101.648 493.095 102.584C493.675 103.17 494.385 103.673 494.82 104.344C502.734 116.441 514.026 125.591 524.274 135.65C529.796 141.07 536.16 141.894 543.219 138.639C563.323 129.377 562.512 103.17 548.103 90.6116C542.682 85.8899 536.116 83.1379 529.216 81.2101C517.78 78.025 510.547 71.124 507.242 60.0042C504.111 49.4711 504.27 39.0638 507.213 28.6145C508.72 23.2642 511.924 18.8358 516.432 15.5111C519.65 13.1502 522.099 10.3842 523.433 6.79406C525.085 2.33776 525.448 -2.34206 522.23 -6.19766C519.316 -9.67609 514.924 -9.87167 510.532 -9.29891C504.473 -8.51662 498.777 -6.61675 493.095 -4.57719C493.095 -4.11619 493.095 -3.64122 493.095 -3.18023C495.298 -3.78092 497.545 -4.26986 499.704 -5.01025C503.604 -6.35133 507.604 -7.21744 511.677 -7.8321C518.302 -8.83791 522.94 -5.09406 522.795 1.35989C522.679 6.48673 520.027 10.4122 515.895 13.4995C510.445 17.5646 506.706 22.7054 505.227 29.2711C503.502 36.9404 502.661 44.6097 503.836 52.5026C506.082 67.5897 512.663 79.1006 529.231 83.0121C530.057 83.2077 530.854 83.5011 531.637 83.7944C538.74 86.3509 545.248 89.6896 550.191 95.5289C562.048 109.498 558.004 129.712 541.827 137.298Z" fill="#2F80ED"/>
<path d="M935.02 102.067C935.832 106.844 935.455 111.608 935.658 116.371C935.933 122.979 937.528 125.591 942.514 126.96C950.515 129.154 958.835 128.874 966.996 128.972C977.548 129.084 987.854 126.597 998.03 123.971C1009.02 121.121 1017.86 124.32 1024.69 132.814C1029.8 139.17 1034.69 145.694 1039.59 152.203C1046.17 160.934 1052.89 161.591 1061.61 155.528C1065.4 152.888 1068.64 149.493 1071.46 145.791C1075.84 140.064 1079.54 133.875 1084.32 128.427C1090.42 121.498 1098.18 116.86 1106.71 113.284C1114.28 110.113 1120.24 105.294 1124.43 98.3507C1126.86 94.3135 1130.07 90.7652 1133.69 87.6639C1140.88 81.5173 1146.46 74.323 1150.11 65.7317C1153.37 58.0763 1156.69 50.435 1161.11 43.2965C1164.67 37.555 1167.72 31.6738 1166.93 24.5493C1166.4 19.9394 1163.94 16.447 1159.37 14.8544C1152.69 12.5355 1146.49 13.6391 1140.65 17.1734C1132.49 22.1186 1128.35 30.1791 1123.79 37.8344C1118.74 46.286 1116.21 55.7434 1112.41 64.6979C1109.21 72.2695 1103.21 75.1891 1094.89 73.4848C1085.83 71.6269 1079.09 66.7096 1074.69 58.8587C1072.85 55.5758 1071.13 52.2231 1069.2 48.9961C1066.11 43.8274 1061.72 40.9357 1055.2 41.5503C1050.7 41.9694 1047.26 44.1906 1044.07 46.9286C1038.24 51.9158 1033.75 58.0484 1028.95 63.8877C1022.61 71.5849 1015.93 73.6385 1006.6 70.1042C1000 67.6036 993.971 64.1392 989.057 59.152C978.838 48.8005 967.866 39.3711 955.24 31.7716C947.341 27.008 940.919 20.7077 936.122 12.9406C932.904 7.72997 929.555 2.58915 926.482 -2.70532C921.061 -12.023 914.393 -20.2092 904.508 -25.4478C895.898 -30.0159 887.679 -35.1427 879.866 -40.8702C869.125 -48.7351 857.515 -52.5488 844.759 -46.0949C833.207 -40.2556 822.016 -33.7178 810.884 -27.1521C805.941 -24.2325 803.883 -19.4688 805.101 -13.8251C805.797 -10.6261 807.101 -7.60864 809.087 -4.8706C814.407 2.44946 821.219 4.39123 829.641 0.57753C837.57 -3.01265 845.745 -5.16397 852.963 -4.56328C862.82 -4.54931 871.024 -4.0464 878.968 -1.74142C887.114 0.605473 892.781 5.48086 894.448 13.7788C896.579 24.3119 892.883 32.7914 884.128 39.2873C872.546 47.8785 864.371 48.6748 853.137 40.9636C851.065 39.5387 848.963 38.1557 846.919 36.7169C844.092 34.7192 841.338 32.5958 838.135 31.143C832.482 28.5726 826.466 29.0615 822.828 32.5679C817.871 37.3455 816.494 43.4223 816.871 49.9042C817.349 57.9925 821.277 64.7678 826.756 70.4953C838.236 82.4952 845.846 83.6128 858.356 79.6733C861.226 78.7653 864.081 77.7455 867.125 77.4522C879.634 76.2368 892.173 75.6501 904.74 76.0412C920.771 76.5162 932.425 86.7 935.02 102.067ZM897.434 74.295C890.708 74.9376 883.925 74.6862 877.156 75.0494C870.328 75.4126 863.588 75.7619 857.225 78.2205C847.441 81.9923 839.135 79.4778 831.902 72.8841C824.915 66.514 819.393 59.18 818.596 49.513C818.117 43.6877 819.755 38.3932 823.988 34.0906C827.249 30.7798 831.757 30.2629 836.729 32.4841C840.498 34.1604 843.643 36.7727 846.991 39.0637C849.557 40.8239 852.123 42.5981 854.79 44.1906C863.095 49.1777 871.387 48.8005 879.895 44.4001C892.839 37.6947 899.058 25.6949 896.043 12.6892C894.071 4.18169 888.375 -0.861336 879.997 -3.25013C871.691 -5.62497 863.124 -6.12786 853.239 -6.01611C845.18 -6.7565 836.526 -4.60518 828.177 -0.735603C821.872 2.18404 817.74 1.26204 812.783 -3.55747C809.507 -6.72856 807.521 -10.5981 806.681 -14.9008C805.637 -20.2651 808.869 -23.8413 813.174 -26.4396C819.523 -30.2813 826.394 -33.2568 832.67 -37.2521C837.41 -40.2695 842.165 -43.273 847.441 -45.4383C855.746 -48.8469 864.009 -48.5675 871.401 -43.8877C883.838 -36.0228 896.231 -28.102 908.769 -20.3908C917.553 -14.9986 922.148 -6.12787 927.28 2.18403C932.657 10.8871 937.499 19.9254 945.485 26.8823C948.297 29.3269 951.283 31.5202 954.429 33.434C966.184 40.5864 976.635 49.1638 986.101 58.9285C991.13 64.1252 997.015 68.1484 1003.81 70.8725C1014.32 75.0773 1023.28 74.3789 1030.8 64.6979C1035.06 59.2079 1039.36 53.6759 1044.63 48.9682C1046.15 47.6131 1047.72 46.3419 1049.49 45.3221C1056.62 41.2151 1063 42.8355 1067.48 49.6108C1070.85 54.7237 1072.72 60.6887 1076.93 65.3266C1083.88 72.9959 1092.64 76.4324 1103.15 75.0913C1108.76 74.3649 1112.02 70.6071 1113.99 65.8015C1117.64 56.9169 1120.21 47.5992 1125.18 39.2453C1129.8 31.4922 1133.94 23.2921 1142.3 18.3608C1145.88 16.2514 1149.78 14.7427 1153.98 15.3154C1164.48 16.7543 1167.01 22.873 1164.53 32.3583C1163.61 35.8787 1161.55 39.0079 1159.64 42.0951C1155.21 49.2476 1151.91 56.875 1148.63 64.5303C1144.97 73.1076 1139.41 80.302 1132.2 86.4207C1128.66 89.4101 1125.54 92.9025 1123.17 96.8559C1118.93 103.911 1112.9 108.828 1105.19 111.999C1096.63 115.533 1088.96 120.297 1082.86 127.212C1078.06 132.646 1074.38 138.849 1070 144.576C1067.24 148.18 1064.04 151.379 1060.42 154.089C1052.59 159.929 1047.01 158.951 1041.17 151.044C1036.6 144.869 1031.83 138.849 1027.16 132.758C1019.37 122.588 1009.34 119.431 996.841 122.518C986.883 124.991 976.838 127.533 966.518 127.379C958.966 127.268 951.269 127.533 943.833 125.535C940.369 124.613 938.325 122.714 937.702 119.054C937.006 114.849 937.31 110.672 937.238 106.481C936.962 90.5417 926.613 77.9691 910.741 74.9656C906.421 74.1554 901.971 73.862 897.434 74.295Z" fill="#2F80ED"/>
<path d="M662.991 211.127C661.048 219.355 663.918 224.272 672.427 225.697C683.008 227.458 693.619 227.43 703.954 224.021C709.331 222.247 713.346 218.88 715.84 213.893C717.985 209.604 718.782 205.008 719.13 200.357C719.942 189.796 722.725 179.961 729.711 171.495C731.581 169.218 733.451 166.816 734.35 164.008C736.495 157.246 734.944 153.698 729.436 151.686C727.276 150.89 725.058 150.443 722.768 150.108C716.39 149.144 709.983 149.507 703.577 149.437C696.097 149.507 688.574 148.976 681.196 150.764C675.645 152.106 671.441 155.025 670.151 160.669C669.093 165.321 668.339 170.029 669.296 174.862C669.934 178.075 669.586 181.344 669.325 184.613C668.629 193.777 665.078 202.284 662.991 211.127ZM670.919 185.633C671.224 182.014 671.659 178.34 670.992 174.834C670.195 170.671 670.774 166.676 671.47 162.694C672.456 157.023 676.312 153.754 681.979 152.343C689.111 150.583 696.387 150.932 703.635 150.96C709.795 151.03 715.984 150.639 722.101 151.672C722.333 151.714 722.594 151.686 722.826 151.728C733.292 153.475 737.031 158.126 730.363 167.235C724.957 174.625 719.913 182.126 718.652 191.36C718.086 195.509 717.579 199.672 716.941 203.821C715.086 215.793 709.737 221.465 697.634 223.965C689.763 225.586 681.776 225.725 673.847 224.286C665.44 222.764 662.86 218.713 664.875 210.792C666.991 202.452 670.18 194.336 670.919 185.633Z" fill="#2F80ED"/>
<path d="M784.575 122.588C779.27 124.236 774.835 127.24 773.762 132.869C772.53 139.351 774.748 144.883 780.357 148.851C791.185 156.478 803.694 160.096 816.682 162.01C825.248 163.281 828.974 160.208 830.699 152.064C831.061 150.359 831.075 148.599 831.249 146.867C831.206 146.867 831.148 146.853 831.104 146.853C831.104 145.917 831.177 144.981 831.09 144.059C830.336 135.3 827.843 127.505 818.566 123.566C807.376 118.802 795.997 119.04 784.575 122.588ZM829.539 146.853C829.713 148.739 829.278 150.904 828.684 153.056C827.118 158.685 823.48 161.507 817.479 160.515C804.665 158.406 792.214 155.039 781.575 147.37C776.936 144.031 774.197 139.505 775.327 133.75C776.328 128.679 780.372 125.955 785.083 124.264C793.2 121.345 801.563 120.856 810.029 122.56C823.103 125.2 829.481 133.051 829.539 146.853Z" fill="#2F80ED"/>
<path d="M866.936 162.806C871.633 162.862 875.358 159.076 875.416 154.173C875.488 148.837 872.111 145.261 867.038 145.247C861.979 145.247 859.341 148.124 859.341 153.684C859.341 159.51 862.037 162.75 866.936 162.806ZM866.907 146.825C870.429 146.755 873.85 150.332 873.807 154.047C873.778 157.47 870.299 161.144 867.067 161.172C863.617 161.2 860.95 158.015 860.906 153.81C860.877 149.857 863.414 146.895 866.907 146.825Z" fill="#2F80ED"/>
<path d="M916.524 100.055C916.553 95.8919 912.48 92.2598 907.639 92.0922C902.754 91.9246 899.362 94.9001 899.333 99.3564C899.304 104.106 902.45 106.76 908.19 106.802C913.263 106.858 916.495 104.246 916.524 100.055ZM900.957 99.2027C901.087 96.1154 904.247 93.6149 907.769 93.8104C911.465 94.006 914.756 97.1352 914.567 100.236C914.364 103.338 911.625 105.447 907.972 105.293C903.841 105.112 900.812 102.486 900.957 99.2027Z" fill="#2F80ED"/>
<path d="M647.843 83.0539C651.858 83.1517 655.83 82.9562 659.787 82.2856C671.412 80.3159 680.167 74.6303 685.24 64.1391C689.371 55.5758 690.922 46.5235 689.995 37.1918C688.154 18.8078 671.398 9.0431 655.12 17.3829C644.118 23.0127 632.783 27.441 620.926 30.8496C611.344 33.6016 604.764 39.6924 601.212 48.577C596.762 59.7108 598.328 70.3416 611.504 75.9434C623.129 80.8747 635.29 82.8165 647.843 83.0539ZM601.169 54.5281C603.894 43.6597 610.431 35.9485 621.694 32.4282C631.696 29.299 641.857 26.5889 651.104 21.5179C653.612 20.1489 656.018 18.5704 658.816 17.6484C669.484 14.128 678.152 17.1594 684.385 26.2955C693.488 39.6225 687.502 70.2578 668.571 77.9271C662.005 80.5953 655.163 81.7827 648.017 81.5732C634.87 81.0842 622.056 79.2263 610.185 73.2333C602.604 69.4057 599.154 62.5606 601.169 54.5281Z" fill="#2F80ED"/>
<path d="M953.124 99.7056C957.878 107.109 964.72 110.504 973.591 109.554C984.491 108.395 994.246 102.011 986.433 88.8931C981.983 81.4334 978.403 73.4986 974.04 65.983C966.706 53.3265 955.907 45.9506 939.382 46.4814C934.512 46.23 928.874 46.6491 924.032 50.1415C921.409 52.0413 920.568 54.5559 921.887 57.5314C922.699 59.3474 923.786 60.9819 925.105 62.5604C929.526 67.799 934.715 72.3531 939.005 77.7314C944.499 84.6044 948.427 92.3715 953.124 99.7056ZM924.105 57.8387C922.293 54.9749 923.162 52.8376 925.989 51.0634C930.366 48.3254 935.208 47.7806 938.89 47.9343C954.994 47.7107 965.285 54.7933 972.257 66.6675C977.2 75.0632 981.563 83.7802 986.056 92.4274C989.086 98.2388 987.535 102.402 981.476 105.419C970.866 110.714 961.371 108.367 954.776 98.6997C949.804 91.4076 945.992 83.431 940.426 76.4602C936.136 71.0958 930.874 66.5837 926.569 61.2613C925.685 60.1716 924.858 59.0261 924.105 57.8387Z" fill="#2F80ED"/>
<path d="M677.747 50.2254C677.791 39.846 671.34 32.9311 661.832 34.0207C650.525 35.3059 639.973 39.1475 630.609 45.4059C622.304 50.9658 622.637 58.9843 631.117 64.3766C637.262 68.2741 643.974 70.7188 651.381 71.3893C667.688 72.8701 677.312 63.3428 677.747 50.2254ZM631.58 46.9845C640.712 40.8099 651.018 37.1219 662.006 35.5853C669.673 34.5096 676.124 41.3687 676.167 49.96C676.24 61.9459 664.412 71.515 652.091 69.8946C644.597 68.9167 637.77 66.5838 631.624 62.4767C624.652 57.7969 624.579 51.7201 631.58 46.9845Z" fill="#2F80ED"/>
<path d="M494.081 -5.03809L491.964 -4.18594C491.776 -4.07418 487.21 -1.54569 487.717 1.59747C488.123 4.20978 488.138 13.5415 488.138 13.5694L486.471 32.1909C485.891 34.3422 484.253 40.1954 483.644 41.341C482.905 42.7798 481.137 45.7553 481.122 45.7833L482.412 46.4818C482.485 46.356 484.21 43.4364 484.963 41.9696C485.732 40.4748 487.674 33.3504 487.906 32.4284L489.602 13.6253C489.602 13.2341 489.602 4.08405 489.167 1.37395C488.877 -0.428126 491.617 -2.35593 492.617 -2.91471L494.646 -3.72494L494.081 -5.03809Z" fill="#2F80ED"/>
<path d="M491.253 146.839C489.645 147.118 488.34 148.027 487.093 148.893C486.151 149.549 485.267 150.164 484.281 150.513C483.426 150.82 482.498 150.932 481.6 150.82L481.426 152.231C481.716 152.259 482.006 152.287 482.295 152.287C483.151 152.287 484.006 152.134 484.818 151.854C485.992 151.435 486.992 150.737 487.978 150.052C489.152 149.242 490.253 148.474 491.543 148.236C492.138 148.138 492.79 148.138 493.544 148.25L493.776 146.839C492.833 146.713 492.007 146.699 491.253 146.839Z" fill="#2F80ED"/>
<path d="M493.369 129.908C491.601 129.447 489.934 129.028 488.47 128.078C487.745 127.617 487.079 127.058 486.368 126.472C485.064 125.382 483.701 124.25 481.947 123.761L481.541 125.13C482.991 125.536 484.165 126.513 485.412 127.547C486.122 128.134 486.861 128.749 487.658 129.265C488.803 129.992 490.036 130.453 491.268 130.816C490.485 131.221 489.775 131.78 489.238 132.451C489.079 132.66 488.934 132.87 488.774 133.093C488.659 133.275 488.543 133.442 488.412 133.61C488.035 134.099 487.557 134.518 487.064 134.979C486.296 135.678 485.499 136.39 484.556 136.697C483.629 136.991 482.571 136.893 481.541 136.795L481.396 138.206C481.947 138.262 482.527 138.318 483.121 138.318C483.759 138.318 484.397 138.248 485.035 138.052C486.296 137.647 487.253 136.795 488.093 136.027C488.615 135.552 489.166 135.063 489.615 134.476C489.76 134.281 489.905 134.085 490.036 133.889C490.166 133.694 490.297 133.512 490.441 133.331C491.297 132.241 492.717 131.57 494.138 131.557L499.515 131.543L493.369 129.908Z" fill="#2F80ED"/>
<path d="M499.674 79.4779C496.398 81.2101 494.065 83.2916 492.746 85.6804C490.876 89.061 490.934 93.1681 490.992 96.4649C491.006 97.8479 491.079 102.067 494.253 103.128L494.732 101.787C493.253 101.298 492.514 99.5522 492.47 96.4509C492.412 93.1541 492.354 89.4102 494.05 86.3649C495.239 84.2275 497.37 82.3277 500.385 80.7351C504.965 78.3184 510.372 77.1449 515.575 77.4243L515.662 75.9994C510.169 75.6921 504.501 76.9214 499.674 79.4779Z" fill="#2F80ED"/>
</g>
</g>
</svg>
