<svg width="171" height="48" viewBox="0 0 171 48" fill="none" xmlns="http://www.w3.org/2000/svg">
<rect width="171" height="48" fill="#2F80ED"/>
<path d="M64.7768 28.608V30H56.6488V18.8H64.5528V20.192H58.2488V23.632H63.8648V24.992H58.2488V28.608H64.7768ZM72.364 30L69.916 26.752L67.436 30H65.724L69.068 25.664L65.884 21.52H67.596L69.932 24.576L72.252 21.52H73.932L70.732 25.664L74.108 30H72.364ZM80.2801 21.44C81.1015 21.44 81.8375 21.6213 82.4881 21.984C83.1388 22.3467 83.6455 22.8533 84.0081 23.504C84.3815 24.1547 84.5681 24.9067 84.5681 25.76C84.5681 26.6133 84.3815 27.3707 84.0081 28.032C83.6455 28.6827 83.1388 29.1893 82.4881 29.552C81.8375 29.9147 81.1015 30.096 80.2801 30.096C79.6721 30.096 79.1121 29.9787 78.6001 29.744C78.0988 29.5093 77.6721 29.168 77.3201 28.72V33.104H75.7841V21.52H77.2561V22.864C77.5975 22.3947 78.0295 22.0427 78.5521 21.808C79.0748 21.5627 79.6508 21.44 80.2801 21.44ZM80.1521 28.752C80.6961 28.752 81.1815 28.6293 81.6081 28.384C82.0455 28.128 82.3868 27.776 82.6321 27.328C82.8881 26.8693 83.0161 26.3467 83.0161 25.76C83.0161 25.1733 82.8881 24.656 82.6321 24.208C82.3868 23.7493 82.0455 23.3973 81.6081 23.152C81.1815 22.9067 80.6961 22.784 80.1521 22.784C79.6188 22.784 79.1335 22.912 78.6961 23.168C78.2695 23.4133 77.9281 23.76 77.6721 24.208C77.4268 24.656 77.3041 25.1733 77.3041 25.76C77.3041 26.3467 77.4268 26.8693 77.6721 27.328C77.9175 27.776 78.2588 28.128 78.6961 28.384C79.1335 28.6293 79.6188 28.752 80.1521 28.752ZM86.6904 18.128H88.2264V30H86.6904V18.128ZM94.7911 30.096C93.9485 30.096 93.1911 29.9093 92.5191 29.536C91.8471 29.1627 91.3191 28.6507 90.9351 28C90.5618 27.3387 90.3751 26.592 90.3751 25.76C90.3751 24.928 90.5618 24.1867 90.9351 23.536C91.3191 22.8747 91.8471 22.3627 92.5191 22C93.1911 21.6267 93.9485 21.44 94.7911 21.44C95.6338 21.44 96.3858 21.6267 97.0471 22C97.7191 22.3627 98.2418 22.8747 98.6151 23.536C98.9991 24.1867 99.1911 24.928 99.1911 25.76C99.1911 26.592 98.9991 27.3387 98.6151 28C98.2418 28.6507 97.7191 29.1627 97.0471 29.536C96.3858 29.9093 95.6338 30.096 94.7911 30.096ZM94.7911 28.752C95.3351 28.752 95.8205 28.6293 96.2471 28.384C96.6845 28.128 97.0258 27.776 97.2711 27.328C97.5165 26.8693 97.6391 26.3467 97.6391 25.76C97.6391 25.1733 97.5165 24.656 97.2711 24.208C97.0258 23.7493 96.6845 23.3973 96.2471 23.152C95.8205 22.9067 95.3351 22.784 94.7911 22.784C94.2471 22.784 93.7565 22.9067 93.3191 23.152C92.8925 23.3973 92.5511 23.7493 92.2951 24.208C92.0498 24.656 91.9271 25.1733 91.9271 25.76C91.9271 26.3467 92.0498 26.8693 92.2951 27.328C92.5511 27.776 92.8925 28.128 93.3191 28.384C93.7565 28.6293 94.2471 28.752 94.7911 28.752ZM102.787 22.944C103.054 22.4533 103.449 22.08 103.971 21.824C104.494 21.568 105.129 21.44 105.875 21.44V22.928C105.79 22.9173 105.673 22.912 105.523 22.912C104.691 22.912 104.035 23.1627 103.555 23.664C103.086 24.1547 102.851 24.8587 102.851 25.776V30H101.315V21.52H102.787V22.944ZM115.354 25.808C115.354 25.9253 115.344 26.08 115.322 26.272H108.442C108.538 27.0187 108.864 27.6213 109.418 28.08C109.984 28.528 110.682 28.752 111.514 28.752C112.528 28.752 113.344 28.4107 113.962 27.728L114.81 28.72C114.426 29.168 113.946 29.5093 113.37 29.744C112.805 29.9787 112.17 30.096 111.466 30.096C110.57 30.096 109.776 29.9147 109.082 29.552C108.389 29.1787 107.85 28.6613 107.466 28C107.093 27.3387 106.906 26.592 106.906 25.76C106.906 24.9387 107.088 24.1973 107.45 23.536C107.824 22.8747 108.33 22.3627 108.97 22C109.621 21.6267 110.352 21.44 111.162 21.44C111.973 21.44 112.693 21.6267 113.322 22C113.962 22.3627 114.458 22.8747 114.81 23.536C115.173 24.1973 115.354 24.9547 115.354 25.808ZM111.162 22.736C110.426 22.736 109.808 22.96 109.306 23.408C108.816 23.856 108.528 24.4427 108.442 25.168H113.882C113.797 24.4533 113.504 23.872 113.002 23.424C112.512 22.9653 111.898 22.736 111.162 22.736Z" fill="white"/>
</svg>
