<svg width="16" height="16" viewBox="0 0 16 16" fill="none" xmlns="http://www.w3.org/2000/svg">
<path d="M14.125 0H1.875C0.841064 0 0 0.841064 0 1.875V14.125C0 15.1589 0.841064 16 1.875 16H14.125C15.1589 16 16 15.1589 16 14.125V1.875C16 0.841064 15.1589 0 14.125 0ZM14.75 14.125C14.75 14.4696 14.4696 14.75 14.125 14.75H10.4375V10.1875H12.4384L12.6715 8.25H10.4375V6.15625C10.4375 5.62183 10.8406 5.21875 11.375 5.21875H12.7812V3.40625C12.4111 3.354 11.6971 3.28125 11.375 3.28125C10.6461 3.28125 9.91553 3.58875 9.37061 4.12476C8.8092 4.677 8.5 5.40039 8.5 6.16174V8.25H6.46875V10.1875H8.5V14.75H1.875C1.5304 14.75 1.25 14.4696 1.25 14.125V1.875C1.25 1.5304 1.5304 1.25 1.875 1.25H14.125C14.4696 1.25 14.75 1.5304 14.75 1.875V14.125Z" fill="#4F4F4F"/>
</svg>
