<svg width="64" height="64" viewBox="0 0 64 64" fill="none" xmlns="http://www.w3.org/2000/svg">
<g clip-path="url(#clip0)">
<path d="M16.197 63.9455L17.3753 63.6163C18.5086 63.2995 19.1706 62.124 18.8539 60.9906L5.38266 12.7823C5.19256 12.102 4.73998 11.525 4.12449 11.1784C3.50899 10.8317 2.781 10.7438 2.10067 10.9339L1.9485 10.9764C0.531705 11.3723 -0.295941 12.8417 0.0998964 14.2585L13.5715 62.4668C13.8881 63.6002 15.0636 64.2622 16.197 63.9455Z" fill="#2F80ED"/>
<path d="M63.6362 30.2565C59.3642 28.1264 55.4121 25.4075 51.8955 22.1793C51.5999 21.9087 51.4843 21.4933 51.5976 21.1089C53.34 14.5172 54.634 7.81492 55.4707 1.04826C55.6031 -0.0772587 54.9962 -0.408293 54.3562 0.364121C41.799 15.3821 20.0721 -2.38347 7.13965 11.2662C7.29491 11.5569 7.41706 11.8641 7.50379 12.1821L16.2431 43.4758C29.1976 29.9917 50.8472 47.6469 63.3824 32.6621C64.0224 31.8896 64.1438 30.4772 63.6362 30.2565Z" fill="#2F80ED"/>
</g>
<defs>
<clipPath id="clip0">
<rect width="64" height="64" fill="white"/>
</clipPath>
</defs>
</svg>
