<svg width="64" height="64" viewBox="0 0 64 64" fill="none" xmlns="http://www.w3.org/2000/svg">
<g clip-path="url(#clip0)">
<path d="M61.5447 16.181L60.0438 16.5563C57.7362 17.1332 56.1245 19.1975 56.1245 21.5762V23.626C56.1245 24.5724 55.2195 25.2562 54.3088 24.9955C51.8106 24.2818 49.1548 25.5444 48.1313 27.9325L46.2761 32.2614C45.8682 33.2132 46.3091 34.3155 47.2608 34.7234C48.2127 35.1313 49.315 34.6904 49.7228 33.7387L51.5781 29.4098C51.8598 28.7524 52.5911 28.4048 53.2786 28.6013C56.5856 29.5459 59.8745 27.0673 59.8745 23.626V21.5762C59.8745 20.9214 60.3181 20.3532 60.9533 20.1944L62.4542 19.8192C63.4588 19.5679 64.0696 18.5499 63.8185 17.5454C63.5673 16.5408 62.5495 15.9299 61.5447 16.181Z" fill="#2F80ED"/>
<path d="M52.0816 11.0296L54.4608 6.27122C54.9414 5.3101 55.8649 4.6566 56.9313 4.52335C57.3093 4.47635 55.5387 4.72585 62.3944 3.73072C63.4192 3.58197 64.1294 2.6306 63.9806 1.60585C63.8319 0.581099 62.8806 -0.128901 61.8557 0.0197238L56.4461 0.804974C54.1412 1.09972 52.1463 2.5151 51.1067 4.59422L48.7274 9.35247C48.1807 10.4458 47.0817 11.1251 45.8593 11.1251C41.6252 11.1251 38.3745 14.879 38.9725 19.0657L39.1438 20.2653C39.2775 21.2005 40.0796 21.8753 40.9977 21.8753C42.1435 21.8753 43.0172 20.8622 42.8562 19.7348L42.6848 18.5353C42.4088 16.6032 43.9098 14.8751 45.8593 14.8751C48.5113 14.8751 50.8957 13.4016 52.0816 11.0296Z" fill="#2F80ED"/>
<path d="M26.2594 14.6965C26.5526 15.4296 27.2567 15.8756 28.0009 15.8756C29.3217 15.8756 30.2345 14.537 29.7412 13.3037C29.278 12.1459 30.1239 10.8751 31.3855 10.8751H31.8383C34.568 10.8751 36.9176 8.83723 37.3038 6.13498L37.8565 2.26523C38.003 1.2401 37.2906 0.290354 36.2655 0.143979C35.2414 -0.00239635 34.2908 0.709729 34.1443 1.73498L33.5915 5.60473C33.4676 6.47148 32.7139 7.12523 31.8384 7.12523H31.3856C27.4877 7.1251 24.8077 11.0672 26.2594 14.6965Z" fill="#2F80ED"/>
<path d="M42.1611 3.36633C42.3697 4.37183 43.321 5.03445 44.3661 4.83882C45.3888 4.62558 46.0312 3.66257 45.8386 2.63382C45.6071 1.52357 44.5062 0.89295 43.4548 1.20633C42.4621 1.52983 41.991 2.46245 42.1611 3.36633Z" fill="#2F80ED"/>
<path d="M49.7938 19.4551C49.4227 18.3153 48.2318 17.8684 47.2826 18.2689C46.2817 18.6916 45.8861 19.8114 46.2688 20.7176C46.693 21.7229 47.8157 22.1124 48.7176 21.7314C49.6127 21.3528 50.072 20.3871 49.7938 19.4551Z" fill="#2F80ED"/>
<path d="M60.7938 10.4552C60.4232 9.31672 59.2325 8.86822 58.2826 9.26897C57.2836 9.69084 56.8855 10.8098 57.2688 11.7177C57.6887 12.7127 58.8058 13.1166 59.7176 12.7315C60.6173 12.3508 61.0705 11.3821 60.7938 10.4552Z" fill="#2F80ED"/>
<path d="M56.8391 35.6337C56.6088 34.5298 55.5118 33.8913 54.4553 34.2062C53.3903 34.5533 52.9277 35.6102 53.2066 36.5449C53.5584 37.6246 54.6297 38.0713 55.5441 37.7937C56.5107 37.4846 57.0136 36.5654 56.8391 35.6337Z" fill="#2F80ED"/>
<path d="M35.7936 16.4552C35.4209 15.3103 34.2255 14.8711 33.2824 15.269C32.2746 15.6946 31.8887 16.8182 32.2686 17.7177C32.6927 18.723 33.8155 19.1125 34.7174 18.7315C35.6107 18.3535 36.0722 17.3891 35.7936 16.4552Z" fill="#2F80ED"/>
<path d="M24.1611 2.36634C24.3713 3.37909 25.3283 4.03309 26.3661 3.83884C27.3813 3.62709 28.0326 2.67009 27.8386 1.63384C27.6088 0.531715 26.513 -0.109035 25.4549 0.20634C24.4659 0.528715 23.9903 1.45859 24.1611 2.36634Z" fill="#2F80ED"/>
<path d="M15.9363 27.4423L0.174938 61.3343C-0.158561 62.0513 -0.00631145 62.9006 0.555561 63.4571C1.11243 64.0088 1.96206 64.1607 2.6818 63.8176L35.9927 47.9404C25.9393 45.613 18.0494 37.5754 15.9363 27.4423ZM14.9913 51.0597C14.8894 52.0421 14.0409 52.831 12.94 52.741C11.877 52.6307 11.1574 51.6859 11.2588 50.6897C11.371 49.6084 12.3679 48.8246 13.4913 49.036C14.4934 49.245 15.0839 50.1569 14.9913 51.0597ZM16.9912 43.0598C16.8894 44.0418 16.042 44.831 14.94 44.741C13.877 44.6308 13.1574 43.6859 13.2588 42.6898C13.3703 41.6154 14.3606 40.8233 15.4913 41.036C16.4855 41.2434 17.0849 42.1476 16.9912 43.0598ZM22.9637 48.241C22.7523 49.2545 21.7967 49.9079 20.7587 49.7135C19.7361 49.5003 19.0929 48.5361 19.2862 47.5085C19.5145 46.4085 20.6104 45.7653 21.67 46.081C22.6493 46.4001 23.1355 47.3236 22.9637 48.241Z" fill="#2F80ED"/>
<path d="M21.0685 19.126C20.3411 19.105 19.6862 19.4901 19.3484 20.1185C19.0652 20.6573 19.1255 20.9859 19.1255 22.0001C19.1255 34.6135 29.3871 44.8751 42.0005 44.8751C42.8262 44.8751 43.5797 44.3229 43.8066 43.4975C43.8999 43.1594 43.8755 42.963 43.8755 42.0001C43.8755 29.4095 33.6506 19.1629 21.0685 19.126Z" fill="#2F80ED"/>
</g>
<defs>
<clipPath id="clip0">
<rect width="64" height="64" fill="white"/>
</clipPath>
</defs>
</svg>
