<svg width="16" height="16" viewBox="0 0 16 16" fill="none" xmlns="http://www.w3.org/2000/svg">
<path d="M11.3523 0H4.64775C2.08497 0 0 2.08497 0 4.64775V11.3523C0 13.915 2.08497 16 4.64775 16H11.3523C13.915 16 16 13.915 16 11.3523V4.64775C16 2.08497 13.915 0 11.3523 0ZM14.75 11.3523C14.75 13.2258 13.2258 14.75 11.3523 14.75H4.64775C2.77422 14.75 1.25 13.2258 1.25 11.3523V4.64775C1.25 2.77422 2.77422 1.25 4.64775 1.25H11.3523C13.2258 1.25 14.75 2.77422 14.75 4.64775V11.3523Z" fill="#4F4F4F"/>
<path d="M8 3.6875C5.62206 3.6875 3.6875 5.62206 3.6875 8C3.6875 10.3779 5.62206 12.3125 8 12.3125C10.3779 12.3125 12.3125 10.3779 12.3125 8C12.3125 5.62206 10.3779 3.6875 8 3.6875ZM8 11.0625C6.31134 11.0625 4.9375 9.68866 4.9375 8C4.9375 6.31134 6.31134 4.9375 8 4.9375C9.68866 4.9375 11.0625 6.31134 11.0625 8C11.0625 9.68866 9.68866 11.0625 8 11.0625Z" fill="#4F4F4F"/>
<path d="M12.3125 4.3125C12.6577 4.3125 12.9375 4.03268 12.9375 3.6875C12.9375 3.34232 12.6577 3.0625 12.3125 3.0625C11.9673 3.0625 11.6875 3.34232 11.6875 3.6875C11.6875 4.03268 11.9673 4.3125 12.3125 4.3125Z" fill="#4F4F4F"/>
</svg>
