<svg width="64" height="64" viewBox="0 0 64 64" fill="none" xmlns="http://www.w3.org/2000/svg">
<g clip-path="url(#clip0)">
<path d="M31.9989 16.0003C36.4171 16.0003 39.9987 12.4187 39.9987 8.00047C39.9987 3.58227 36.4171 0.000610352 31.9989 0.000610352C27.5807 0.000610352 23.999 3.58227 23.999 8.00047C23.999 12.4187 27.5807 16.0003 31.9989 16.0003Z" fill="#2F80ED"/>
<path d="M43.9834 37.7439L42.1674 23.6002C41.9634 21.5482 40.2515 20.0002 38.1915 20.0002H35.9995C35.4675 20.0002 34.9596 20.2122 34.5836 20.5842L31.9996 23.1682L29.4157 20.5842C29.0397 20.2122 28.5317 20.0002 27.9997 20.0002H25.8117C23.7477 20.0002 22.0358 21.5482 21.8358 23.5482L20.0158 37.7479C19.9438 38.3159 20.1198 38.8919 20.4998 39.3199C20.8798 39.7519 21.4238 39.9999 21.9998 39.9999H24.1597L25.8317 60.3995C26.0317 62.4475 27.7477 63.9995 29.8116 63.9995H34.1916C36.2555 63.9995 37.9675 62.4475 38.1755 60.3635L39.8435 39.9999H41.9994C42.5754 39.9999 43.1194 39.7519 43.4994 39.3199C43.8834 38.8919 44.0594 38.3159 43.9834 37.7439Z" fill="#2F80ED"/>
<path d="M51.9989 16.0003C56.4171 16.0003 59.9987 12.4187 59.9987 8.00047C59.9987 3.58227 56.4171 0.000610352 51.9989 0.000610352C47.5807 0.000610352 43.999 3.58227 43.999 8.00047C43.999 12.4187 47.5807 16.0003 51.9989 16.0003Z" fill="#2F80ED"/>
<path d="M11.9999 0.000610352C7.58794 0.000610352 4 3.58855 4 8.00047C4 12.4124 7.58794 16.0003 11.9999 16.0003C16.4078 16.0003 19.9997 12.4124 19.9997 8.00047C19.9997 3.58855 16.4078 0.000610352 11.9999 0.000610352Z" fill="#2F80ED"/>
<path d="M63.9835 37.7439L62.1675 23.6042C61.9635 21.5482 60.2555 20.0002 58.1916 20.0002H55.9996C55.4676 20.0002 54.9596 20.2122 54.5836 20.5842L51.9997 23.1682L49.4157 20.5842C49.0397 20.2122 48.5317 20.0002 48.0038 20.0002H45.8118C45.5638 20.0002 45.3398 20.0882 45.1038 20.1322C45.6198 21.0442 46.0238 22.0322 46.1438 23.1402L47.9558 37.2359C48.1797 38.9519 47.6438 40.6799 46.4918 41.9799C45.9478 42.6038 45.2518 43.0438 44.5078 43.3878L45.8358 56.3996C46.0398 58.4516 47.7518 59.9995 49.8157 59.9995H54.1956C56.2596 59.9995 57.9716 58.4476 58.1796 56.3636L59.8435 39.9999H61.9995C62.5755 39.9999 63.1195 39.7519 63.4995 39.3199C63.8835 38.8919 64.0595 38.3159 63.9835 37.7439Z" fill="#2F80ED"/>
<path d="M17.4956 41.9599C16.3597 40.6759 15.8317 38.9519 16.0477 37.2439L17.8676 23.0402C17.9716 21.9762 18.3636 21.0162 18.8636 20.1282C18.6396 20.0882 18.4276 20.0002 18.1916 20.0002H15.9997C15.4677 20.0002 14.9597 20.2122 14.5837 20.5842L11.9997 23.1682L9.41578 20.5842C9.03978 20.2122 8.53179 20.0002 8.0038 20.0002H5.81171C3.74775 20.0002 2.03578 21.5482 1.83578 23.5482L0.0158144 37.7479C-0.0561843 38.3159 0.119813 38.8919 0.499806 39.3199C0.879799 39.7519 1.42779 39.9999 1.99978 39.9999H4.15974L5.83171 56.3996C6.03171 58.4476 7.74768 59.9995 9.81164 59.9995H14.1916C16.2555 59.9995 17.9675 58.4476 18.1755 56.3636L19.5035 43.3838C18.7556 43.0358 18.0556 42.5918 17.4956 41.9599Z" fill="#2F80ED"/>
</g>
<defs>
<clipPath id="clip0">
<rect width="64" height="64" fill="white"/>
</clipPath>
</defs>
</svg>
