<svg width="430" height="64" viewBox="0 0 430 64" fill="none" xmlns="http://www.w3.org/2000/svg">
<rect width="430" height="64" fill="#2F80ED"/>
<path d="M188.048 25.4H190.388V36.02H196.976V38H188.048V25.4ZM202.84 38.126C201.868 38.126 200.992 37.916 200.212 37.496C199.432 37.076 198.82 36.494 198.376 35.75C197.944 34.994 197.728 34.142 197.728 33.194C197.728 32.246 197.944 31.4 198.376 30.656C198.82 29.912 199.432 29.33 200.212 28.91C200.992 28.49 201.868 28.28 202.84 28.28C203.824 28.28 204.706 28.49 205.486 28.91C206.266 29.33 206.872 29.912 207.304 30.656C207.748 31.4 207.97 32.246 207.97 33.194C207.97 34.142 207.748 34.994 207.304 35.75C206.872 36.494 206.266 37.076 205.486 37.496C204.706 37.916 203.824 38.126 202.84 38.126ZM202.84 36.2C203.668 36.2 204.352 35.924 204.892 35.372C205.432 34.82 205.702 34.094 205.702 33.194C205.702 32.294 205.432 31.568 204.892 31.016C204.352 30.464 203.668 30.188 202.84 30.188C202.012 30.188 201.328 30.464 200.788 31.016C200.26 31.568 199.996 32.294 199.996 33.194C199.996 34.094 200.26 34.82 200.788 35.372C201.328 35.924 202.012 36.2 202.84 36.2ZM219.662 28.388V36.542C219.662 39.926 217.934 41.618 214.478 41.618C213.554 41.618 212.678 41.498 211.85 41.258C211.022 41.03 210.338 40.694 209.798 40.25L210.806 38.558C211.226 38.906 211.754 39.182 212.39 39.386C213.038 39.602 213.692 39.71 214.352 39.71C215.408 39.71 216.182 39.47 216.674 38.99C217.166 38.51 217.412 37.778 217.412 36.794V36.29C217.028 36.71 216.56 37.028 216.008 37.244C215.456 37.46 214.85 37.568 214.19 37.568C213.278 37.568 212.45 37.376 211.706 36.992C210.974 36.596 210.392 36.044 209.96 35.336C209.54 34.628 209.33 33.818 209.33 32.906C209.33 31.994 209.54 31.19 209.96 30.494C210.392 29.786 210.974 29.24 211.706 28.856C212.45 28.472 213.278 28.28 214.19 28.28C214.886 28.28 215.516 28.394 216.08 28.622C216.656 28.85 217.136 29.198 217.52 29.666V28.388H219.662ZM214.532 35.66C215.384 35.66 216.08 35.408 216.62 34.904C217.172 34.388 217.448 33.722 217.448 32.906C217.448 32.102 217.172 31.448 216.62 30.944C216.08 30.44 215.384 30.188 214.532 30.188C213.668 30.188 212.96 30.44 212.408 30.944C211.868 31.448 211.598 32.102 211.598 32.906C211.598 33.722 211.868 34.388 212.408 34.904C212.96 35.408 213.668 35.66 214.532 35.66ZM227.594 28.388H229.844V38H227.594V28.388ZM228.728 26.804C228.32 26.804 227.978 26.678 227.702 26.426C227.426 26.162 227.288 25.838 227.288 25.454C227.288 25.07 227.426 24.752 227.702 24.5C227.978 24.236 228.32 24.104 228.728 24.104C229.136 24.104 229.478 24.23 229.754 24.482C230.03 24.722 230.168 25.028 230.168 25.4C230.168 25.796 230.03 26.132 229.754 26.408C229.49 26.672 229.148 26.804 228.728 26.804ZM238.251 28.28C239.463 28.28 240.435 28.634 241.167 29.342C241.899 30.05 242.265 31.1 242.265 32.492V38H240.015V32.78C240.015 31.94 239.817 31.31 239.421 30.89C239.025 30.458 238.461 30.242 237.729 30.242C236.901 30.242 236.247 30.494 235.767 30.998C235.287 31.49 235.047 32.204 235.047 33.14V38H232.797V28.388H234.939V29.63C235.311 29.186 235.779 28.85 236.343 28.622C236.907 28.394 237.543 28.28 238.251 28.28Z" fill="white"/>
</svg>
