<svg width="31" height="41" viewBox="0 0 31 41" fill="none" xmlns="http://www.w3.org/2000/svg">
<g clip-path="url(#clip0)">
<path d="M8.12878 21.7963H5.3129V14.7149H12.0602C12.5595 14.715 13.0584 14.7463 13.5538 14.8087L13.6388 14.7629C14.5246 14.2836 15.466 13.9139 16.442 13.662C17.4225 13.4431 18.4242 13.3323 19.4291 13.3316C19.6255 13.3316 19.8185 13.3316 20.0104 13.3407C19.3805 12.8214 18.6633 12.4169 17.8919 12.146C18.4268 11.8849 18.9229 11.5513 19.3659 11.1548C19.8094 10.8255 20.1035 10.4208 20.3999 9.98063C20.6441 9.52892 20.8301 9.0484 20.9536 8.5504C21.075 7.95854 21.1366 7.35609 21.1375 6.75203C21.1231 6.25989 21.074 5.76935 20.9904 5.28407C20.8681 4.75506 20.695 4.23898 20.4734 3.74294C20.2139 3.23099 19.8785 2.7608 19.4785 2.34815C19.0505 1.85865 18.5386 1.44871 17.9666 1.13742C17.3087 0.768487 16.6005 0.496599 15.8641 0.330274C14.9247 0.0991226 13.9596 -0.0119058 12.992 -0.000129267H0.00970459V26.3466H7.41533C7.44107 25.1391 7.59511 23.9377 7.87488 22.7624C7.9553 22.4309 8.03687 22.1096 8.12878 21.7963ZM5.3129 4.55009H12.282C12.7389 4.5503 13.1951 4.58854 13.6457 4.66442C14.0446 4.7602 14.429 4.90822 14.7888 5.10458C15.1208 5.32496 15.388 5.62915 15.5631 5.98604C15.7481 6.35303 15.8216 6.82977 15.8216 7.37969C15.8282 7.86064 15.7274 8.33705 15.5264 8.77448C15.3381 9.14275 15.0591 9.45745 14.7153 9.6891C14.3644 9.95156 13.9626 10.1388 13.5354 10.239C13.073 10.3259 12.6042 10.3748 12.1337 10.3854H5.3129V4.55009Z" fill="white"/>
<path d="M19.4217 18.1025C19.0256 18.1093 18.6307 18.1475 18.2407 18.2169C17.7599 18.3319 17.291 18.4915 16.8402 18.6936C16.6885 18.7748 16.5369 18.8662 16.3806 18.9623C16.3375 19.256 16.2604 19.5437 16.1509 19.8197C15.9403 20.2466 15.6383 20.6223 15.2662 20.9207C14.8986 21.1867 14.4906 21.3924 14.0576 21.5301C13.6971 22.2356 13.4299 22.9845 13.2626 23.7583C13.0779 24.6042 12.9725 25.4654 12.9478 26.3307C14.0428 26.2866 15.1294 26.1213 16.1876 25.8379C17.3178 25.5436 18.3741 25.0188 19.2896 24.2968C20.1378 23.642 20.82 22.7986 21.2817 21.8342C21.7585 20.8864 21.9791 19.7569 21.9825 18.4844C21.8251 18.4295 21.6632 18.3758 21.492 18.3221C20.8136 18.1643 20.1182 18.0906 19.4217 18.1025Z" fill="white"/>
<path d="M15.4018 19.6779C15.7124 19.4148 16.041 19.1734 16.3852 18.9554C16.4245 18.7173 16.4449 18.4764 16.4461 18.2351C16.4461 17.4646 16.2979 16.8403 16.0773 16.4059C15.8458 15.9664 15.5008 15.5963 15.0778 15.3335C14.6498 15.0717 14.1737 14.8973 13.6773 14.8202L13.5429 14.8042C12.6632 15.2798 11.8595 15.8828 11.1578 16.5934C10.3649 17.3698 9.69372 18.2605 9.16684 19.2355C8.73139 20.0494 8.38216 20.9061 8.12482 21.7918H12.2056C12.7784 21.7981 13.3492 21.7242 13.9013 21.5723C13.9553 21.5563 14.0059 21.5369 14.0576 21.5209C14.0989 21.442 14.1415 21.3654 14.1851 21.2922C14.4898 20.6857 14.9019 20.1388 15.4018 19.6779Z" fill="#2F80ED"/>
<path d="M21.2817 14.9346C21.566 15.4861 21.7533 16.082 21.8354 16.6964C21.9362 17.2782 21.9854 17.8678 21.9825 18.4582V18.4845C22.3394 18.5975 22.6821 18.7509 23.0038 18.9418C23.3965 19.1744 23.7562 19.4582 24.0734 19.7855C24.331 20.0985 24.5652 20.4298 24.7743 20.7767C24.9449 21.096 25.0928 21.4268 25.2166 21.7668L25.4739 22.6483H31.0057C30.9583 22.0029 30.847 21.3638 30.6737 20.7401C30.4482 20.0322 30.1646 19.3439 29.8258 18.6822C29.4048 17.9725 28.9083 17.3098 28.3449 16.7055C27.7232 16.0266 27.002 15.445 26.2057 14.9803C25.3579 14.467 24.3676 14.1 23.2566 13.7696C22.1922 13.5026 21.1005 13.358 20.003 13.3386L20.0225 13.3546C20.5284 13.8072 20.9541 14.3413 21.2817 14.9346Z" fill="#2F80ED"/>
<path d="M24.9891 32.7799C24.7767 33.3745 24.4514 33.923 24.0309 34.3953C23.5351 34.9485 22.9331 35.3974 22.2605 35.7158C21.5229 36.0462 20.6015 36.2291 19.4216 36.2291C18.487 36.2407 17.5634 36.0269 16.7298 35.6061C15.9049 35.1977 15.1944 34.5924 14.6619 33.8443C14.0588 32.9786 13.6214 32.0097 13.3717 30.9861C13.0619 29.7379 12.9132 28.4555 12.9294 27.1698C12.9294 26.8817 12.9351 26.5982 12.9454 26.3307C12.6789 26.3433 12.4078 26.3513 12.1286 26.3513H7.41478C7.40559 26.6211 7.39984 26.8932 7.39984 27.1698C7.39984 29.262 7.65834 31.1713 8.21094 32.8588C8.7647 34.5828 9.53904 36.0508 10.5707 37.2615C11.6186 38.4609 12.9311 39.4028 14.4057 40.0134C15.9176 40.6742 17.688 41.0046 19.6422 41.0046C20.9927 41.0179 22.3369 40.8196 23.6254 40.4169C24.8473 40.0333 25.9855 39.4236 26.9801 38.6197C28.0075 37.7814 28.8702 36.7612 29.5248 35.6106C30.2256 34.3999 30.7047 32.9685 31 31.3176H25.5049C25.3598 31.814 25.1876 32.3022 24.9891 32.7799Z" fill="#2F80ED"/>
<path d="M16.4346 13.662C15.4586 13.914 14.5172 14.2837 13.6313 14.763L13.5463 14.8087L13.6807 14.8247C14.1756 14.9009 14.6504 15.0738 15.0778 15.3335C15.4984 15.5945 15.8421 15.9618 16.0738 16.3979C16.2944 16.838 16.4426 17.4623 16.4426 18.2271C16.4414 18.4684 16.421 18.7093 16.3817 18.9474C16.5334 18.8513 16.685 18.7599 16.8413 18.6787C17.2921 18.4766 17.761 18.317 18.2418 18.202C18.6318 18.1326 19.0267 18.0944 19.4228 18.0876C20.1186 18.0759 20.8132 18.1496 21.4908 18.3072C21.662 18.3609 21.8239 18.4146 21.9813 18.4695V18.4432C21.9842 17.8528 21.935 17.2633 21.8343 16.6814C21.7508 16.0722 21.564 15.4815 21.2817 14.9345C20.9525 14.3417 20.5252 13.8083 20.0179 13.3568L19.9984 13.3408C19.8065 13.3351 19.6135 13.3316 19.4171 13.3316C18.4137 13.3327 17.4136 13.4435 16.4346 13.662Z" fill="#2F80ED"/>
<path d="M12.9478 26.3261C12.9725 25.4608 13.0779 24.5997 13.2626 23.7538C13.4299 22.98 13.6971 22.231 14.0576 21.5255C14.0059 21.5415 13.9554 21.561 13.9014 21.577C13.3493 21.7289 12.7784 21.8028 12.2056 21.7965H8.12829C8.03638 22.1098 7.95366 22.431 7.87898 22.7626C7.59921 23.9378 7.44517 25.1392 7.41943 26.3467H12.1356C12.4101 26.3467 12.6813 26.3387 12.9478 26.3261Z" fill="white"/>
</g>
<defs>
<clipPath id="clip0">
<rect width="31" height="41" fill="white"/>
</clipPath>
</defs>
</svg>
