<svg width="31" height="41" viewBox="0 0 31 41" fill="none" xmlns="http://www.w3.org/2000/svg">
<g clip-path="url(#clip0)">
<path d="M8.12884 21.7963H5.31296V14.7149H12.0603C12.5596 14.715 13.0584 14.7463 13.5538 14.8087L13.6388 14.7629C14.5247 14.2836 15.4661 13.9139 16.4421 13.662C17.4226 13.4431 18.4243 13.3323 19.4291 13.3316C19.6256 13.3316 19.8186 13.3316 20.0105 13.3407C19.3805 12.8214 18.6633 12.4169 17.892 12.146C18.4269 11.8849 18.9229 11.5513 19.366 11.1548C19.8094 10.8255 20.1035 10.4208 20.3999 9.98063C20.6442 9.52892 20.8302 9.0484 20.9537 8.5504C21.0751 7.95854 21.1366 7.35609 21.1375 6.75203C21.1232 6.25989 21.074 5.76935 20.9905 5.28407C20.8682 4.75506 20.695 4.23898 20.4735 3.74294C20.214 3.23099 19.8786 2.7608 19.4785 2.34815C19.0506 1.85865 18.5387 1.44871 17.9666 1.13742C17.3088 0.768487 16.6006 0.496599 15.8642 0.330274C14.9248 0.0991226 13.9596 -0.0119058 12.992 -0.000129267H0.00976562V26.3466H7.41539C7.44113 25.1391 7.59517 23.9377 7.87494 22.7624C7.95536 22.4309 8.03693 22.1096 8.12884 21.7963ZM5.31296 4.55009H12.282C12.739 4.5503 13.1952 4.58854 13.6457 4.66442C14.0446 4.7602 14.429 4.90822 14.7889 5.10458C15.1209 5.32496 15.3881 5.62915 15.5632 5.98604C15.7482 6.35303 15.8217 6.82977 15.8217 7.37969C15.8283 7.86064 15.7275 8.33705 15.5264 8.77448C15.3382 9.14275 15.0591 9.45745 14.7153 9.6891C14.3644 9.95156 13.9627 10.1388 13.5354 10.239C13.073 10.3259 12.6043 10.3748 12.1338 10.3854H5.31296V4.55009Z" fill="#1E2222"/>
<path d="M19.4216 18.1025C19.0255 18.1093 18.6306 18.1475 18.2406 18.2169C17.7598 18.3319 17.2909 18.4915 16.8401 18.6936C16.6885 18.7748 16.5368 18.8662 16.3806 18.9623C16.3375 19.256 16.2604 19.5437 16.1508 19.8197C15.9402 20.2466 15.6383 20.6223 15.2662 20.9207C14.8985 21.1867 14.4905 21.3924 14.0576 21.5301C13.697 22.2356 13.4298 22.9845 13.2625 23.7583C13.0778 24.6042 12.9724 25.4654 12.9478 26.3307C14.0427 26.2866 15.1294 26.1213 16.1876 25.8379C17.3177 25.5436 18.374 25.0188 19.2895 24.2968C20.1377 23.642 20.82 22.7986 21.2817 21.8342C21.7585 20.8864 21.979 19.7569 21.9825 18.4844C21.8251 18.4295 21.6631 18.3758 21.4919 18.3221C20.8135 18.1643 20.1182 18.0906 19.4216 18.1025Z" fill="#1E2222"/>
<path d="M15.4017 19.6779C15.7124 19.4148 16.041 19.1734 16.3851 18.9554C16.4244 18.7173 16.4448 18.4764 16.446 18.2351C16.446 17.4646 16.2978 16.8403 16.0772 16.4059C15.8457 15.9664 15.5007 15.5963 15.0777 15.3335C14.6497 15.0717 14.1736 14.8973 13.6773 14.8202L13.5428 14.8042C12.6632 15.2798 11.8594 15.8828 11.1578 16.5934C10.3648 17.3698 9.69366 18.2605 9.16678 19.2355C8.73133 20.0494 8.3821 20.9061 8.12476 21.7918H12.2055C12.7783 21.7981 13.3492 21.7242 13.9013 21.5723C13.9553 21.5563 14.0058 21.5369 14.0575 21.5209C14.0989 21.442 14.1414 21.3654 14.1851 21.2922C14.4897 20.6857 14.9019 20.1388 15.4017 19.6779Z" fill="#2F80ED"/>
<path d="M21.2816 14.9346C21.5659 15.4861 21.7532 16.082 21.8354 16.6964C21.9361 17.2782 21.9853 17.8678 21.9824 18.4582V18.4845C22.3394 18.5975 22.682 18.7509 23.0038 18.9418C23.3964 19.1744 23.7561 19.4582 24.0734 19.7855C24.3309 20.0985 24.5651 20.4298 24.7742 20.7767C24.9449 21.096 25.0927 21.4268 25.2165 21.7668L25.4739 22.6483H31.0057C30.9582 22.0029 30.847 21.3638 30.6736 20.7401C30.4481 20.0322 30.1646 19.3439 29.8258 18.6822C29.4047 17.9725 28.9082 17.3098 28.3449 16.7055C27.7232 16.0266 27.002 15.445 26.2057 14.9803C25.3578 14.467 24.3675 14.1 23.2565 13.7696C22.1921 13.5026 21.1005 13.358 20.0029 13.3386L20.0225 13.3546C20.5283 13.8072 20.954 14.3413 21.2816 14.9346Z" fill="#2F80ED"/>
<path d="M24.9891 32.7799C24.7768 33.3745 24.4515 33.923 24.031 34.3953C23.5351 34.9485 22.9332 35.3974 22.2606 35.7158C21.523 36.0462 20.6016 36.2291 19.4217 36.2291C18.487 36.2407 17.5635 36.0269 16.7299 35.6061C15.905 35.1977 15.1945 34.5924 14.6619 33.8443C14.0588 32.9786 13.6215 32.0097 13.3717 30.9861C13.0619 29.7379 12.9133 28.4555 12.9294 27.1698C12.9294 26.8817 12.9352 26.5982 12.9455 26.3307C12.679 26.3433 12.4078 26.3513 12.1287 26.3513H7.41484C7.40565 26.6211 7.3999 26.8932 7.3999 27.1698C7.3999 29.262 7.6584 31.1713 8.21101 32.8588C8.76476 34.5828 9.5391 36.0508 10.5708 37.2615C11.6187 38.4609 12.9312 39.4028 14.4057 40.0134C15.9176 40.6742 17.6881 41.0046 19.6423 41.0046C20.9928 41.0179 22.3369 40.8196 23.6254 40.4169C24.8474 40.0333 25.9855 39.4236 26.9801 38.6197C28.0075 37.7814 28.8703 36.7612 29.5249 35.6106C30.2257 34.3999 30.7048 32.9685 31 31.3176H25.505C25.3599 31.814 25.1877 32.3022 24.9891 32.7799Z" fill="#2F80ED"/>
<path d="M16.4347 13.662C15.4586 13.914 14.5172 14.2837 13.6314 14.763L13.5464 14.8087L13.6808 14.8247C14.1757 14.9009 14.6505 15.0738 15.0778 15.3335C15.4985 15.5945 15.8422 15.9618 16.0739 16.3979C16.2945 16.838 16.4427 17.4623 16.4427 18.2271C16.4415 18.4684 16.4211 18.7093 16.3818 18.9474C16.5335 18.8513 16.6851 18.7599 16.8414 18.6787C17.2922 18.4766 17.761 18.317 18.2418 18.202C18.6318 18.1326 19.0268 18.0944 19.4229 18.0876C20.1186 18.0759 20.8132 18.1496 21.4908 18.3072C21.662 18.3609 21.824 18.4146 21.9814 18.4695V18.4432C21.9843 17.8528 21.9351 17.2633 21.8344 16.6814C21.7509 16.0722 21.564 15.4815 21.2817 14.9345C20.9525 14.3417 20.5253 13.8083 20.018 13.3568L19.9985 13.3408C19.8066 13.3351 19.6136 13.3316 19.4171 13.3316C18.4138 13.3327 17.4136 13.4435 16.4347 13.662Z" fill="#2F80ED"/>
<path d="M12.9478 26.3261C12.9725 25.4608 13.0779 24.5997 13.2626 23.7538C13.4299 22.98 13.6971 22.231 14.0576 21.5255C14.0059 21.5415 13.9554 21.561 13.9014 21.577C13.3493 21.7289 12.7784 21.8028 12.2056 21.7965H8.12829C8.03638 22.1098 7.95366 22.431 7.87898 22.7626C7.59921 23.9378 7.44517 25.1392 7.41943 26.3467H12.1356C12.4101 26.3467 12.6813 26.3387 12.9478 26.3261Z" fill="#1E2222"/>
</g>
<defs>
<clipPath id="clip0">
<rect width="31" height="41" fill="white"/>
</clipPath>
</defs>
</svg>
