<svg width="431" height="64" viewBox="0 0 431 64" fill="none" xmlns="http://www.w3.org/2000/svg">
<rect width="431" height="64" fill="#2F80ED"/>
<path d="M185.599 38.18C184.627 38.18 183.685 38.042 182.773 37.766C181.873 37.49 181.159 37.124 180.631 36.668L181.441 34.85C181.957 35.258 182.587 35.594 183.331 35.858C184.087 36.11 184.843 36.236 185.599 36.236C186.535 36.236 187.231 36.086 187.687 35.786C188.155 35.486 188.389 35.09 188.389 34.598C188.389 34.238 188.257 33.944 187.993 33.716C187.741 33.476 187.417 33.29 187.021 33.158C186.625 33.026 186.085 32.876 185.401 32.708C184.441 32.48 183.661 32.252 183.061 32.024C182.473 31.796 181.963 31.442 181.531 30.962C181.111 30.47 180.901 29.81 180.901 28.982C180.901 28.286 181.087 27.656 181.459 27.092C181.843 26.516 182.413 26.06 183.169 25.724C183.937 25.388 184.873 25.22 185.977 25.22C186.745 25.22 187.501 25.316 188.245 25.508C188.989 25.7 189.631 25.976 190.171 26.336L189.433 28.154C188.881 27.83 188.305 27.584 187.705 27.416C187.105 27.248 186.523 27.164 185.959 27.164C185.035 27.164 184.345 27.32 183.889 27.632C183.445 27.944 183.223 28.358 183.223 28.874C183.223 29.234 183.349 29.528 183.601 29.756C183.865 29.984 184.195 30.164 184.591 30.296C184.987 30.428 185.527 30.578 186.211 30.746C187.147 30.962 187.915 31.19 188.515 31.43C189.115 31.658 189.625 32.012 190.045 32.492C190.477 32.972 190.693 33.62 190.693 34.436C190.693 35.132 190.501 35.762 190.117 36.326C189.745 36.89 189.175 37.34 188.407 37.676C187.639 38.012 186.703 38.18 185.599 38.18ZM192.797 28.388H195.047V38H192.797V28.388ZM193.931 26.804C193.523 26.804 193.181 26.678 192.905 26.426C192.629 26.162 192.491 25.838 192.491 25.454C192.491 25.07 192.629 24.752 192.905 24.5C193.181 24.236 193.523 24.104 193.931 24.104C194.339 24.104 194.681 24.23 194.957 24.482C195.233 24.722 195.371 25.028 195.371 25.4C195.371 25.796 195.233 26.132 194.957 26.408C194.693 26.672 194.351 26.804 193.931 26.804ZM203.454 28.28C204.666 28.28 205.638 28.634 206.37 29.342C207.102 30.05 207.468 31.1 207.468 32.492V38H205.218V32.78C205.218 31.94 205.02 31.31 204.624 30.89C204.228 30.458 203.664 30.242 202.932 30.242C202.104 30.242 201.45 30.494 200.97 30.998C200.49 31.49 200.25 32.204 200.25 33.14V38H198V28.388H200.142V29.63C200.514 29.186 200.982 28.85 201.546 28.622C202.11 28.394 202.746 28.28 203.454 28.28ZM219.951 28.388V36.542C219.951 39.926 218.223 41.618 214.767 41.618C213.843 41.618 212.967 41.498 212.139 41.258C211.311 41.03 210.627 40.694 210.087 40.25L211.095 38.558C211.515 38.906 212.043 39.182 212.679 39.386C213.327 39.602 213.981 39.71 214.641 39.71C215.697 39.71 216.471 39.47 216.963 38.99C217.455 38.51 217.701 37.778 217.701 36.794V36.29C217.317 36.71 216.849 37.028 216.297 37.244C215.745 37.46 215.139 37.568 214.479 37.568C213.567 37.568 212.739 37.376 211.995 36.992C211.263 36.596 210.681 36.044 210.249 35.336C209.829 34.628 209.619 33.818 209.619 32.906C209.619 31.994 209.829 31.19 210.249 30.494C210.681 29.786 211.263 29.24 211.995 28.856C212.739 28.472 213.567 28.28 214.479 28.28C215.175 28.28 215.805 28.394 216.369 28.622C216.945 28.85 217.425 29.198 217.809 29.666V28.388H219.951ZM214.821 35.66C215.673 35.66 216.369 35.408 216.909 34.904C217.461 34.388 217.737 33.722 217.737 32.906C217.737 32.102 217.461 31.448 216.909 30.944C216.369 30.44 215.673 30.188 214.821 30.188C213.957 30.188 213.249 30.44 212.697 30.944C212.157 31.448 211.887 32.102 211.887 32.906C211.887 33.722 212.157 34.388 212.697 34.904C213.249 35.408 213.957 35.66 214.821 35.66ZM237.189 28.388V38H235.047V36.776C234.687 37.208 234.237 37.544 233.697 37.784C233.157 38.012 232.575 38.126 231.951 38.126C230.667 38.126 229.653 37.772 228.909 37.064C228.177 36.344 227.811 35.282 227.811 33.878V28.388H230.061V33.572C230.061 34.436 230.253 35.084 230.637 35.516C231.033 35.936 231.591 36.146 232.311 36.146C233.115 36.146 233.751 35.9 234.219 35.408C234.699 34.904 234.939 34.184 234.939 33.248V28.388H237.189ZM245.463 28.28C246.399 28.28 247.233 28.484 247.965 28.892C248.709 29.3 249.291 29.876 249.711 30.62C250.131 31.364 250.341 32.222 250.341 33.194C250.341 34.166 250.131 35.03 249.711 35.786C249.291 36.53 248.709 37.106 247.965 37.514C247.233 37.922 246.399 38.126 245.463 38.126C244.167 38.126 243.141 37.694 242.385 36.83V41.492H240.135V28.388H242.277V29.648C242.649 29.192 243.105 28.85 243.645 28.622C244.197 28.394 244.803 28.28 245.463 28.28ZM245.211 36.2C246.039 36.2 246.717 35.924 247.245 35.372C247.785 34.82 248.055 34.094 248.055 33.194C248.055 32.294 247.785 31.568 247.245 31.016C246.717 30.464 246.039 30.188 245.211 30.188C244.671 30.188 244.185 30.314 243.753 30.566C243.321 30.806 242.979 31.154 242.727 31.61C242.475 32.066 242.349 32.594 242.349 33.194C242.349 33.794 242.475 34.322 242.727 34.778C242.979 35.234 243.321 35.588 243.753 35.84C244.185 36.08 244.671 36.2 245.211 36.2Z" fill="white"/>
</svg>
