<svg width="125" height="24" viewBox="0 0 125 24" fill="none" xmlns="http://www.w3.org/2000/svg">
<g clip-path="url(#clip0)">
<g clip-path="url(#clip1)">
<path d="M15.6938 10.9215L10.3916 8.02039C10.0867 7.85358 9.72638 7.85981 9.42755 8.03687C9.12854 8.21411 8.9502 8.52722 8.9502 8.87476V14.6272C8.9502 14.9731 9.12744 15.2856 9.42444 15.4631C9.57953 15.5557 9.75147 15.6022 9.92377 15.6022C10.0816 15.6022 10.2398 15.5632 10.3854 15.4849L15.6878 12.6337C16.0025 12.4644 16.199 12.1371 16.2005 11.7795C16.2017 11.4219 16.0076 11.0933 15.6938 10.9215ZM10.3566 13.9036V9.60425L14.3194 11.7726L10.3566 13.9036Z" fill="#2F80ED"/>
<path d="M23.8234 7.19658L23.8223 7.18559C23.802 6.99242 23.5996 5.27416 22.7643 4.4002C21.7988 3.37225 20.7042 3.24737 20.1778 3.1875C20.1342 3.18256 20.0943 3.17798 20.0586 3.17322L20.0166 3.16882C16.8438 2.93811 12.0521 2.90662 12.0042 2.90643L12 2.90625L11.9957 2.90643C11.9478 2.90662 7.1561 2.93811 3.9547 3.16882L3.9124 3.17322C3.87834 3.17779 3.84081 3.18201 3.79997 3.18677C3.27959 3.24682 2.19671 3.37189 1.22845 4.43701C0.43286 5.30163 0.20288 6.98308 0.17926 7.17204L0.176513 7.19658C0.169372 7.27696 0 9.19059 0 11.1117V12.9076C0 14.8287 0.169372 16.7424 0.176513 16.8229L0.177795 16.835C0.198119 17.0251 0.400267 18.7119 1.23175 19.5862C2.13958 20.5797 3.28746 20.7112 3.90489 20.7819C4.00249 20.793 4.08653 20.8025 4.14384 20.8126L4.19932 20.8203C6.03129 20.9946 11.7751 21.0805 12.0186 21.084L12.026 21.0842L12.0333 21.084C12.0813 21.0838 16.8727 21.0523 20.0456 20.8216L20.0875 20.8172C20.1276 20.8119 20.1726 20.8071 20.2221 20.802C20.7395 20.7471 21.8166 20.633 22.7715 19.5823C23.567 18.7175 23.7972 17.0361 23.8206 16.8473L23.8234 16.8228C23.8305 16.7422 24.0001 14.8287 24.0001 12.9076V11.1117C23.9999 9.19059 23.8305 7.27714 23.8234 7.19658ZM22.5935 12.9076C22.5935 14.6857 22.4382 16.517 22.4236 16.6851C22.3639 17.1481 22.1213 18.212 21.7336 18.6333C21.136 19.2908 20.522 19.356 20.0738 19.4034C20.0196 19.4091 19.9694 19.4146 19.924 19.4203C16.8552 19.6422 12.2444 19.6763 12.032 19.6775C11.7938 19.6741 6.13401 19.5875 4.35789 19.4225C4.26689 19.4076 4.16856 19.3963 4.06493 19.3846C3.53923 19.3243 2.81963 19.2419 2.26629 18.6333L2.25329 18.6194C1.87243 18.2226 1.63677 17.2278 1.5769 16.6906C1.56573 16.5635 1.40643 14.7106 1.40643 12.9076V11.1117C1.40643 9.33561 1.56133 7.50639 1.57635 7.33482C1.64758 6.78935 1.89477 5.78997 2.26629 5.38604C2.88225 4.70855 3.53172 4.63348 3.96129 4.58386C4.0023 4.57909 4.04057 4.5747 4.07591 4.57012C7.18942 4.3471 11.8333 4.31396 12 4.31268C12.1666 4.31378 16.8088 4.3471 19.8947 4.57012C19.9326 4.57488 19.974 4.57964 20.0185 4.58477C20.4603 4.63512 21.1281 4.7113 21.7409 5.36498L21.7466 5.37102C22.1275 5.76781 22.3631 6.78001 22.423 7.32805C22.4336 7.44798 22.5935 9.30485 22.5935 11.1117V12.9076Z" fill="#2F80ED"/>
</g>
<path d="M47.0438 16.4339V17.9999H37.8998V5.39994H46.7918V6.96594H39.6998V10.8359H46.0178V12.3659H39.6998V16.4339H47.0438ZM55.5794 17.9999L52.8254 14.3459L50.0354 17.9999H48.1094L51.8714 13.1219L48.2894 8.45994H50.2154L52.8434 11.8979L55.4534 8.45994H57.3434L53.7434 13.1219L57.5414 17.9999H55.5794ZM63.2687 18.1079C62.2967 18.1079 61.4267 17.8979 60.6587 17.4779C59.9027 17.0579 59.3087 16.4819 58.8767 15.7499C58.4447 15.0059 58.2287 14.1659 58.2287 13.2299C58.2287 12.2939 58.4447 11.4599 58.8767 10.7279C59.3087 9.98394 59.9027 9.40794 60.6587 8.99994C61.4267 8.57994 62.2967 8.36994 63.2687 8.36994C64.1327 8.36994 64.9007 8.54394 65.5727 8.89194C66.2567 9.23994 66.7847 9.74394 67.1567 10.4039L65.8427 11.2499C65.5427 10.7939 65.1707 10.4519 64.7267 10.2239C64.2827 9.99594 63.7907 9.88194 63.2507 9.88194C62.6267 9.88194 62.0627 10.0199 61.5587 10.2959C61.0667 10.5719 60.6767 10.9679 60.3887 11.4839C60.1127 11.9879 59.9747 12.5699 59.9747 13.2299C59.9747 13.9019 60.1127 14.4959 60.3887 15.0119C60.6767 15.5159 61.0667 15.9059 61.5587 16.1819C62.0627 16.4579 62.6267 16.5959 63.2507 16.5959C63.7907 16.5959 64.2827 16.4819 64.7267 16.2539C65.1707 16.0259 65.5427 15.6839 65.8427 15.2279L67.1567 16.0559C66.7847 16.7159 66.2567 17.2259 65.5727 17.5859C64.9007 17.9339 64.1327 18.1079 63.2687 18.1079ZM78.2859 8.45994V17.9999H76.6479V16.5599C76.2999 17.0519 75.8379 17.4359 75.2619 17.7119C74.6979 17.9759 74.0799 18.1079 73.4079 18.1079C72.1359 18.1079 71.1339 17.7599 70.4019 17.0639C69.6699 16.3559 69.3039 15.3179 69.3039 13.9499V8.45994H71.0319V13.7519C71.0319 14.6759 71.2539 15.3779 71.6979 15.8579C72.1419 16.3259 72.7779 16.5599 73.6059 16.5599C74.5179 16.5599 75.2379 16.2839 75.7659 15.7319C76.2939 15.1799 76.5579 14.3999 76.5579 13.3919V8.45994H78.2859ZM83.2315 10.0619C83.5315 9.50994 83.9755 9.08994 84.5635 8.80194C85.1515 8.51394 85.8655 8.36994 86.7055 8.36994V10.0439C86.6095 10.0319 86.4775 10.0259 86.3095 10.0259C85.3735 10.0259 84.6355 10.3079 84.0955 10.8719C83.5675 11.4239 83.3035 12.2159 83.3035 13.2479V17.9999H81.5755V8.45994H83.2315V10.0619ZM91.6416 18.1079C90.8616 18.1079 90.1116 18.0059 89.3916 17.8019C88.6716 17.5859 88.1076 17.3159 87.6996 16.9919L88.4196 15.6239C88.8396 15.9239 89.3496 16.1639 89.9496 16.3439C90.5496 16.5239 91.1556 16.6139 91.7676 16.6139C93.2796 16.6139 94.0356 16.1819 94.0356 15.3179C94.0356 15.0299 93.9336 14.8019 93.7296 14.6339C93.5256 14.4659 93.2676 14.3459 92.9556 14.2739C92.6556 14.1899 92.2236 14.0999 91.6596 14.0039C90.8916 13.8839 90.2616 13.7459 89.7696 13.5899C89.2896 13.4339 88.8756 13.1699 88.5276 12.7979C88.1796 12.4259 88.0056 11.9039 88.0056 11.2319C88.0056 10.3679 88.3656 9.67794 89.0856 9.16194C89.8056 8.63394 90.7716 8.36994 91.9836 8.36994C92.6196 8.36994 93.2556 8.44794 93.8916 8.60394C94.5276 8.75994 95.0496 8.96994 95.4576 9.23394L94.7196 10.6019C93.9396 10.0979 93.0216 9.84594 91.9656 9.84594C91.2336 9.84594 90.6756 9.96594 90.2916 10.2059C89.9076 10.4459 89.7156 10.7639 89.7156 11.1599C89.7156 11.4719 89.8236 11.7179 90.0396 11.8979C90.2556 12.0779 90.5196 12.2099 90.8316 12.2939C91.1556 12.3779 91.6056 12.4739 92.1816 12.5819C92.9496 12.7139 93.5676 12.8579 94.0356 13.0139C94.5156 13.1579 94.9236 13.4099 95.2596 13.7699C95.5956 14.1299 95.7636 14.6339 95.7636 15.2819C95.7636 16.1459 95.3916 16.8359 94.6476 17.3519C93.9156 17.8559 92.9136 18.1079 91.6416 18.1079ZM97.9232 8.45994H99.6512V17.9999H97.9232V8.45994ZM98.7872 6.62394C98.4512 6.62394 98.1692 6.51594 97.9412 6.29994C97.7252 6.08394 97.6172 5.81994 97.6172 5.50794C97.6172 5.19594 97.7252 4.93194 97.9412 4.71594C98.1692 4.48794 98.4512 4.37394 98.7872 4.37394C99.1232 4.37394 99.3992 4.48194 99.6152 4.69794C99.8432 4.90194 99.9572 5.15994 99.9572 5.47194C99.9572 5.79594 99.8432 6.07194 99.6152 6.29994C99.3992 6.51594 99.1232 6.62394 98.7872 6.62394ZM107.037 18.1079C106.089 18.1079 105.237 17.8979 104.481 17.4779C103.725 17.0579 103.131 16.4819 102.699 15.7499C102.279 15.0059 102.069 14.1659 102.069 13.2299C102.069 12.2939 102.279 11.4599 102.699 10.7279C103.131 9.98394 103.725 9.40794 104.481 8.99994C105.237 8.57994 106.089 8.36994 107.037 8.36994C107.985 8.36994 108.831 8.57994 109.575 8.99994C110.331 9.40794 110.919 9.98394 111.339 10.7279C111.771 11.4599 111.987 12.2939 111.987 13.2299C111.987 14.1659 111.771 15.0059 111.339 15.7499C110.919 16.4819 110.331 17.0579 109.575 17.4779C108.831 17.8979 107.985 18.1079 107.037 18.1079ZM107.037 16.5959C107.649 16.5959 108.195 16.4579 108.675 16.1819C109.167 15.8939 109.551 15.4979 109.827 14.9939C110.103 14.4779 110.241 13.8899 110.241 13.2299C110.241 12.5699 110.103 11.9879 109.827 11.4839C109.551 10.9679 109.167 10.5719 108.675 10.2959C108.195 10.0199 107.649 9.88194 107.037 9.88194C106.425 9.88194 105.873 10.0199 105.381 10.2959C104.901 10.5719 104.517 10.9679 104.229 11.4839C103.953 11.9879 103.815 12.5699 103.815 13.2299C103.815 13.8899 103.953 14.4779 104.229 14.9939C104.517 15.4979 104.901 15.8939 105.381 16.1819C105.873 16.4579 106.425 16.5959 107.037 16.5959ZM119.47 8.36994C120.682 8.36994 121.642 8.72394 122.35 9.43194C123.07 10.1279 123.43 11.1539 123.43 12.5099V17.9999H121.702V12.7079C121.702 11.7839 121.48 11.0879 121.036 10.6199C120.592 10.1519 119.956 9.91794 119.128 9.91794C118.192 9.91794 117.454 10.1939 116.914 10.7459C116.374 11.2859 116.104 12.0659 116.104 13.0859V17.9999H114.376V8.45994H116.032V9.89994C116.38 9.40794 116.848 9.02994 117.436 8.76594C118.036 8.50194 118.714 8.36994 119.47 8.36994Z" fill="#2F80ED"/>
</g>
<defs>
<clipPath id="clip0">
<rect width="125" height="23.9999" fill="white"/>
</clipPath>
<clipPath id="clip1">
<rect width="24" height="23.9999" fill="white"/>
</clipPath>
</defs>
</svg>
