<svg width="64" height="64" viewBox="0 0 64 64" fill="none" xmlns="http://www.w3.org/2000/svg">
<path d="M64 32.4034C64 47.1016 53.1586 59.3152 39.0525 61.4687C39.1716 60.8163 39.2049 60.1408 39.1248 59.4562C39.1248 59.4562 39.0405 58.7359 38.9303 57.7932C43.9385 56.9399 48.4601 54.6419 52.044 51.337C51.8289 51.1581 51.6146 50.926 51.4034 50.618C50.4515 49.2291 51.6962 47.851 51.6962 46.6365C51.6962 45.4451 49.2944 45.5431 49.2065 44.7541C48.903 42.0216 50.8833 41.9843 51.9391 40.9286C52.9949 39.8728 50.8956 37.4724 49.5395 37.6273C48.1743 37.7731 44.3315 36.9968 44.6827 34.0567C45.1105 30.4757 40.1204 30.7917 39.4058 29.1202C38.3641 26.684 40.0958 23.6956 42.3544 23.0167C45.5536 22.0552 48.7051 19.4453 48.459 16.54C48.1801 13.2495 46.6907 10.282 44.2377 8.51916C41.685 7.48502 38.9325 6.84554 36.0527 6.68418C33.4826 6.78583 31.2229 7.35702 31.326 8.5337C31.5788 11.4172 39.7786 12.1662 38.4026 14.8617C37.6852 16.2669 32.3013 18.2502 33.3068 20.3415C33.9608 21.7015 35.5703 20.5359 34.9694 23.1468C34.6929 24.3482 33.6395 26.6054 32.0196 26.7511C30.363 26.9058 28.9835 22.5172 24.4745 22.3733C22.3428 22.3051 19.3397 25.6992 21.8897 28.1071C23.4338 29.5653 26.3315 26.3545 27.1867 28.8627C27.7894 30.6301 27.1056 34.3429 29.9183 35.8946C30.9437 36.4603 32.5155 36.9533 34.0702 37.7433C31.7627 38.2145 28.9275 39.0938 25.5795 40.3834L22.7587 39.6391C23.9396 38.6561 25.8582 37.9642 25.3755 35.8162C24.6663 32.6604 19.1869 33.8506 15.4094 30.0731C14.2505 28.9144 11.7786 25.0668 11.7888 20.4442C9.90577 24.0208 8.83409 28.0884 8.83409 32.4035C8.83409 33.7317 8.93542 35.0368 9.13024 36.3115C9.0858 36.3107 9.04188 36.303 8.99754 36.303C7.80789 36.303 6.64114 36.5529 5.55984 37.0255C5.32099 35.5191 5.19351 33.9762 5.19351 32.4036C5.19351 16.1908 18.3839 3 34.5966 3C50.8096 2.99979 64 16.1906 64 32.4034ZM41.9439 40.9735L34.7628 44.2744L34.8741 42.7097L39.5263 40.6096C38.8627 40.5621 38.1753 40.544 37.4888 40.544C34.9185 40.544 30.5758 41.8451 25.7726 43.7517L10.368 39.6884C8.92841 39.3086 7.39576 39.5425 6.1349 40.3347L5.37746 40.8105C4.63801 41.275 4.63016 42.35 5.36271 42.8254L14.6227 48.8331C12.4107 49.9644 10.3119 51.1133 8.4618 52.2106L3.71011 49.695C2.93395 49.2841 2.01631 49.2354 1.20114 49.5619L0.751366 49.7421C0.0806211 50.0106 -0.200372 50.8083 0.154137 51.4379L2.77176 56.0886L2.77291 56.0882C1.7853 56.9378 1.22248 57.6425 1.22248 58.1301C1.22248 59.5896 3.01845 59.9543 4.60151 59.9543C7.42504 59.9543 44.7131 51.4167 44.7131 43.6819C44.7129 42.1501 43.6652 41.384 41.9439 40.9735ZM26.2223 56.0751L34.4276 53.1846C34.789 53.0573 35.1752 53.2982 35.2198 53.6789L35.9391 59.8295C36.1189 61.3664 35.2922 62.8454 33.889 63.4977L33.1195 63.8554C32.6388 64.0788 32.0687 63.959 31.7185 63.5613L25.9723 57.0337C25.6925 56.7158 25.8228 56.2159 26.2223 56.0751Z" fill="#2F80ED"/>
</svg>
