<svg width="64" height="64" viewBox="0 0 64 64" fill="none" xmlns="http://www.w3.org/2000/svg">
<g clip-path="url(#clip0)">
<path d="M38.9373 15.222C38.1869 17.729 37.749 20.3487 37.749 23.0437V27.4793L48.9974 38.7277V25.2822L38.9373 15.222Z" fill="#2F80ED"/>
<path d="M63.9078 21.6202L52.7471 32.781V38.7274L63.9954 27.479V23.0434C63.9954 22.5637 63.9324 22.0959 63.9078 21.6202Z" fill="#2F80ED"/>
<path d="M63.2798 16.9462C61.7512 10.2627 57.7659 4.21503 51.9221 0.309403C51.2846 -0.102972 50.4598 -0.102972 49.8222 0.309403C45.6657 3.0874 42.4783 7.02753 40.4092 11.3922L48.9974 19.9804V17.0073C48.9974 15.9573 49.8222 15.1325 50.8722 15.1325C51.9222 15.1325 52.7469 15.9573 52.7469 17.0073V27.4794L63.2798 16.9462Z" fill="#2F80ED"/>
<path d="M52.7469 44.0294V50.6394C52.1471 51.2019 51.5094 51.7269 50.8721 52.2143C50.2349 51.7269 49.5973 51.2018 48.9974 50.6394V44.0294L37.749 32.781C37.749 42.6901 42.1326 50.4739 48.9974 55.4481V62.1253C48.9974 63.1615 49.8359 64 50.8721 64C51.9084 64 52.7469 63.1615 52.7469 62.1253V55.4481C59.5805 50.4964 63.9953 42.7296 63.9953 32.781L52.7469 44.0294Z" fill="#2F80ED"/>
<path d="M28.3756 37.6289H26.5009V33.5341C28.6783 32.7576 30.2504 30.6961 30.2504 28.2552C30.2504 25.154 27.7275 22.6311 24.6263 22.6311H9.37851C6.27726 22.6311 3.75438 25.154 3.75438 28.2552C3.75438 30.6961 5.32638 32.7576 7.50388 33.5341V37.6289H5.62901C2.52776 37.6289 0.00488281 40.1517 0.00488281 43.253V58.3757C0.00488281 61.477 2.52776 63.9999 5.62901 63.9999H28.3756C31.4769 63.9999 33.9998 61.477 33.9998 58.3757V43.2531C33.9999 40.1517 31.477 37.6289 28.3756 37.6289ZM9.37851 26.3806H24.6263C25.6606 26.3806 26.501 27.221 26.501 28.2554C26.501 29.2897 25.6606 30.1301 24.6263 30.1301H9.37851C8.34413 30.1301 7.50376 29.2897 7.50376 28.2554C7.50376 27.221 8.34413 26.3806 9.37851 26.3806ZM30.2504 45.1277H3.75438V43.253C3.75438 42.2186 4.59476 41.3782 5.62913 41.3782C13.8015 41.3782 20.5751 41.3782 28.3758 41.3782C29.4101 41.3782 30.2505 42.2186 30.2505 43.253V45.1277H30.2504Z" fill="#2F80ED"/>
</g>
<defs>
<clipPath id="clip0">
<rect width="64" height="64" fill="white"/>
</clipPath>
</defs>
</svg>
